G04 CAM350 V9.5.1 (Build 211) Date:  Fri May 13 20:41:23 2016 *
G04 Database: (Untitled) *
G04 Layer 2: STM32duino-B_Ma *
%FSLAX46Y46*%
%MOMM*%
%SFA1.000B1.000*%

%MIA0B0*%
%IPPOS*%
%ADD11O,1.52400X2.19964*%
%ADD12O,1.52400X2.19710*%
%ADD13O,4.00050X1.99898*%
%ADD14O,1.99898X4.00050*%
%ADD15O,1.99898X4.50088*%
%ADD16C,1.99898*%
%ADD17C,0.70000*%
%ADD18R,1.99898X1.52400*%
%ADD19O,1.99898X1.52400*%
%ADD71C,3.19786*%
%ADD20R,1.72720X1.72720*%
%ADD21O,1.72720X1.72720*%
%ADD26C,0.89916*%
%LNSTM32duino-B_Ma*%
%LPD*%
G54D11*
X143421100Y-129133600D03*
X145961100D03*
X148501100D03*
X151041100D03*
X153581100D03*
X156121100D03*
X158661100D03*
X161201100D03*
X166281100D03*
X168821100D03*
X171361100D03*
X173901100D03*
X176441100D03*
X178981100D03*
G54D71*
X129451100D03*
X181521100Y-124053600D03*
G54D12*
X178981100Y-80873600D03*
X176441100D03*
X173901100D03*
X171361100D03*
X168821100D03*
X166281100D03*
X163741100D03*
X161201100D03*
X157137100D03*
X154597100D03*
X152057100D03*
X149517100D03*
X146977100D03*
X144437100D03*
X141897100D03*
X139359640D03*
G54D71*
X130721100D03*
G54D12*
X136817100D03*
X134277100D03*
G54D71*
X181521100Y-96113600D03*
G54D13*
X123261120Y-129379980D03*
G54D14*
X120009920Y-124079000D03*
G54D15*
X126011940D03*
G54D16*
X166878000Y-101346000D03*
X161798000D03*
G54D17*
X158922000Y-106849000D03*
Y-105749000D03*
G54D18*
X179011580Y-101155500D03*
G54D19*
X182049420D03*
X179011580Y-103695500D03*
X182049420D03*
X179011580Y-106235500D03*
X182049420D03*
G54D20*
X181737000Y-111252000D03*
G54D21*
X179197000D03*
X181737000Y-113792000D03*
X179197000D03*
X181737000Y-116332000D03*
X179197000D03*
X181737000Y-118872000D03*
X179197000D03*
G54D26*
X121259600Y-91401900D03*
Y-95798640D03*
M02*
