G04 CAM350 V9.5.1 (Build 211) Date:  Fri May 13 20:41:23 2016 *
G04 Database: (Untitled) *
G04 Layer 1: STM32duino-B_Cu *
%FSLAX46Y46*%
%MOMM*%
%SFA1.000B1.000*%

%MIA0B0*%
%IPPOS*%
%ADD10C,0.25400*%
%ADD11O,1.52400X2.19964*%
%ADD12O,1.52400X2.19710*%
%ADD13O,4.00050X1.99898*%
%ADD14O,1.99898X4.00050*%
%ADD15O,1.99898X4.50088*%
%ADD16C,1.99898*%
%ADD17C,0.70000*%
%ADD18R,1.99898X1.52400*%
%ADD19O,1.99898X1.52400*%
%ADD20R,1.72720X1.72720*%
%ADD21O,1.72720X1.72720*%
%ADD22C,0.68580*%
%ADD23C,0.50800*%
%ADD24C,0.20320*%
%ADD25C,1.27000*%
%LNSTM32duino-B_Cu*%
%LPD*%
G36*
X116128006Y-130145244D02*
G01Y-79912756D01*
X116128024Y-79912712*
X116996726Y-79044018*
X116996770Y-79044000*
X129391794Y-79044034*
X128828360Y-79606554*
X128487570Y-80427274*
X128487560Y-80427324*
X128486786Y-81315984*
X128486796Y-81316032*
X128826154Y-82137344*
X128826182Y-82137386*
X129454014Y-82766312*
X130274774Y-83107130*
X130274824Y-83107140*
X131163486Y-83107914*
X131163534Y-83107904*
X131984844Y-82768546*
X131984886Y-82768518*
X132613814Y-82140686*
X132914450Y-81416794*
X132986436Y-81778698*
X132986456Y-81778746*
X133289260Y-82231922*
X133348620Y-82271624*
X131266900Y-84353382*
X131266856Y-84353400*
X128269986Y-84353402*
X127988138Y-84409466*
X127988090Y-84409486*
X127749136Y-84569156*
X122796140Y-89522154*
X122636482Y-89761096*
X122636462Y-89761144*
X122580400Y-90043014*
Y-104012990*
X122636466Y-104294862*
X122636486Y-104294910*
X122796142Y-104533846*
X128638138Y-110375844*
X128877098Y-110535518*
X128877146Y-110535538*
X129158990Y-110591598*
X150367990Y-110591600*
X150649864Y-110535534*
X150649912Y-110535514*
X150744966Y-110472018*
X150829328Y-110556524*
X151188610Y-110705720*
X151188660Y-110705730*
X151577642Y-110706066*
X151577690Y-110706056*
X151937190Y-110557514*
X151937232Y-110557486*
X152212524Y-110282672*
X152361720Y-109923390*
X152361730Y-109923340*
X152361824Y-109830002*
X152361860Y-109829948*
X152445190Y-109795514*
X152445232Y-109795486*
X152720524Y-109520672*
X152869720Y-109161390*
X152869730Y-109161340*
X152870068Y-108772358*
X152870058Y-108772310*
X152721516Y-108412810*
X152721488Y-108412768*
X152446634Y-108137448*
X152087390Y-107988280*
X152087340Y-107988270*
X151698360Y-107987932*
X151698312Y-107987942*
X151338810Y-108136484*
X151338768Y-108136512*
X151245728Y-108229382*
X151245684Y-108229400*
X150113986Y-108229402*
X149832138Y-108285466*
X149832090Y-108285486*
X149593136Y-108445156*
X149427900Y-108610382*
X149427856Y-108610400*
X139794150*
X129972130Y-108610394*
X129972086Y-108610376*
X124651608Y-103289890*
X124651590Y-103289846*
X124651596Y-90512140*
X124651614Y-90512096*
X128829100Y-86334618*
X128829144Y-86334600*
X132429240*
X132711114Y-86278534*
X132711162Y-86278514*
X132950098Y-86118858*
X136492416Y-82576554*
X136492470Y-82576538*
X136817080Y-82641108*
X136817128*
X137351688Y-82534776*
X137351736Y-82534756*
X137804910Y-82231952*
X138088386Y-81807764*
X138371800Y-82231922*
X138470614Y-82297966*
X138470640Y-82298016*
Y-82480140*
X138538308Y-82820334*
X138538328Y-82820382*
X138731018Y-83108760*
X139683472Y-84061226*
X139683490Y-84061270*
Y-84946480*
X139751158Y-85286674*
X139751178Y-85286722*
X139943868Y-85575100*
X144020052Y-89651284*
X144308454Y-89843994*
X144308502Y-89844014*
X144648668Y-89911674*
X147425256Y-89911676*
X147446980Y-89915996*
X147447028*
X147787184Y-89848334*
X147787232Y-89848314*
X148075610Y-89655622*
X148831226Y-88900018*
X148831270Y-88900000*
X151650744Y-88900006*
X151650788Y-88900024*
X152145982Y-89395226*
X152146000Y-89395270*
Y-94360990*
X152213668Y-94701184*
X152213688Y-94701232*
X152406378Y-94989610*
X154692374Y-97275608*
X154980778Y-97468316*
X154980826Y-97468336*
X155320990Y-97535998*
X158975936Y-97536002*
X159189610Y-97624720*
X159189660Y-97624730*
X159578642Y-97625066*
X159578690Y-97625056*
X159938190Y-97476514*
X159938232Y-97476486*
X160213524Y-97201672*
X160362720Y-96842390*
X160362730Y-96842340*
X160363068Y-96453358*
X160363058Y-96453310*
X160214516Y-96093810*
X160214488Y-96093768*
X159939634Y-95818448*
X159580390Y-95669280*
X159580340Y-95669270*
X159191360Y-95668932*
X159191312Y-95668942*
X158975754Y-95758000*
X155689256Y-95757994*
X155689212Y-95757976*
X153924018Y-93992774*
X153924000Y-93992730*
X153923998Y-89026986*
X153856334Y-88686816*
X153856314Y-88686768*
X153663606Y-88398372*
X152647608Y-87382376*
X152359224Y-87189682*
X152359176Y-87189662*
X152018986Y-87122000*
X148462986Y-87122002*
X148122816Y-87189666*
X148122768Y-87189686*
X147834372Y-87382394*
X147083098Y-88133658*
X147083054Y-88133676*
X145016934Y-88133670*
X145016890Y-88133652*
X141461508Y-84578264*
X141461490Y-84578220*
X141461488Y-83692986*
X141393824Y-83352816*
X141393804Y-83352768*
X141201096Y-83064372*
X140355978Y-82219202*
X140636532Y-81799382*
X140655038Y-81862068*
X140655060Y-81862112*
X140999062Y-82287762*
X141479808Y-82549400*
X141553988Y-82564358*
X141554078Y-82564344*
X141770036Y-82441896*
X141770100Y-82441784*
X141770080Y-81000728*
X141769952Y-81000600*
X141750154Y-81000580*
X141750100Y-81000526*
X141750120Y-80746654*
X141750174Y-80746600*
X141769972Y-80746580*
X141770100Y-80746452*
X141770090Y-79305398*
X141770026Y-79305286*
X141554064Y-79182854*
X141553974Y-79182840*
X141479802Y-79197802*
X140999056Y-79459444*
X140655056Y-79885092*
X140655034Y-79885136*
X140636496Y-79947822*
X140347446Y-79515244*
X139894268Y-79212440*
X139894220Y-79212420*
X139359660Y-79106092*
X139359612*
X138825054Y-79212424*
X138825006Y-79212444*
X138371796Y-79515282*
X138088354Y-79939434*
X137804906Y-79515244*
X137351728Y-79212440*
X137351680Y-79212420*
X136817120Y-79106092*
X136817072*
X136282514Y-79212424*
X136282466Y-79212444*
X135829256Y-79515282*
X135547084Y-79937534*
X135264906Y-79515244*
X134811728Y-79212440*
X134811680Y-79212420*
X134277120Y-79106092*
X134277072*
X133742514Y-79212424*
X133742466Y-79212444*
X133289256Y-79515282*
X132986452Y-79968460*
X132986432Y-79968508*
X132914204Y-80331450*
X132616046Y-79609856*
X132616018Y-79609814*
X132051264Y-79044026*
X179929244Y-79044006*
X179929288Y-79044024*
X180797982Y-79912726*
X180798000Y-79912770*
Y-91058990*
X180850140Y-91321116*
X180850160Y-91321164*
X180998628Y-91543360*
X183337982Y-93882726*
X183338000Y-93882770*
X183337966Y-94771622*
X182788146Y-94220858*
X181967426Y-93880068*
X181967376Y-93880058*
X181078716Y-93879284*
X181078668Y-93879294*
X180378100Y-94168762*
X180257356Y-94218654*
X180257314Y-94218682*
X179628360Y-94846554*
X179287570Y-95667274*
X179287560Y-95667324*
X179286786Y-96555984*
X179286796Y-96556032*
X179626154Y-97377344*
X179626182Y-97377386*
X180254014Y-98006312*
X181074774Y-98347130*
X181074824Y-98347140*
X181963486Y-98347914*
X181963534Y-98347904*
X182784844Y-98008546*
X182784886Y-98008518*
X183338000Y-97456420*
X183337962Y-100214366*
X183306738Y-100167656*
X182938446Y-99921562*
X182938420Y-99921512*
X182938418Y-99885486*
X182870754Y-99545316*
X182870734Y-99545268*
X182678026Y-99256872*
X182233528Y-98812376*
X181945144Y-98619682*
X181945096Y-98619662*
X181604906Y-98552000*
X170716040Y-98551992*
X170502390Y-98463280*
X170502340Y-98463270*
X170113360Y-98462932*
X170113312Y-98462942*
X169753810Y-98611484*
X169753768Y-98611512*
X169478448Y-98886366*
X169329280Y-99245610*
X169329270Y-99245660*
X169328934Y-99634640*
X169328944Y-99634688*
X169477486Y-99994190*
X169477514Y-99994232*
X169752328Y-100269524*
X170111610Y-100418720*
X170111660Y-100418730*
X170500642Y-100419066*
X170500690Y-100419056*
X170716222Y-100330004*
X177377320Y-100330024*
X177377368Y-100330084*
X177364650Y-100393514*
X177364642Y-100583426*
X177364616Y-100583476*
X177288026Y-100634656*
X175676808Y-102245864*
X175676764Y-102245882*
X174367966Y-102245876*
X174367922Y-102245858*
X174290634Y-102168448*
X173931390Y-102019280*
X173931340Y-102019270*
X173542360Y-102018932*
X173542312Y-102018942*
X173182810Y-102167484*
X173182768Y-102167512*
X172907448Y-102442366*
X172764042Y-102787662*
X172420810Y-102929484*
X172420768Y-102929512*
X172145448Y-103204366*
X171996280Y-103563610*
X171996270Y-103563660*
X171995934Y-103952640*
X171995944Y-103952688*
X172144486Y-104312190*
X172144514Y-104312232*
X172162730Y-104330544*
X171891448Y-104601366*
X171742280Y-104960610*
X171742270Y-104960660*
X171741934Y-105349640*
X171741944Y-105349688*
X171890486Y-105709190*
X171890514Y-105709232*
X172165328Y-105984524*
X172524610Y-106133720*
X172524660Y-106133730*
X172913642Y-106134066*
X172913690Y-106134056*
X173273190Y-105985514*
X173273232Y-105985486*
X173366272Y-105892618*
X173366316Y-105892600*
X176424260Y-105892606*
X176424304Y-105892624*
X177288028Y-106756344*
X177526988Y-106916018*
X177527036Y-106916038*
X177552246Y-106921054*
X177754228Y-107223310*
X178207442Y-107526148*
X178207490Y-107526168*
X178742058Y-107632498*
X179281082Y-107632500*
X179815680Y-107526164*
X179815728Y-107526144*
X180268902Y-107223340*
X180549278Y-106803794*
X180742622Y-107148944*
X181173578Y-107488620*
X181173624Y-107488644*
X181701688Y-107637504*
X181701796Y-107637484*
X181922366Y-107478782*
X181922420Y-107478678*
X181922400Y-106362628*
X181922272Y-106362500*
X181902474Y-106362480*
X181902420Y-106362426*
X181902440Y-106108554*
X181902494Y-106108500*
X181922292Y-106108480*
X181922420Y-106108352*
X181922440Y-106088554*
X181922494Y-106088500*
X182176366Y-106088520*
X182176420Y-106088574*
X182176440Y-106108372*
X182176568Y-106108500*
X182196366Y-106108520*
X182196420Y-106108574*
X182196400Y-106362446*
X182196346Y-106362500*
X182176548Y-106362520*
X182176420Y-106362648*
X182176428Y-107478694*
X182176482Y-107478798*
X182397062Y-107637488*
X182397170Y-107637508*
X182925224Y-107488640*
X182925270Y-107488616*
X183338000Y-107163362*
X183337966Y-122711622*
X183248040Y-122621540*
X182788146Y-122160858*
X181967426Y-121820068*
X181967376Y-121820058*
X181078716Y-121819284*
X181078668Y-121819294*
X180257356Y-122158654*
X180257314Y-122158682*
X179628360Y-122786554*
X179287570Y-123607274*
X179287560Y-123607324*
X179286786Y-124495984*
X179286796Y-124496032*
X179626154Y-125317344*
X179626182Y-125317386*
X180254014Y-125946312*
X181074774Y-126287130*
X181074824Y-126287140*
X181963486Y-126287914*
X181963534Y-126287904*
X182784844Y-125948546*
X182784886Y-125948518*
X183338000Y-125396420*
X183337994Y-126335244*
X183337976Y-126335288*
X180998626Y-128674642*
X180850156Y-128896844*
X180850136Y-128896892*
X180798000Y-129159014*
X180797994Y-130145244*
X180797976Y-130145288*
X180378100Y-130565164*
X179929274Y-131013982*
X179929230Y-131014000*
X163538070*
X162598100*
X158534100*
X155994100*
X130729492Y-131013940*
X131343814Y-130400686*
X131684632Y-129579926*
X131684642Y-129579876*
X131685416Y-128691214*
X131685406Y-128691166*
X131346046Y-127869856*
X131346018Y-127869814*
X130718146Y-127240858*
X129897426Y-126900068*
X129897376Y-126900058*
X129008716Y-126899284*
X129008668Y-126899294*
X128187356Y-127238654*
X128187314Y-127238682*
X127558360Y-127866554*
X127217570Y-128687274*
X127217560Y-128687324*
X127216786Y-129575984*
X127216796Y-129576032*
X127556154Y-130397344*
X127556182Y-130397386*
X128171618Y-131014000*
X124390734Y-131013948*
X125004682Y-130841456*
X125004728Y-130841432*
X125507424Y-130445948*
X125820548Y-129888148*
X125851488Y-129760378*
X125851480Y-129760294*
X125732168Y-129507054*
X125732052Y-129506980*
X123388248Y-129507000*
X123388120Y-129507128*
X123388100Y-129526926*
X123388046Y-129526980*
X123134174Y-129526960*
X123134120Y-129526906*
Y-129507108*
X123133992Y-129506980*
X120790172Y-129506992*
X120790056Y-129507066*
X120670764Y-129760300*
X120670752Y-129760354*
X120701684Y-129888122*
X121014790Y-130445916*
X121517520Y-130841436*
X121517566Y-130841460*
X122131488Y-131014000*
X119882920*
X116996756Y-131013994*
X116996712Y-131013976*
X116128024Y-130145288*
X116128006Y-130145244*
G37*
%LPC*%
G36*
X120174844Y-91616716D02*
G01X120339594Y-92015440D01*
X120339622Y-92015482*
X120644420Y-92320810*
X121042898Y-92486280*
X121042948Y-92486290*
X121474368Y-92486666*
X121474416Y-92486656*
X121873136Y-92321910*
X121873178Y-92321882*
X122178510Y-92017080*
X122343982Y-91618602*
X122343992Y-91618552*
X122344366Y-91187132*
X122344356Y-91187084*
X122179606Y-90788358*
X122179578Y-90788316*
X121874742Y-90482962*
X121476304Y-90317518*
X121476254Y-90317508*
X121044832Y-90317134*
X121044784Y-90317144*
X120646060Y-90481894*
X120646018Y-90481922*
X120340662Y-90786758*
X120175220Y-91185196*
X120175210Y-91185246*
X120174834Y-91616668*
X120174844Y-91616716*
G37*
G36*
Y-96013456D02*
G01X120339594Y-96412180D01*
X120339622Y-96412222*
X120644420Y-96717550*
X121042898Y-96883020*
X121042948Y-96883030*
X121474368Y-96883406*
X121474416Y-96883396*
X121873136Y-96718650*
X121873178Y-96718622*
X122178510Y-96413820*
X122343982Y-96015342*
X122343992Y-96015292*
X122344366Y-95583872*
X122344356Y-95583824*
X122179606Y-95185098*
X122179578Y-95185056*
X121874742Y-94879702*
X121476304Y-94714258*
X121476254Y-94714248*
X121044832Y-94713874*
X121044784Y-94713884*
X120646060Y-94878634*
X120646018Y-94878662*
X120340662Y-95183498*
X120175220Y-95581936*
X120175210Y-95581986*
X120174834Y-96013408*
X120174844Y-96013456*
G37*
G36*
X160163238Y-101669720D02*
G01X160411530Y-102270632D01*
X160411558Y-102270674*
X160870914Y-102730830*
X161471434Y-102980196*
X161471484Y-102980206*
X162121672Y-102980772*
X162121720Y-102980762*
X162722628Y-102732474*
X162722670Y-102732446*
X163182830Y-102273086*
X163432196Y-101672566*
X163432206Y-101672516*
X163432772Y-101022328*
X163432762Y-101022280*
X163184470Y-100421366*
X163184442Y-100421324*
X162725048Y-99961142*
X162124568Y-99711804*
X162124518Y-99711794*
X161474328Y-99711228*
X161474280Y-99711238*
X160873368Y-99959530*
X160873326Y-99959558*
X160413142Y-100418952*
X160163804Y-101019432*
X160163794Y-101019482*
X160163228Y-101669672*
X160163238Y-101669720*
G37*
G36*
X165243238D02*
G01X165491530Y-102270632D01*
X165491558Y-102270674*
X165950914Y-102730830*
X166551434Y-102980196*
X166551484Y-102980206*
X167201672Y-102980772*
X167201720Y-102980762*
X167802628Y-102732474*
X167802670Y-102732446*
X168262830Y-102273086*
X168512196Y-101672566*
X168512206Y-101672516*
X168512772Y-101022328*
X168512762Y-101022280*
X168264470Y-100421366*
X168264442Y-100421324*
X167805048Y-99961142*
X167204568Y-99711804*
X167204518Y-99711794*
X166554328Y-99711228*
X166554280Y-99711238*
X165953368Y-99959530*
X165953326Y-99959558*
X165493142Y-100418952*
X165243804Y-101019432*
X165243794Y-101019482*
X165243228Y-101669672*
X165243238Y-101669720*
G37*
G36*
X152310944Y-110810688D02*
G01X152459486Y-111170190D01*
X152459514Y-111170232*
X152555190Y-111266082*
X152608466Y-111533862*
X152608486Y-111533910*
X152768142Y-111772846*
X155838054Y-114842772*
X155838072Y-114842816*
Y-115299662*
X155894138Y-115581534*
X155894158Y-115581582*
X156053814Y-115820518*
X156832138Y-116598844*
X157071098Y-116758518*
X157071146Y-116758538*
X157352990Y-116814598*
X164763298Y-116814600*
X165045172Y-116758534*
X165045220Y-116758514*
X165284156Y-116598858*
X165576408Y-116306618*
X165576452Y-116306600*
X175843870Y-116306606*
X175843914Y-116306624*
X177660138Y-118122844*
X177861706Y-118257554*
X177742062Y-118512926*
X177742050Y-118512980*
X177742064Y-118513038*
X177862508Y-118744930*
X177862622Y-118745000*
X179069872Y-118744980*
X179070000Y-118744852*
X179070020Y-118725054*
X179070074Y-118725000*
X179323946Y-118725020*
X179324000Y-118725074*
X179324020Y-118744872*
X179324148Y-118745000*
X179343946Y-118745020*
X179344000Y-118745074*
X179343980Y-118998946*
X179343926Y-118999000*
X179324128Y-118999020*
X179324000Y-118999148*
X179324010Y-120205744*
X179324078Y-120205858*
X179555980Y-120326926*
X179556088Y-120326930*
X179971930Y-120154692*
X180403804Y-119760502*
X180461358Y-119637800*
X180677318Y-119961010*
X181163494Y-120285872*
X181163542Y-120285892*
X181736980Y-120399954*
X181737028*
X182310460Y-120285892*
X182310508Y-120285872*
X182796652Y-119961040*
X183121514Y-119474866*
X183121534Y-119474818*
X183235598Y-118901368*
Y-118842626*
X183121530Y-118269174*
X183121510Y-118269126*
X182796648Y-117782954*
X182525878Y-117602002*
X182796652Y-117421040*
X183121514Y-116934866*
X183121534Y-116934818*
X183235598Y-116361368*
Y-116302626*
X183121530Y-115729174*
X183121510Y-115729126*
X182796648Y-115242954*
X182525878Y-115062002*
X182796652Y-114881040*
X183121514Y-114394866*
X183121534Y-114394818*
X183235598Y-113821368*
Y-113762626*
X183121530Y-113189174*
X183121510Y-113189126*
X182809746Y-112722490*
X182842700Y-112716066*
X182842746Y-112716046*
X183055508Y-112576284*
X183197966Y-112365258*
X183197986Y-112365212*
X183248078Y-112115614*
X183248038Y-110388386*
X183201068Y-110146300*
X183201048Y-110146254*
X183061252Y-109933456*
X182850258Y-109791034*
X182850212Y-109791014*
X182600586Y-109740960*
X180873386Y-109740962*
X180631302Y-109787932*
X180631256Y-109787952*
X180418458Y-109927748*
X180276036Y-110138742*
X180276016Y-110138788*
X180267794Y-110179618*
X180256648Y-110162954*
X179770508Y-109838126*
X179770460Y-109838106*
X179197020Y-109724044*
X179196972*
X178623534Y-109838110*
X178623486Y-109838130*
X178137314Y-110162992*
X177812486Y-110649134*
X177812466Y-110649182*
X177766852Y-110878436*
X176732900Y-111912382*
X176732856Y-111912400*
X168512774*
X163432774*
X160198130Y-111912394*
X160198086Y-111912376*
X158089618Y-109803900*
X158089600Y-109803856*
X158089606Y-107834458*
X158089624Y-107834414*
X158181524Y-107742672*
X158252294Y-107572342*
X158363300Y-107683538*
X158725192Y-107833818*
X158725242Y-107833828*
X159117048Y-107834168*
X159117096Y-107834158*
X159479208Y-107684536*
X159479250Y-107684508*
X159756540Y-107407700*
X159906818Y-107045808*
X159906828Y-107045758*
X159907168Y-106653952*
X159907158Y-106653904*
X159760348Y-106298574*
X159906818Y-105945808*
X159906828Y-105945758*
X159907168Y-105553952*
X159907158Y-105553904*
X159757538Y-105191792*
X159757510Y-105191750*
X159480660Y-104914432*
X159118808Y-104764182*
X159118758Y-104764172*
X158726954Y-104763832*
X158726906Y-104763842*
X158364794Y-104913462*
X158364752Y-104913490*
X158087434Y-105190340*
X157937182Y-105552192*
X157937172Y-105552242*
X157936832Y-105944046*
X157936842Y-105944094*
X158083650Y-106299446*
X158014330Y-106466316*
X157907634Y-106359448*
X157548390Y-106210280*
X157548340Y-106210270*
X157159360Y-106209932*
X157159312Y-106209942*
X156799810Y-106358484*
X156799768Y-106358512*
X156524448Y-106633366*
X156375280Y-106992610*
X156375270Y-106992660*
X156374934Y-107381640*
X156374944Y-107381688*
X156523486Y-107741190*
X156523514Y-107741232*
X156616382Y-107834270*
X156616400Y-107834314*
Y-110108990*
X156672466Y-110390862*
X156672486Y-110390910*
X156832142Y-110629846*
X157474178Y-111271950*
X157286448Y-111459366*
X157137280Y-111818610*
X157137270Y-111818660*
X157137166Y-111899452*
X156425974Y-111188254*
X156425956Y-111188210*
X156426068Y-111058358*
X156426058Y-111058310*
X156277516Y-110698810*
X156277488Y-110698768*
X156002634Y-110423448*
X155643390Y-110274280*
X155643340Y-110274270*
X155536810Y-110274156*
X155536756Y-110274104*
X155537068Y-109915358*
X155537058Y-109915310*
X155388516Y-109555810*
X155388488Y-109555768*
X155287624Y-109454728*
X155113634Y-109280448*
X154754390Y-109131280*
X154754340Y-109131270*
X154365360Y-109130932*
X154365312Y-109130942*
X154005810Y-109279484*
X154005768Y-109279512*
X153730448Y-109554366*
X153664172Y-109713928*
X153484390Y-109639280*
X153484340Y-109639270*
X153095360Y-109638932*
X153095312Y-109638942*
X152735810Y-109787484*
X152735768Y-109787512*
X152460448Y-110062366*
X152311280Y-110421610*
X152311270Y-110421660*
X152310934Y-110810640*
X152310944Y-110810688*
G37*
G36*
X118782944Y-114366688D02*
G01X118931486Y-114726190D01*
X118931514Y-114726232*
X119206328Y-115001524*
X119565610Y-115150720*
X119565660Y-115150730*
X119954642Y-115151066*
X119954690Y-115151056*
X120170222Y-115062004*
X122694744Y-115062006*
X122694788Y-115062024*
X127514374Y-119881608*
X127802778Y-120074316*
X127802826Y-120074336*
X128142990Y-120141998*
X140982744Y-120142006*
X140982788Y-120142024*
X142756696Y-121915930*
X143045100Y-122108640*
X143045148Y-122108660*
X143385312Y-122176320*
X146608946Y-122176322*
X146684980Y-122191444*
X146685028*
X146761034Y-122176324*
X151113936*
X151327610Y-122265042*
X151327660Y-122265052*
X151716642Y-122265388*
X151716690Y-122265378*
X151932222Y-122176326*
X161922668Y-122176322*
X162262862Y-122108654*
X162262910Y-122108634*
X162551288Y-121915944*
X162899388Y-121567856*
X163113190Y-121479514*
X163113232Y-121479486*
X163388524Y-121204672*
X163537720Y-120845390*
X163537730Y-120845340*
X163538068Y-120456358*
X163538058Y-120456310*
X163389516Y-120096810*
X163389488Y-120096768*
X163114634Y-119821448*
X162755390Y-119672280*
X162755340Y-119672270*
X162366360Y-119671932*
X162366312Y-119671942*
X162006810Y-119820484*
X162006768Y-119820512*
X161731448Y-120095366*
X161641994Y-120310768*
X161554452Y-120398304*
X161554408Y-120398322*
X151932040Y-120398314*
X151718390Y-120309602*
X151718340Y-120309592*
X151329360Y-120309254*
X151329312Y-120309264*
X151113754Y-120398322*
X147574054Y-120398302*
X147574000Y-120398248*
X147574034Y-112778678*
X149011646Y-114216286*
X149250608Y-114375960*
X149250656Y-114375980*
X149532500Y-114432040*
X152252312Y-114432048*
X152252356Y-114432066*
X153835026Y-116014744*
X153835044Y-116014788*
X153834934Y-116144640*
X153834944Y-116144688*
X153983486Y-116504190*
X153983514Y-116504232*
X154258328Y-116779524*
X154617610Y-116928720*
X154617660Y-116928730*
X155006642Y-116929066*
X155006690Y-116929056*
X155366190Y-116780514*
X155366232Y-116780486*
X155641524Y-116505672*
X155790720Y-116146390*
X155790730Y-116146340*
X155791068Y-115757358*
X155791058Y-115757310*
X155642516Y-115397810*
X155642488Y-115397768*
X155367634Y-115122448*
X155008390Y-114973280*
X155008340Y-114973270*
X154876886Y-114973148*
X154876842Y-114973130*
X153078288Y-113174580*
X152839346Y-113014924*
X152839298Y-113014904*
X152557428Y-112958842*
X149837640Y-112958836*
X149837596Y-112958818*
X148866554Y-111987738*
X148932720Y-111828390*
X148932730Y-111828340*
X148933068Y-111439358*
X148933058Y-111439310*
X148784516Y-111079810*
X148784488Y-111079768*
X148509634Y-110804448*
X148150390Y-110655280*
X148150340Y-110655270*
X147761360Y-110654932*
X147761312Y-110654942*
X147401810Y-110803484*
X147401768Y-110803512*
X147320082Y-110885024*
X147239634Y-110804448*
X146880390Y-110655280*
X146880340Y-110655270*
X146491360Y-110654932*
X146491312Y-110654942*
X146131810Y-110803484*
X146131768Y-110803512*
X145856448Y-111078366*
X145707280Y-111437610*
X145707270Y-111437660*
X145706934Y-111826640*
X145706944Y-111826688*
X145795996Y-112042220*
X145795980Y-120398268*
X145795926Y-120398322*
X143753578Y-120398316*
X143753534Y-120398298*
X141979608Y-118624376*
X141691224Y-118431682*
X141691176Y-118431662*
X141350986Y-118364000*
X128511256Y-118363994*
X128511212Y-118363976*
X123691608Y-113544376*
X123403224Y-113351682*
X123403176Y-113351662*
X123062986Y-113284000*
X122344368*
X120170040Y-113283992*
X119956390Y-113195280*
X119956340Y-113195270*
X119567360Y-113194932*
X119567312Y-113194942*
X119207810Y-113343484*
X119207768Y-113343512*
X118932448Y-113618366*
X118783280Y-113977610*
X118783270Y-113977660*
X118782934Y-114366640*
X118782944Y-114366688*
G37*
G36*
X118375450Y-123951872D02*
G01X118375578Y-123952000D01*
X119882832*
X119882960Y-123951872*
X119882908Y-121608050*
X119882834Y-121607934*
X119629600Y-121488642*
X119629516Y-121488634*
X119501746Y-121519574*
X118943946Y-121832702*
X118548464Y-122335398*
X118548440Y-122335444*
X118375430Y-122951260*
X118375450Y-123951872*
G37*
G36*
X120136940D02*
G01X120137068Y-123952000D01*
X121644322*
X121644450Y-123951872*
X121644406Y-122951226*
X121471398Y-122335438*
X121471374Y-122335392*
X121075850Y-121832664*
X120518058Y-121519560*
X120390312Y-121488636*
X120390228Y-121488644*
X120136994Y-121607952*
X120136920Y-121608068*
X120136940Y-123951872*
G37*
G36*
X120136932Y-126549948D02*
G01X120137006Y-126550064D01*
X120390240Y-126669356*
X120390324Y-126669364*
X120518058Y-126638438*
X121075856Y-126325330*
X121471378Y-125822600*
X121471402Y-125822554*
X121644446Y-125206776*
X121644410Y-124206128*
X121644282Y-124206000*
X120137048Y-124206020*
X120136920Y-124206148*
X120136932Y-126549948*
G37*
G36*
X120670766Y-128999672D02*
G01X120790074Y-129252906D01*
X120790190Y-129252980*
X123134032*
X123134160Y-129252852*
X123134100Y-127745618*
X123133972Y-127745490*
X122133340Y-127745494*
X121644410Y-127882862*
X121517560Y-127918502*
X121517514Y-127918526*
X121014784Y-128314050*
X120701682Y-128871844*
X120670754Y-128999618*
X120670766Y-128999672*
G37*
G36*
X124501864Y-126011948D02*
G01X124501884Y-126011996D01*
X124856170Y-126542220*
X125386430Y-126896538*
X125386478Y-126896558*
X126011920Y-127020964*
X126011968*
X126637410Y-126896554*
X126637458Y-126896534*
X127167682Y-126542250*
X127522000Y-126011988*
X127522020Y-126011940*
X127646428Y-125386488*
X127646450Y-125349054*
X127646504Y-125349000*
X158096928Y-125349006*
X158096972Y-125349024*
X159931082Y-127183142*
X159931100Y-127183186*
X159931086Y-128196286*
X159922440Y-128209164*
X159903164Y-128143862*
X159903142Y-128143818*
X159559100Y-127718136*
X159078358Y-127456516*
X159004212Y-127441572*
X159004122Y-127441586*
X158788164Y-127564034*
X158788100Y-127564146*
X158788120Y-129006472*
X158788248Y-129006600*
X158808046Y-129006620*
X158808100Y-129006674*
X158808080Y-129260546*
X158808026Y-129260600*
X158788228Y-129260620*
X158788100Y-129260748*
X158788110Y-130703072*
X158788174Y-130703184*
X159004136Y-130825616*
X159004226Y-130825630*
X159078364Y-130810682*
X159559106Y-130549058*
X159903146Y-130123376*
X159903168Y-130123332*
X159922476Y-130058028*
X160213260Y-130493216*
X160666474Y-130796054*
X160666522Y-130796074*
X161201080Y-130902404*
X161201128*
X161735680Y-130796074*
X161735728Y-130796054*
X162188910Y-130493246*
X162491748Y-130040034*
X162491768Y-130039986*
X162598138Y-129505418*
X162598098Y-128761780*
X162491764Y-128227206*
X162491744Y-128227158*
X162471100Y-128196238*
Y-126657086*
X162374432Y-126171114*
X162374412Y-126171066*
X162099114Y-125759064*
X159521016Y-123180968*
X159109026Y-122905684*
X159108978Y-122905664*
X158622986Y-122808998*
X127646484Y-122808980*
X127646430Y-122808926*
X127646428Y-122771506*
X127522016Y-122146050*
X127521996Y-122146002*
X127167678Y-121615746*
X126637450Y-121261460*
X126637402Y-121261440*
X126011960Y-121137034*
X126011912*
X125386470Y-121261444*
X125386422Y-121261464*
X124856166Y-121615784*
X124501880Y-122146010*
X124501860Y-122146058*
X124377450Y-122771534*
Y-125386468*
X124501864Y-126011948*
G37*
G36*
X123388140Y-129252852D02*
G01X123388268Y-129252980D01*
X125732070Y-129252968*
X125732186Y-129252894*
X125851478Y-128999676*
X125851486Y-128999592*
X125820546Y-128871806*
X125507418Y-128314006*
X125004722Y-127918522*
X125004676Y-127918498*
X124388860Y-127745490*
X123388248Y-127745510*
X123388120Y-127745638*
X123388140Y-129252852*
G37*
G36*
X145242466Y-97658562D02*
G01X145242486Y-97658610D01*
X145402142Y-97897546*
X148044896Y-100540322*
X147976550Y-100704990*
X147976540Y-100705040*
X147976202Y-101094020*
X147976212Y-101094068*
X148124754Y-101453570*
X148124782Y-101453612*
X148399596Y-101728904*
X148642904Y-101829950*
X148776486Y-102153190*
X148776514Y-102153232*
X149051328Y-102428524*
X149410610Y-102577720*
X149410660Y-102577730*
X149799642Y-102578066*
X149799690Y-102578056*
X150159190Y-102429514*
X150159232Y-102429486*
X150177418Y-102411364*
X150321328Y-102555524*
X150680610Y-102704720*
X150680660Y-102704730*
X151069642Y-102705066*
X151069690Y-102705056*
X151429184Y-102556518*
X151429226Y-102556490*
X151704524Y-102281672*
X151847924Y-101936370*
X152191190Y-101794514*
X152191232Y-101794486*
X152466524Y-101519672*
X152615720Y-101160390*
X152615730Y-101160340*
X152616068Y-100771358*
X152616058Y-100771310*
X152467516Y-100411810*
X152467488Y-100411768*
X152374618Y-100318728*
X152374600Y-100318684*
Y-99821986*
X152318534Y-99540136*
X152318514Y-99540088*
X152158844Y-99301134*
X148691618Y-95833900*
X148691600Y-95833856*
X148691606Y-95682130*
X148691624Y-95682086*
X150050744Y-94322972*
X150050788Y-94322954*
X150180642Y-94323066*
X150180690Y-94323056*
X150540190Y-94174514*
X150540232Y-94174486*
X150815524Y-93899672*
X150964720Y-93540390*
X150964730Y-93540340*
X150965068Y-93151358*
X150965058Y-93151310*
X150842986Y-92855834*
X151069524Y-92629672*
X151218720Y-92270390*
X151218730Y-92270340*
X151219068Y-91881358*
X151219058Y-91881310*
X151070516Y-91521810*
X151070488Y-91521768*
X150795634Y-91246448*
X150776908Y-91238636*
X151048190Y-91126514*
X151048232Y-91126486*
X151323524Y-90851672*
X151472720Y-90492390*
X151472730Y-90492340*
X151473068Y-90103358*
X151473058Y-90103310*
X151324516Y-89743810*
X151324488Y-89743768*
X151049634Y-89468448*
X150690390Y-89319280*
X150690340Y-89319270*
X150301360Y-89318932*
X150301312Y-89318942*
X149941810Y-89467484*
X149941768Y-89467512*
X149848728Y-89560382*
X149848684Y-89560400*
X148716986Y-89560402*
X148435138Y-89616466*
X148435090Y-89616486*
X148196136Y-89776156*
X145402140Y-92570154*
X145242482Y-92809096*
X145242462Y-92809144*
X145186400Y-93091014*
Y-97376688*
X145242466Y-97658562*
G37*
G36*
X132117944Y-87696688D02*
G01X132266486Y-88056190D01*
X132266514Y-88056232*
X132541326Y-88331524*
X132613364Y-88361460*
X132613400Y-88361512*
Y-89153990*
X132669466Y-89435862*
X132669486Y-89435910*
X132829142Y-89674846*
X141833242Y-98678956*
X141837758Y-98685710*
X143367890Y-100215844*
X143606850Y-100375518*
X143606898Y-100375538*
X143888744Y-100431598*
X144601870Y-100431606*
X144601914Y-100431624*
X147548258Y-103378032*
X147434140Y-103492154*
X147274482Y-103731096*
X147274462Y-103731144*
X147218400Y-104013014*
X147218394Y-106795540*
X147218376Y-106795584*
X147126448Y-106887366*
X146977280Y-107246610*
X146977270Y-107246660*
X146976934Y-107635640*
X146976944Y-107635688*
X147125486Y-107995190*
X147125514Y-107995232*
X147400328Y-108270524*
X147759610Y-108419720*
X147759660Y-108419730*
X148148642Y-108420066*
X148148690Y-108420056*
X148508184Y-108271518*
X148508226Y-108271490*
X148783524Y-107996672*
X148932720Y-107637390*
X148932730Y-107637340*
X148933068Y-107248358*
X148933058Y-107248310*
X148784516Y-106888810*
X148784488Y-106888768*
X148691618Y-106795728*
X148691600Y-106795684*
X148691606Y-104318130*
X148691624Y-104318086*
X148895100Y-104114618*
X148895144Y-104114600*
X149681870Y-104114606*
X149681914Y-104114624*
X149720138Y-104152844*
X149959098Y-104312518*
X149959146Y-104312538*
X150240990Y-104368598*
X153298626Y-104368600*
X153580498Y-104312534*
X153580546Y-104312514*
X153819482Y-104152858*
X154373300Y-103599052*
X154373344Y-103599034*
X154503196Y-103599146*
X154503244Y-103599136*
X154862746Y-103450594*
X154862788Y-103450566*
X155138080Y-103175752*
X155287276Y-102816470*
X155287286Y-102816420*
X155287622Y-102427438*
X155287612Y-102427390*
X155139070Y-102067890*
X155139042Y-102067848*
X154864188Y-101792528*
X154504946Y-101643360*
X154504896Y-101643350*
X154115914Y-101643012*
X154115866Y-101643022*
X153756366Y-101791564*
X153756324Y-101791592*
X153481004Y-102066446*
X153331836Y-102425690*
X153331826Y-102425740*
X153331704Y-102557194*
X153331686Y-102557238*
X152993536Y-102895382*
X152993492Y-102895400*
X152616070*
X150546130Y-102895394*
X150546086Y-102895376*
X150507846Y-102857138*
X150268904Y-102697482*
X150268856Y-102697462*
X149986986Y-102641400*
X148895130Y-102641394*
X148895086Y-102641376*
X145427846Y-99174138*
X145188904Y-99014482*
X145188856Y-99014462*
X144906986Y-98958400*
X144193884Y-98958394*
X144193840Y-98958376*
X142883990Y-97648522*
X142879460Y-97641750*
X134086618Y-88848900*
X134086600Y-88848856*
X134086598Y-87756986*
X134073736Y-87692310*
X134074068Y-87309358*
X134074058Y-87309310*
X133925516Y-86949810*
X133925488Y-86949768*
X133650632Y-86674448*
X133291390Y-86525280*
X133291340Y-86525270*
X132902358Y-86524932*
X132902310Y-86524942*
X132542810Y-86673484*
X132542768Y-86673512*
X132267448Y-86948366*
X132118280Y-87307610*
X132118270Y-87307660*
X132117934Y-87696640*
X132117944Y-87696688*
G37*
G36*
X127956668Y-97622184D02*
G01X127956688Y-97622232D01*
X128149378Y-97910610*
X130273142Y-100034388*
X130361486Y-100248190*
X130361514Y-100248232*
X130636326Y-100523524*
X130995610Y-100672720*
X130995660Y-100672730*
X131384640Y-100673066*
X131384688Y-100673056*
X131744184Y-100524518*
X131744226Y-100524490*
X132019524Y-100249672*
X132168720Y-99890390*
X132168730Y-99890340*
X132169068Y-99501358*
X132169058Y-99501310*
X132020516Y-99141810*
X132020488Y-99141768*
X131745632Y-98866448*
X131530230Y-98776994*
X129667018Y-96913774*
X129667000Y-96913730*
X129667006Y-92138456*
X129667024Y-92138412*
X131352588Y-90452856*
X131566390Y-90364514*
X131566432Y-90364486*
X131841724Y-90089672*
X131990920Y-89730390*
X131990930Y-89730340*
X131991266Y-89341358*
X131991256Y-89341310*
X131842714Y-88981810*
X131842686Y-88981768*
X131567834Y-88706448*
X131208590Y-88557280*
X131208540Y-88557270*
X130819560Y-88556932*
X130819512Y-88556942*
X130460010Y-88705484*
X130459968Y-88705512*
X130184648Y-88980366*
X130095194Y-89195768*
X128149376Y-91141592*
X127956684Y-91429976*
X127956664Y-91430024*
X127889000Y-91770214*
Y-97281990*
X127956668Y-97622184*
G37*
G36*
X128561942Y-104587688D02*
G01X128710486Y-104947190D01*
X128710514Y-104947232*
X128985328Y-105222524*
X129344610Y-105371720*
X129344660Y-105371730*
X129733642Y-105372066*
X129733690Y-105372056*
X130093184Y-105223518*
X130093226Y-105223490*
X130368524Y-104948672*
X130517720Y-104589390*
X130517730Y-104589340*
X130517850Y-104457884*
X130517868Y-104457840*
X130607100Y-104368618*
X130607144Y-104368600*
X137320218*
X137602090Y-104312534*
X137602138Y-104312514*
X137841074Y-104152858*
X138461328Y-103532628*
X138620690Y-103598800*
X138620740Y-103598810*
X139009722Y-103599146*
X139009770Y-103599136*
X139369270Y-103450594*
X139369312Y-103450566*
X139644604Y-103175752*
X139793800Y-102816470*
X139793810Y-102816420*
X139794148Y-102427438*
X139794138Y-102427390*
X139645596Y-102067890*
X139645568Y-102067848*
X139370714Y-101792528*
X139011470Y-101643360*
X139011420Y-101643350*
X138622440Y-101643012*
X138622392Y-101643022*
X138262890Y-101791564*
X138262848Y-101791592*
X138129622Y-101924566*
X138049284Y-101940546*
X138049236Y-101940566*
X137810282Y-102100236*
X137015128Y-102895382*
X137015084Y-102895400*
X132169070*
X130301986Y-102895402*
X130020138Y-102951466*
X130020090Y-102951486*
X129781136Y-103111156*
X129476256Y-103416026*
X129476212Y-103416044*
X129346360Y-103415932*
X129346312Y-103415942*
X128986810Y-103564484*
X128986768Y-103564512*
X128711448Y-103839366*
X128562280Y-104198610*
X128562270Y-104198660*
X128561932Y-104587640*
X128561942Y-104587688*
G37*
G36*
X142130436Y-130039994D02*
G01X142130456Y-130040042D01*
X142433260Y-130493216*
X142886474Y-130796054*
X142886522Y-130796074*
X143421080Y-130902404*
X143421128*
X143955688Y-130796070*
X143955736Y-130796050*
X144408910Y-130493246*
X144691116Y-130070958*
X144973260Y-130493216*
X145426474Y-130796054*
X145426522Y-130796074*
X145961080Y-130902404*
X145961128*
X146495688Y-130796070*
X146495736Y-130796050*
X146948910Y-130493246*
X147231116Y-130070958*
X147513260Y-130493216*
X147966474Y-130796054*
X147966522Y-130796074*
X148501080Y-130902404*
X148501128*
X149035688Y-130796070*
X149035736Y-130796050*
X149488910Y-130493246*
X149771116Y-130070958*
X150053260Y-130493216*
X150506474Y-130796054*
X150506522Y-130796074*
X151041080Y-130902404*
X151041128*
X151575688Y-130796070*
X151575736Y-130796050*
X152028910Y-130493246*
X152311116Y-130070958*
X152593260Y-130493216*
X153046474Y-130796054*
X153046522Y-130796074*
X153581080Y-130902404*
X153581128*
X154115680Y-130796074*
X154115728Y-130796054*
X154568910Y-130493246*
X154859760Y-130058034*
X154879038Y-130123338*
X154879060Y-130123382*
X155223062Y-130549032*
X155703808Y-130810670*
X155777988Y-130825628*
X155778078Y-130825614*
X155994076Y-130703178*
X155994140Y-130703066*
X155994080Y-129260728*
X155993952Y-129260600*
X155974154Y-129260580*
X155974100Y-129260526*
X155974120Y-129006654*
X155974174Y-129006600*
X155993972Y-129006580*
X155994100Y-129006452*
X155994090Y-127564128*
X155994026Y-127564016*
X155778064Y-127441584*
X155777974Y-127441570*
X155703802Y-127456532*
X155223056Y-127718174*
X154879056Y-128143824*
X154879034Y-128143868*
X154859724Y-128209170*
X154568906Y-127773948*
X154115728Y-127471144*
X154115680Y-127471124*
X153581120Y-127364796*
X153581072*
X153046514Y-127471128*
X153046466Y-127471148*
X152593256Y-127773986*
X152311084Y-128196240*
X152028906Y-127773948*
X151930126Y-127707938*
X151930100Y-127707888*
X151930098Y-127165086*
X151862434Y-126824916*
X151862414Y-126824868*
X151669706Y-126536472*
X150869608Y-125736376*
X150581224Y-125543682*
X150581176Y-125543662*
X150240986Y-125476000*
X146938986Y-125476002*
X146598816Y-125543666*
X146598768Y-125543686*
X146310372Y-125736394*
X145332476Y-126714292*
X145139784Y-127002676*
X145139764Y-127002724*
X145072100Y-127342914*
X145072092Y-127707904*
X145072066Y-127707954*
X144973256Y-127773986*
X144691084Y-128196240*
X144408906Y-127773948*
X143955728Y-127471144*
X143955680Y-127471124*
X143421120Y-127364796*
X143421072*
X142886514Y-127471128*
X142886466Y-127471148*
X142433256Y-127773986*
X142130452Y-128227166*
X142130432Y-128227214*
X142024100Y-128761808*
Y-129505396*
X142130436Y-130039994*
G37*
G36*
X142024110Y-82441802D02*
G01X142024174Y-82441914D01*
X142240136Y-82564346*
X142240226Y-82564360*
X142314364Y-82549412*
X142795106Y-82287788*
X143139146Y-81862106*
X143139168Y-81862062*
X143158482Y-81796740*
X143449260Y-82231922*
X143700474Y-82399796*
X143700500Y-82399846*
Y-85763090*
X143756566Y-86044962*
X143756586Y-86045010*
X143916242Y-86283946*
X144691026Y-87058744*
X144691044Y-87058788*
X144690934Y-87188640*
X144690944Y-87188688*
X144839486Y-87548190*
X144839514Y-87548232*
X145114328Y-87823524*
X145473610Y-87972720*
X145473660Y-87972730*
X145862642Y-87973066*
X145862690Y-87973056*
X146222184Y-87824518*
X146222226Y-87824490*
X146497524Y-87549672*
X146646720Y-87190390*
X146646730Y-87190340*
X146647068Y-86801358*
X146647058Y-86801310*
X146498516Y-86441810*
X146498488Y-86441768*
X146223634Y-86166448*
X145864390Y-86017280*
X145864340Y-86017270*
X145732886Y-86017148*
X145732842Y-86017130*
X145173718Y-85458000*
X145173700Y-85457956*
X145173708Y-82399830*
X145173734Y-82399780*
X145424910Y-82231952*
X145707116Y-81809664*
X145989260Y-82231922*
X145999174Y-82238564*
X145999200Y-82238614*
X145999194Y-83325940*
X145999176Y-83325984*
X145907248Y-83417766*
X145758080Y-83777010*
X145758070Y-83777060*
X145757734Y-84166040*
X145757744Y-84166088*
X145906286Y-84525590*
X145906314Y-84525632*
X146181128Y-84800924*
X146540410Y-84950120*
X146540460Y-84950130*
X146929442Y-84950466*
X146929490Y-84950456*
X147288990Y-84801914*
X147289032Y-84801886*
X147564324Y-84527072*
X147713520Y-84167790*
X147713530Y-84167740*
X147713868Y-83778758*
X147713858Y-83778710*
X147565316Y-83419210*
X147565288Y-83419168*
X147472418Y-83326128*
X147472400Y-83326084*
X147472416Y-82542632*
X147472462Y-82542576*
X147511688Y-82534776*
X147511736Y-82534756*
X147964910Y-82231952*
X148247116Y-81809664*
X148529260Y-82231922*
X148982474Y-82534760*
X148982522Y-82534780*
X149517080Y-82641108*
X149517128*
X150051688Y-82534776*
X150051736Y-82534756*
X150504910Y-82231952*
X150787116Y-81809664*
X151069260Y-82231922*
X151522474Y-82534760*
X151522522Y-82534780*
X152057080Y-82641108*
X152057128*
X152591688Y-82534776*
X152591736Y-82534756*
X153044910Y-82231952*
X153327116Y-81809664*
X153609260Y-82231922*
X154062474Y-82534760*
X154062522Y-82534780*
X154597080Y-82641108*
X154597128*
X155131688Y-82534776*
X155131736Y-82534756*
X155584910Y-82231952*
X155867116Y-81809664*
X156149260Y-82231922*
X156602474Y-82534760*
X156602522Y-82534780*
X157137080Y-82641108*
X157137128*
X157671688Y-82534776*
X157671736Y-82534756*
X158124910Y-82231952*
X158427748Y-81778738*
X158427768Y-81778690*
X158534138Y-81244124*
X158534098Y-80503074*
X158427764Y-79968500*
X158427744Y-79968452*
X158124906Y-79515244*
X157671728Y-79212440*
X157671680Y-79212420*
X157137120Y-79106092*
X157137072*
X156602514Y-79212424*
X156602466Y-79212444*
X156149256Y-79515282*
X155867084Y-79937534*
X155584906Y-79515244*
X155131728Y-79212440*
X155131680Y-79212420*
X154597120Y-79106092*
X154597072*
X154062514Y-79212424*
X154062466Y-79212444*
X153609256Y-79515282*
X153327084Y-79937534*
X153044906Y-79515244*
X152591728Y-79212440*
X152591680Y-79212420*
X152057120Y-79106092*
X152057072*
X151522514Y-79212424*
X151522466Y-79212444*
X151069256Y-79515282*
X150787084Y-79937534*
X150504906Y-79515244*
X150051728Y-79212440*
X150051680Y-79212420*
X149517120Y-79106092*
X149517072*
X148982514Y-79212424*
X148982466Y-79212444*
X148529256Y-79515282*
X148247084Y-79937534*
X147964906Y-79515244*
X147511728Y-79212440*
X147511680Y-79212420*
X146977120Y-79106092*
X146977072*
X146442514Y-79212424*
X146442466Y-79212444*
X145989256Y-79515282*
X145707084Y-79937534*
X145424906Y-79515244*
X144971728Y-79212440*
X144971680Y-79212420*
X144437120Y-79106092*
X144437072*
X143902514Y-79212424*
X143902466Y-79212444*
X143449256Y-79515282*
X143158446Y-79950452*
X143139164Y-79885130*
X143139142Y-79885086*
X142795100Y-79459406*
X142314358Y-79197786*
X142240212Y-79182842*
X142240122Y-79182856*
X142024164Y-79305304*
X142024100Y-79305416*
X142024120Y-80746472*
X142024248Y-80746600*
X142044046Y-80746620*
X142044100Y-80746674*
X142044080Y-81000546*
X142044026Y-81000600*
X142024228Y-81000620*
X142024100Y-81000748*
X142024110Y-82441802*
G37*
G36*
X155485944Y-91125688D02*
G01X155634486Y-91485190D01*
X155634514Y-91485232*
X155909328Y-91760524*
X156268610Y-91909720*
X156268660Y-91909730*
X156657642Y-91910066*
X156657690Y-91910056*
X157017184Y-91761518*
X157017226Y-91761490*
X157292524Y-91486672*
X157354658Y-91337064*
X160413846Y-88277862*
X160573518Y-88038902*
X160573538Y-88038854*
X160629598Y-87757010*
X160629606Y-85736458*
X160629624Y-85736414*
X160721524Y-85644672*
X160870720Y-85285390*
X160870730Y-85285340*
X160871068Y-84896358*
X160871058Y-84896310*
X160722516Y-84536810*
X160722488Y-84536768*
X160447634Y-84261448*
X160088390Y-84112280*
X160088340Y-84112270*
X159699360Y-84111932*
X159699312Y-84111942*
X159339810Y-84260484*
X159339768Y-84260512*
X159064448Y-84535366*
X158915280Y-84894610*
X158915270Y-84894660*
X158914934Y-85283640*
X158914944Y-85283688*
X159063486Y-85643190*
X159063514Y-85643232*
X159156382Y-85736270*
X159156400Y-85736314*
X159156394Y-87451870*
X159156376Y-87451914*
X158534100Y-88074188*
X156654034Y-89954246*
X156653990Y-89954264*
X156270360Y-89953932*
X156270312Y-89953942*
X155910810Y-90102484*
X155910768Y-90102512*
X155635448Y-90377366*
X155486280Y-90736610*
X155486270Y-90736660*
X155485934Y-91125640*
X155485944Y-91125688*
G37*
G36*
X156248120Y-129006472D02*
G01X156248248Y-129006600D01*
X158534012*
X158534140Y-129006472*
X158534090Y-127564128*
X158534026Y-127564016*
X158318064Y-127441584*
X158317974Y-127441570*
X158243802Y-127456532*
X157763056Y-127718174*
X157419056Y-128143824*
X157419034Y-128143868*
X157391078Y-128238432*
X157363164Y-128143862*
X157363142Y-128143818*
X157019100Y-127718136*
X156538358Y-127456516*
X156464212Y-127441572*
X156464122Y-127441586*
X156248164Y-127564034*
X156248100Y-127564146*
X156248120Y-129006472*
G37*
G36*
X156248110Y-130703072D02*
G01X156248174Y-130703184D01*
X156464136Y-130825616*
X156464226Y-130825630*
X156538364Y-130810682*
X157019106Y-130549058*
X157363146Y-130123376*
X157363168Y-130123332*
X157391122Y-130028768*
X157419038Y-130123338*
X157419060Y-130123382*
X157763062Y-130549032*
X158243808Y-130810670*
X158317988Y-130825628*
X158318078Y-130825614*
X158534066Y-130703196*
X158534130Y-130703084*
X158534100Y-129260728*
X158533972Y-129260600*
X156248228Y-129260620*
X156248100Y-129260748*
X156248110Y-130703072*
G37*
G36*
X156774758Y-94662874D02*
G01X156923300Y-95022374D01*
X156923328Y-95022416*
X157198142Y-95297708*
X157557426Y-95446904*
X157557476Y-95446914*
X157946456Y-95447252*
X157946504Y-95447242*
X158306000Y-95298704*
X158306042Y-95298676*
X158581340Y-95023858*
X158704262Y-94727866*
X158998390Y-94606314*
X158998432Y-94606286*
X159273724Y-94331472*
X159422920Y-93972190*
X159422930Y-93972140*
X159423268Y-93583158*
X159423258Y-93583110*
X159274716Y-93223610*
X159274688Y-93223568*
X159181818Y-93130528*
X159181800Y-93130484*
X159181806Y-92557930*
X159181824Y-92557886*
X162103100Y-89636618*
X162103144Y-89636600*
X176275990*
X176557864Y-89580534*
X176557912Y-89580514*
X176796848Y-89420858*
X179501946Y-86715762*
X179661618Y-86476802*
X179661638Y-86476754*
X179717698Y-86194910*
X179717708Y-82399830*
X179717734Y-82399780*
X179968910Y-82231952*
X180271748Y-81778738*
X180271768Y-81778690*
X180378138Y-81244124*
X180378098Y-80503074*
X180271764Y-79968500*
X180271744Y-79968452*
X179968906Y-79515244*
X179515728Y-79212440*
X179515680Y-79212420*
X178981120Y-79106092*
X178981072*
X178446514Y-79212424*
X178446466Y-79212444*
X177993256Y-79515282*
X177711084Y-79937534*
X177428906Y-79515244*
X176975728Y-79212440*
X176975680Y-79212420*
X176441120Y-79106092*
X176441072*
X175906514Y-79212424*
X175906466Y-79212444*
X175453256Y-79515282*
X175171084Y-79937534*
X174888906Y-79515244*
X174435728Y-79212440*
X174435680Y-79212420*
X173901120Y-79106092*
X173901072*
X173366514Y-79212424*
X173366466Y-79212444*
X172913256Y-79515282*
X172631084Y-79937534*
X172348906Y-79515244*
X171895728Y-79212440*
X171895680Y-79212420*
X171361120Y-79106092*
X171361072*
X170826514Y-79212424*
X170826466Y-79212444*
X170373256Y-79515282*
X170091084Y-79937534*
X169808906Y-79515244*
X169355728Y-79212440*
X169355680Y-79212420*
X168821120Y-79106092*
X168821072*
X168286514Y-79212424*
X168286466Y-79212444*
X167833256Y-79515282*
X167551084Y-79937534*
X167268906Y-79515244*
X166815728Y-79212440*
X166815680Y-79212420*
X166281120Y-79106092*
X166281072*
X165746514Y-79212424*
X165746466Y-79212444*
X165293256Y-79515282*
X165011084Y-79937534*
X164728906Y-79515244*
X164275728Y-79212440*
X164275680Y-79212420*
X163741120Y-79106092*
X163741072*
X163206514Y-79212424*
X163206466Y-79212444*
X162753256Y-79515282*
X162471084Y-79937534*
X162188906Y-79515244*
X161735728Y-79212440*
X161735680Y-79212420*
X161201120Y-79106092*
X161201072*
X160666514Y-79212424*
X160666466Y-79212444*
X160213256Y-79515282*
X159910452Y-79968460*
X159910432Y-79968508*
X159804100Y-80503102*
Y-81244102*
X159910436Y-81778698*
X159910456Y-81778746*
X160213260Y-82231922*
X160515972Y-82434204*
X160520566Y-82457212*
X160520586Y-82457260*
X160680234Y-82696186*
X160919198Y-82855868*
X160919246Y-82855888*
X161201080Y-82911946*
X161201128*
X161482964Y-82855884*
X161483012Y-82855864*
X161721938Y-82696216*
X161881618Y-82457252*
X161881638Y-82457204*
X161886210Y-82434232*
X162188910Y-82231952*
X162471116Y-81809664*
X162753260Y-82231922*
X163206474Y-82534760*
X163206522Y-82534780*
X163741080Y-82641108*
X163741128*
X164275688Y-82534776*
X164275736Y-82534756*
X164728910Y-82231952*
X165011116Y-81809664*
X165293260Y-82231922*
X165746474Y-82534760*
X165746522Y-82534780*
X166281080Y-82641108*
X166281128*
X166815688Y-82534776*
X166815736Y-82534756*
X167268910Y-82231952*
X167551116Y-81809664*
X167833260Y-82231922*
X168286474Y-82534760*
X168286522Y-82534780*
X168821080Y-82641108*
X168821128*
X169355688Y-82534776*
X169355736Y-82534756*
X169808910Y-82231952*
X170091116Y-81809664*
X170373260Y-82231922*
X170624474Y-82399796*
X170624500Y-82399846*
Y-82969090*
X170680566Y-83250962*
X170680586Y-83251010*
X170840242Y-83489946*
X172491382Y-85141100*
X172491400Y-85141144*
X172491394Y-86602540*
X172491376Y-86602584*
X172399448Y-86694366*
X172250280Y-87053610*
X172250270Y-87053660*
X172249934Y-87442640*
X172249944Y-87442688*
X172337748Y-87655400*
X161670986Y-87655402*
X161389138Y-87711466*
X161389090Y-87711486*
X161150136Y-87871156*
X160871070Y-88150220*
X157231954Y-91789340*
X157072298Y-92028282*
X157072278Y-92028330*
X157016216Y-92310198*
X157016210Y-93822726*
X157016192Y-93822770*
X156924264Y-93914552*
X156775096Y-94273794*
X156775086Y-94273844*
X156774748Y-94662826*
X156774758Y-94662874*
G37*
G36*
X177742062Y-119231090D02*
G01X177990172Y-119760468D01*
X178422040Y-120154672*
X178837930Y-120326930*
X178838038Y-120326926*
X179069962Y-120205870*
X179070030Y-120205756*
X179069980Y-118999128*
X179069852Y-118999000*
X177862604Y-118999010*
X177862490Y-118999080*
X177742064Y-119230978*
X177742050Y-119231036*
X177742062Y-119231090*
G37*
G36*
X164990436Y-130039994D02*
G01X164990456Y-130040042D01*
X165293260Y-130493216*
X165746474Y-130796054*
X165746522Y-130796074*
X166281080Y-130902404*
X166281128*
X166815688Y-130796070*
X166815736Y-130796050*
X167268910Y-130493246*
X167551116Y-130070958*
X167833260Y-130493216*
X168286474Y-130796054*
X168286522Y-130796074*
X168821080Y-130902404*
X168821128*
X169355688Y-130796070*
X169355736Y-130796050*
X169808910Y-130493246*
X170091116Y-130070958*
X170373260Y-130493216*
X170826474Y-130796054*
X170826522Y-130796074*
X171361080Y-130902404*
X171361128*
X171895688Y-130796070*
X171895736Y-130796050*
X172348910Y-130493246*
X172631116Y-130070958*
X172913260Y-130493216*
X173366474Y-130796054*
X173366522Y-130796074*
X173901080Y-130902404*
X173901128*
X174435688Y-130796070*
X174435736Y-130796050*
X174888910Y-130493246*
X175171116Y-130070958*
X175453260Y-130493216*
X175906474Y-130796054*
X175906522Y-130796074*
X176441080Y-130902404*
X176441128*
X176975688Y-130796070*
X176975736Y-130796050*
X177428910Y-130493246*
X177711116Y-130070958*
X177993260Y-130493216*
X178446474Y-130796054*
X178446522Y-130796074*
X178981080Y-130902404*
X178981128*
X179515680Y-130796074*
X179515728Y-130796054*
X179968910Y-130493246*
X180271748Y-130040034*
X180271768Y-130039986*
X180378138Y-129505418*
X180378098Y-128761780*
X180271764Y-128227206*
X180271744Y-128227158*
X179968906Y-127773948*
X179515728Y-127471144*
X179515680Y-127471124*
X179070000Y-127382476*
X178981120Y-127364796*
X178981072*
X178446514Y-127471128*
X178446466Y-127471148*
X177993256Y-127773986*
X177711084Y-128196240*
X177428906Y-127773948*
X176975728Y-127471144*
X176975680Y-127471124*
X176441120Y-127364796*
X176441072*
X175906514Y-127471128*
X175906466Y-127471148*
X175453256Y-127773986*
X175171084Y-128196240*
X174888906Y-127773948*
X174435728Y-127471144*
X174435680Y-127471124*
X173901120Y-127364796*
X173901072*
X173366514Y-127471128*
X173366466Y-127471148*
X172913256Y-127773986*
X172631084Y-128196240*
X172348906Y-127773948*
X171895728Y-127471144*
X171895680Y-127471124*
X171361120Y-127364796*
X171361072*
X170826514Y-127471128*
X170826466Y-127471148*
X170373256Y-127773986*
X170091084Y-128196240*
X169808906Y-127773948*
X169355728Y-127471144*
X169355680Y-127471124*
X168821120Y-127364796*
X168821072*
X168286514Y-127471128*
X168286466Y-127471148*
X167833256Y-127773986*
X167551084Y-128196240*
X167268906Y-127773948*
X166815728Y-127471144*
X166815680Y-127471124*
X166281120Y-127364796*
X166281072*
X165746514Y-127471128*
X165746466Y-127471148*
X165293256Y-127773986*
X164990452Y-128227166*
X164990432Y-128227214*
X164884100Y-128761808*
Y-129505396*
X164990436Y-130039994*
G37*
G36*
X118548444Y-125822560D02*
G01X118548468Y-125822606D01*
X118943952Y-126325304*
X119501752Y-126638426*
X119629528Y-126669362*
X119629612Y-126669354*
X119882874Y-126550076*
X119882948Y-126549960*
X119882920Y-124206128*
X119882792Y-124206000*
X118375558Y-124206020*
X118375430Y-124206148*
Y-125206746*
X118548444Y-125822560*
G37*
%LPD*%
G36*
X172097700Y-82663956D02*
G01X172097708Y-82399830D01*
X172097734Y-82399780*
X172348910Y-82231952*
X172631116Y-81809664*
X172913260Y-82231922*
X173366474Y-82534760*
X173366522Y-82534780*
X173901080Y-82641108*
X173901128*
X174435688Y-82534776*
X174435736Y-82534756*
X174888910Y-82231952*
X175171116Y-81809664*
X175453260Y-82231922*
X175704474Y-82399796*
X175704500Y-82399846*
X175704494Y-87159770*
X175704476Y-87159814*
X175208900Y-87655382*
X175208856Y-87655400*
X174118130Y-87655334*
X174205720Y-87444390*
X174205730Y-87444340*
X174206068Y-87055358*
X174206058Y-87055310*
X174057516Y-86695810*
X174057488Y-86695768*
X173964618Y-86602728*
X173964600Y-86602684*
X173964598Y-84835986*
X173908534Y-84554136*
X173908514Y-84554088*
X173748844Y-84315134*
X172097718Y-82664000*
X172097700Y-82663956*
G37*
G54D11*
X143421100Y-129133600D03*
X145961100D03*
X148501100D03*
X151041100D03*
X153581100D03*
X156121100D03*
X158661100D03*
X161201100D03*
X166281100D03*
X168821100D03*
X171361100D03*
X173901100D03*
X176441100D03*
X178981100D03*
G54D12*
Y-80873600D03*
X176441100D03*
X173901100D03*
X171361100D03*
X168821100D03*
X166281100D03*
X163741100D03*
X161201100D03*
X157137100D03*
X154597100D03*
X152057100D03*
X149517100D03*
X146977100D03*
X144437100D03*
X141897100D03*
X139359640D03*
X136817100D03*
X134277100D03*
G54D13*
X123261120Y-129379980D03*
G54D14*
X120009920Y-124079000D03*
G54D15*
X126011940D03*
G54D16*
X166878000Y-101346000D03*
X161798000D03*
G54D17*
X158922000Y-106849000D03*
Y-105749000D03*
G54D18*
X179011580Y-101155500D03*
G54D19*
X182049420D03*
X179011580Y-103695500D03*
X182049420D03*
X179011580Y-106235500D03*
X182049420D03*
G54D20*
X181737000Y-111252000D03*
G54D21*
X179197000D03*
X181737000Y-113792000D03*
X179197000D03*
X181737000Y-116332000D03*
X179197000D03*
X181737000Y-118872000D03*
X179197000D03*
G54D22*
X170307000Y-99441000D03*
X119761000Y-114173000D03*
X146685000Y-111633000D03*
X162560000Y-120650000D03*
X151523000Y-121287322D03*
X157480000Y-84328000D03*
X155829000Y-84582000D03*
X157099000Y-88773000D03*
X167767000Y-84963000D03*
X143256000Y-90424000D03*
X138049000Y-90805000D03*
X139065000Y-93091000D03*
X144236440Y-105120440D03*
X169037000Y-109093000D03*
X156337000Y-108331000D03*
Y-110109000D03*
X137287000Y-95123000D03*
X126365000Y-97917000D03*
X117983000Y-84963000D03*
X129524760Y-118237000D03*
X135509000Y-115189000D03*
X143510000Y-119126000D03*
X176911000Y-111379000D03*
X169291000Y-98171000D03*
X163449000Y-98933000D03*
X148717000Y-95631000D03*
X153289000Y-104521000D03*
X157353000Y-102489000D03*
X117475000Y-108839000D03*
X120777000Y-107823000D03*
X121539000Y-110363000D03*
X123571000Y-107315000D03*
X121539000Y-106045000D03*
X148209000Y-114427000D03*
X154305000Y-117475000D03*
X156845000Y-98679000D03*
X159639000Y-93599000D03*
X143637000Y-116967000D03*
X151003000Y-105410000D03*
X155194000Y-97663000D03*
X142367000Y-106680000D03*
X144272000Y-107315000D03*
X122174000Y-82296000D03*
X125857000Y-79629000D03*
X127508000Y-81534000D03*
X128651000Y-83439000D03*
X133223000Y-106045000D03*
X130810000Y-107315000D03*
X133985000Y-107569000D03*
X135255000Y-104775000D03*
X135382000Y-111506000D03*
X138176000D03*
X140843000Y-111379000D03*
X143637000Y-111506000D03*
X124079000Y-118745000D03*
X125730000Y-120015000D03*
X128651000Y-121158000D03*
X179527006Y-108458000D03*
X177978262D03*
X177038000Y-107696000D03*
X174879000Y-90932000D03*
X173736000Y-90805000D03*
X179324000Y-93345000D03*
Y-90551000D03*
X117856000Y-128143000D03*
X117475000Y-120904000D03*
X132842000Y-128778000D03*
X135382000D03*
X138049000D03*
X140589000D03*
X175022494Y-92599492D03*
X154051000Y-100584000D03*
X125857000Y-100330000D03*
X125730000Y-102108000D03*
X121666000Y-101346000D03*
X120396000Y-102362000D03*
X142748000Y-84582000D03*
X164592000Y-104648000D03*
X165989000Y-116967000D03*
X176403000Y-120523000D03*
X173736000D03*
Y-123444000D03*
X166624000D03*
X160782000Y-118872000D03*
X174879000Y-84074000D03*
X131013200Y-89535000D03*
X131191000Y-99695000D03*
X147955000Y-107442000D03*
Y-111633000D03*
X154309556Y-102621080D03*
X154813000Y-115951000D03*
X133096000Y-87503000D03*
X172720000Y-105156000D03*
X173736000Y-102997000D03*
X174498000Y-104394000D03*
X173228000Y-87249000D03*
X149987000Y-93345000D03*
X151638000Y-100965000D03*
X150241000Y-92075000D03*
X150876000Y-101727000D03*
X150495000Y-90297000D03*
X148954270Y-100900380D03*
X156464000Y-90932000D03*
X159893000Y-85090000D03*
X148717000Y-92583000D03*
X150241000Y-100965000D03*
X148717000Y-91567000D03*
X149606000Y-101600000D03*
X146735800Y-83972400D03*
X145669000Y-86995000D03*
X159385000Y-96647000D03*
X151892000Y-108966000D03*
X151384000Y-109728000D03*
X158445200Y-93776800D03*
X172974000Y-103759000D03*
X157752816Y-94469184D03*
X154559000Y-110109000D03*
X158242000Y-115189000D03*
X138816080Y-102621080D03*
X129540000Y-104394000D03*
X158369000Y-113157000D03*
X155448000Y-111252000D03*
X157353000Y-107188000D03*
X158115000Y-112014000D03*
X153289000Y-110617000D03*
G54D23*
X182049420Y-99885500D02*
G01X181604920Y-99441000D01*
X182049420Y-101155500D02*
G01Y-99885500D01*
X178998764Y-99441000D02*
G01X170307000D01*
X181604920D02*
G01X178998764D01*
Y-99441000D02*
G01X174625000D01*
X120391966Y-114173000D02*
G01X119761000D01*
X123063000D02*
G01X120391966D01*
X128143000Y-119253000D02*
G01X123063000Y-114173000D01*
X141351000Y-119253000D02*
G01X128143000D01*
X145961100Y-127342900D02*
G01Y-129133600D01*
X146939000Y-126365000D02*
G01X145961100Y-127342900D01*
X150241000Y-126365000D02*
G01X146939000D01*
X151041100Y-127165100D02*
G01X150241000Y-126365000D01*
X151041100Y-129133600D02*
G01Y-127165100D01*
X143385322Y-121287322D02*
G01X142819536Y-120721534D01*
Y-120721534D02*
G01X141351000Y-119253000D01*
X161922678Y-121287322D02*
G01X162560000Y-120650000D01*
X151523000Y-121287322D02*
G01X161922678D01*
X146685000Y-121276344D02*
G01X146674024Y-121287322D01*
X146685000Y-118103032D02*
G01Y-121276344D01*
X146674024Y-121287322D02*
G01X143385322D01*
X151523000D02*
G01X146674024D01*
X146685000Y-111633000D02*
G01Y-118103032D01*
Y-118103032D02*
G01Y-121302448D01*
G54D24*
X167259000Y-84328000D02*
G01Y-84455000D01*
X158750000Y-83185000D02*
G01X166116000D01*
Y-83185000D02*
G01X167259000Y-84328000D01*
X157480000D02*
G01X157607000D01*
Y-84328000D02*
G01X158750000Y-83185000D01*
X157099000Y-85852000D02*
G01X155829000Y-84582000D01*
X157099000Y-88773000D02*
G01Y-85852000D01*
X167259000Y-84455000D02*
G01X167767000Y-84963000D01*
X136944102Y-94780100D02*
G01X137033000Y-94869000D01*
X137287000Y-95123000D02*
G01X136944102Y-94780100D01*
G54D10*
X181811930Y-106235500D02*
G01X182049420D01*
X179462430Y-108585000D02*
G01X181811930Y-106235500D01*
X178689000Y-108585000D02*
G01X179462430D01*
X176911000Y-110363000D02*
G01X178689000Y-108585000D01*
X176911000Y-111379000D02*
G01Y-110363000D01*
G54D23*
X149479000Y-104521000D02*
G01X153289000D01*
Y-104521000D02*
G01X154813000D01*
Y-104521000D02*
G01X155829000Y-103505000D01*
Y-103505000D02*
G01Y-99695000D01*
Y-99695000D02*
G01X152527000Y-96393000D01*
X149479000D02*
G01X148717000Y-95631000D01*
X152527000Y-96393000D02*
G01X149479000D01*
G54D24*
X117817900Y-108496100D02*
G01X120103900D01*
X117475000Y-108839000D02*
G01X117817900Y-108496100D01*
X120103900D02*
G01X120777000Y-107823000D01*
Y-107823000D02*
G01Y-109601000D01*
Y-109601000D02*
G01X121539000Y-110363000D01*
X123228102Y-106972100D02*
G01X122466102D01*
X123571000Y-107315000D02*
G01X123228102Y-106972100D01*
X122466102D02*
G01X121539000Y-106045000D01*
G54D23*
X163449000Y-98933000D02*
G01X157099000D01*
Y-98933000D02*
G01X156845000Y-98679000D01*
G54D10*
X150114000Y-104521000D02*
G01X151003000Y-105410000D01*
X149479000Y-104521000D02*
G01X150114000D01*
G54D24*
X155257500Y-99123500D02*
G01X154051000Y-100330000D01*
X155702000Y-98679000D02*
G01X155257500Y-99123500D01*
X156845000Y-98679000D02*
G01X155702000D01*
X155257500Y-97726500D02*
G01X155194000Y-97663000D01*
X155257500Y-99123500D02*
G01Y-97726500D01*
X142367000Y-106680000D02*
G01X143637000D01*
Y-106680000D02*
G01X144272000Y-107315000D01*
X122174000Y-82296000D02*
G01X124841000Y-79629000D01*
Y-79629000D02*
G01X125857000D01*
X127508000Y-82018932D02*
G01X128651000Y-83161932D01*
X127508000Y-81534000D02*
G01Y-82018932D01*
X128651000Y-83161932D02*
G01Y-83439000D01*
X131953000Y-107315000D02*
G01X130810000D01*
X133223000Y-106045000D02*
G01X131953000Y-107315000D01*
X135255000Y-106299000D02*
G01Y-104775000D01*
X133985000Y-107569000D02*
G01X135255000Y-106299000D01*
X135382000Y-111506000D02*
G01X138176000D01*
X143510000Y-111379000D02*
G01X143637000Y-111506000D01*
X140843000Y-111379000D02*
G01X143510000D01*
X125349000Y-120015000D02*
G01X125730000D01*
X124079000Y-118745000D02*
G01X125349000Y-120015000D01*
X177800000Y-108458000D02*
G01X177038000Y-107696000D01*
X177978262Y-108458000D02*
G01X177800000D01*
X169291000Y-98171000D02*
G01Y-97536000D01*
X174879000Y-91948000D02*
G01Y-90932000D01*
X169291000Y-97536000D02*
G01X174879000Y-91948000D01*
X174078900Y-90462100D02*
G01X176441102D01*
X173736000Y-90805000D02*
G01X174078900Y-90462100D01*
X176441102D02*
G01X179324000Y-93345000D01*
X117475000Y-127762000D02*
G01Y-120904000D01*
X117856000Y-128143000D02*
G01X117475000Y-127762000D01*
X124261880Y-129379980D02*
G01X125879860Y-127762000D01*
X123261120Y-129379980D02*
G01X124261880D01*
X125879860Y-127762000D02*
G01X127000000D01*
Y-127762000D02*
G01X128270000Y-126492000D01*
Y-126492000D02*
G01X133096000D01*
X132842000Y-126746000D02*
G01Y-128778000D01*
X133096000Y-126492000D02*
G01X132842000Y-126746000D01*
X135382000Y-128778000D02*
G01X138049000D01*
G54D23*
X155194000Y-99441000D02*
G01X154051000Y-100584000D01*
X155194000Y-97663000D02*
G01Y-99441000D01*
G54D24*
X125857000Y-101981000D02*
G01X125730000Y-102108000D01*
X125857000Y-100330000D02*
G01Y-101981000D01*
X121412000Y-101346000D02*
G01X120396000Y-102362000D01*
X121666000Y-101346000D02*
G01X121412000D01*
X163449000Y-98933000D02*
G01Y-100076000D01*
X164592000Y-101219000D02*
G01Y-104648000D01*
X163449000Y-100076000D02*
G01X164592000Y-101219000D01*
X176403000Y-120523000D02*
G01X173736000D01*
Y-123444000D02*
G01X166624000D01*
X160401000Y-118872000D02*
G01X160782000D01*
G54D23*
X130065346Y-90482854D02*
G01X131013200Y-89535000D01*
X128778000Y-91770200D02*
G01X130065346Y-90482854D01*
X128778000Y-97282000D02*
G01Y-91770200D01*
X131191000Y-99695000D02*
G01X128778000Y-97282000D01*
G54D24*
X147955000Y-111633000D02*
G01Y-112117932D01*
X152557442Y-113695442D02*
G01X149532510D01*
X154813000Y-115951000D02*
G01X152557442Y-113695442D01*
X147955000Y-112117932D02*
G01X149532510Y-113695442D01*
X154309556Y-102621080D02*
G01X153552636Y-103378000D01*
X148590000D02*
G01X149987000D01*
Y-103378000D02*
G01X150241000Y-103632000D01*
X153298636D02*
G01X153552636Y-103378000D01*
X150241000Y-103632000D02*
G01X153298636D01*
X147955000Y-107442000D02*
G01Y-104013000D01*
X148590000Y-103378000D02*
G01X148301872Y-103089872D01*
Y-103089872D02*
G01X148463000Y-103251000D01*
X144907000Y-99695000D02*
G01X148301872Y-103089872D01*
X147955000Y-104013000D02*
G01X148590000Y-103378000D01*
X133350000Y-87757000D02*
G01X133096000Y-87503000D01*
X133350000Y-89154000D02*
G01Y-87757000D01*
X142358616Y-98164862D02*
G01X143888754Y-99695000D01*
X142358616Y-98162616D02*
G01Y-98164862D01*
X143888754Y-99695000D02*
G01X144907000D01*
X142358616Y-98162616D02*
G01X133350000Y-89154000D01*
G54D25*
X161201100Y-126657100D02*
G01Y-129133600D01*
X158623000Y-124079000D02*
G01X161201100Y-126657100D01*
X126011940Y-124079000D02*
G01X158623000D01*
G54D24*
X177808890Y-106235500D02*
G01X177110390Y-105537000D01*
X179011580Y-106235500D02*
G01X177808890D01*
X176729390Y-105156000D02*
G01X172720000D01*
X177808890Y-106235500D02*
G01X176729390Y-105156000D01*
X179011580Y-101155500D02*
G01X177808890D01*
X176094390Y-102870000D02*
G01X176342836Y-102621554D01*
X177808890Y-101155500D02*
G01X176342836Y-102621554D01*
X175981908Y-102982482D02*
G01X176342836Y-102621554D01*
X173736000Y-102982482D02*
G01X175981908D01*
X173736000Y-102997000D02*
G01Y-102982482D01*
Y-102997000D02*
G01Y-102982482D01*
X182049420Y-103695500D02*
G01X180846730D01*
Y-103695500D02*
G01X179640230Y-104902000D01*
Y-104902000D02*
G01X177496490D01*
X176959954Y-104365462D02*
G01X177496490Y-104902000D01*
X174498000Y-104365462D02*
G01X176959954D01*
X174498000Y-104394000D02*
G01Y-104365462D01*
Y-104365462D02*
G01Y-104394000D01*
Y-104394000D02*
G01Y-104365462D01*
X171361100Y-82461100D02*
G01Y-80873600D01*
X171881800Y-81394300D02*
G01X171361100Y-80873600D01*
Y-80873600D02*
G01Y-82969100D01*
X173228000Y-84836000D02*
G01Y-87249000D01*
X171361100Y-82969100D02*
G01X173228000Y-84836000D01*
X148971000Y-94361000D02*
G01X149987000Y-93345000D01*
X147955000Y-95377000D02*
G01X148971000Y-94361000D01*
X147955000Y-96139000D02*
G01Y-95377000D01*
X151638000Y-99822000D02*
G01X147955000Y-96139000D01*
X151638000Y-100965000D02*
G01Y-99822000D01*
X148463000Y-93853000D02*
G01X150241000Y-92075000D01*
X150876000Y-99822000D02*
G01X147447000Y-96393000D01*
Y-96393000D02*
G01Y-94869000D01*
Y-94869000D02*
G01X148463000Y-93853000D01*
X150876000Y-100443458D02*
G01Y-101727000D01*
Y-101219000D02*
G01Y-100443458D01*
Y-100443458D02*
G01Y-99822000D01*
X166281100Y-80873600D02*
G01Y-81210150D01*
X148717000Y-90297000D02*
G01X145923000Y-93091000D01*
X150495000Y-90297000D02*
G01X148717000D01*
X145923000Y-93091000D02*
G01Y-96797856D01*
X148954270Y-100415446D02*
G01Y-100900380D01*
X148775008Y-100236186D02*
G01X148954270Y-100415446D01*
X148775008Y-100228706D02*
G01Y-100236186D01*
X145923000Y-97376698D02*
G01X148775008Y-100228706D01*
X145923000Y-96797856D02*
G01Y-97376698D01*
X163741100Y-80873600D02*
G01Y-81210150D01*
X159893000Y-87757000D02*
G01X156718000Y-90932000D01*
Y-90932000D02*
G01X156464000D01*
X159893000Y-85090000D02*
G01Y-87757000D01*
X161201100Y-80873600D02*
G01Y-82175350D01*
X146939000Y-94361000D02*
G01Y-96647000D01*
X150226526Y-100060986D02*
G01Y-100545920D01*
X148717000Y-92583000D02*
G01X146939000Y-94361000D01*
X150226526Y-99934526D02*
G01Y-100060986D01*
Y-100950526D02*
G01X150241000Y-100965000D01*
Y-99949000D02*
G01X149930422Y-99638422D01*
Y-99638422D02*
G01X150226526Y-99934526D01*
X150241000Y-100965000D02*
G01Y-99949000D01*
X146939000Y-96647000D02*
G01X149930422Y-99638422D01*
X157137100Y-80873600D02*
G01Y-81210150D01*
X147447000Y-92837000D02*
G01X148717000Y-91567000D01*
X146431000Y-93853000D02*
G01X147447000Y-92837000D01*
X146431000Y-96901000D02*
G01Y-93853000D01*
X149606000Y-100076000D02*
G01X146431000Y-96901000D01*
X149606000Y-101600000D02*
G01Y-100076000D01*
X154597100Y-80873600D02*
G01Y-81210150D01*
X146735800Y-81114900D02*
G01X146977100Y-80873600D01*
X146735800Y-83972400D02*
G01Y-81114900D01*
X144437100Y-82765900D02*
G01Y-80873600D01*
Y-80873600D02*
G01Y-85763100D01*
Y-85763100D02*
G01X145669000Y-86995000D01*
G54D23*
X155321000Y-96647000D02*
G01X157042636D01*
X153035000Y-94361000D02*
G01X155321000Y-96647000D01*
X147955000Y-88519000D02*
G01X148463000Y-88011000D01*
Y-88011000D02*
G01X152019000D01*
Y-88011000D02*
G01X153035000Y-89027000D01*
Y-89027000D02*
G01Y-90889526D01*
Y-90889526D02*
G01Y-94361000D01*
Y-90043000D02*
G01Y-90889526D01*
X157946334Y-96647000D02*
G01X159385000D01*
X157042636D02*
G01X157946334D01*
Y-96647000D02*
G01X158877000D01*
X139359640Y-82480150D02*
G01X140572490Y-83693000D01*
X139359640Y-80873600D02*
G01Y-82480150D01*
X140572490Y-83693000D02*
G01Y-84946490D01*
Y-84946490D02*
G01X143452846Y-87826844D01*
Y-87826844D02*
G01X144145000Y-88519000D01*
X148463000Y-88011000D02*
G01X147447000Y-89027000D01*
X147442678Y-89022676D02*
G01X144648678D01*
X147447000Y-89027000D02*
G01X147442678Y-89022676D01*
X143452846Y-87826844D02*
G01X144648678Y-89022676D01*
G54D24*
X136817100Y-80873600D02*
G01Y-81749900D01*
X150114000Y-108966000D02*
G01X151892000D01*
X129667000Y-109347000D02*
G01X149733000D01*
X123914990Y-90207010D02*
G01Y-103594990D01*
Y-103594990D02*
G01X129667000Y-109347000D01*
X128524000Y-85598000D02*
G01X123914990Y-90207010D01*
X136817100Y-81210150D02*
G01X132429250Y-85598000D01*
X149733000Y-109347000D02*
G01X150114000Y-108966000D01*
X132429250Y-85598000D02*
G01X128524000D01*
X136817100Y-80873600D02*
G01Y-81210150D01*
X134277100Y-82384900D02*
G01Y-80873600D01*
X131572000Y-85090000D02*
G01X134277100Y-82384900D01*
X128270000Y-85090000D02*
G01X131572000D01*
X123317000Y-90043000D02*
G01X128270000Y-85090000D01*
X123317000Y-104013000D02*
G01Y-103534894D01*
X129159000Y-109855000D02*
G01X123317000Y-104013000D01*
X150368000Y-109855000D02*
G01X129159000D01*
X150495000Y-109728000D02*
G01X150368000Y-109855000D01*
X151384000Y-109728000D02*
G01X150495000D01*
X123317000Y-103534894D02*
G01Y-90043000D01*
Y-103759000D02*
G01Y-103534894D01*
X178981100Y-81210150D02*
G01Y-80873600D01*
Y-86194900D02*
G01Y-80873600D01*
X176276000Y-88900000D02*
G01X178981100Y-86194900D01*
X161798000Y-88900000D02*
G01X176276000D01*
X158445200Y-92252800D02*
G01X161798000Y-88900000D01*
X158445200Y-93776800D02*
G01Y-92252800D01*
X179011580Y-103695500D02*
G01X172974000D01*
Y-103759000D02*
G01Y-103695500D01*
Y-103695500D02*
G01Y-103759000D01*
Y-103759000D02*
G01Y-103695500D01*
X176441100Y-87464900D02*
G01Y-80873600D01*
X175514000Y-88392000D02*
G01X176441100Y-87464900D01*
X161671000Y-88392000D02*
G01X175514000D01*
X157752816Y-92310184D02*
G01X161671000Y-88392000D01*
X157752816Y-94469184D02*
G01Y-92310184D01*
X179197000Y-116332000D02*
G01X178562000D01*
X176530000Y-114935000D02*
G01X176657000Y-115062000D01*
X158242000Y-114935000D02*
G01X176530000D01*
X154559000Y-110109000D02*
G01Y-111252000D01*
Y-111252000D02*
G01X157734000Y-114427000D01*
X176784000Y-115189000D02*
G01X176657000Y-115062000D01*
X157734000Y-114427000D02*
G01X158242000Y-114935000D01*
X177927000Y-116332000D02*
G01X176784000Y-115189000D01*
X179197000Y-116332000D02*
G01X177927000D01*
X158242000Y-114935000D02*
G01Y-115189000D01*
X138816080Y-102621080D02*
G01X138811000Y-102626160D01*
X138331148Y-102621080D02*
G01X137320228Y-103632000D01*
X138816080Y-102621080D02*
G01X138331148D01*
X130302000Y-103632000D02*
G01X129540000Y-104394000D01*
X137320228Y-103632000D02*
G01X130302000D01*
X179070000Y-113665000D02*
G01X179197000Y-113792000D01*
X158369000Y-113157000D02*
G01X158305500Y-113220500D01*
Y-113220500D02*
G01X158432500D01*
Y-113220500D02*
G01X158877000Y-113665000D01*
Y-113665000D02*
G01X179070000D01*
X181737000Y-116332000D02*
G01Y-116205000D01*
Y-116205000D02*
G01X180594000Y-115062000D01*
X177419000D02*
G01X176657000Y-114300000D01*
X178689000Y-115062000D02*
G01X177419000D01*
X180594000D02*
G01X178689000D01*
X181737000Y-116332000D02*
G01X181610000D01*
X176657000Y-114300000D02*
G01X173717852D01*
Y-114300000D02*
G01X170561000D01*
X158496000D02*
G01X159639000D01*
Y-114300000D02*
G01X173717852D01*
X155448000Y-111252000D02*
G01X158496000Y-114300000D01*
X179197000Y-111252000D02*
G01X178689000D01*
X177038000Y-112649000D02*
G01X178435000Y-111252000D01*
X159893000Y-112649000D02*
G01X177038000D01*
X157353000Y-110109000D02*
G01X159893000Y-112649000D01*
X178435000Y-111252000D02*
G01X179197000D01*
X157353000Y-107188000D02*
G01Y-110109000D01*
X181737000Y-113792000D02*
G01X181610000D01*
Y-113792000D02*
G01X180340000Y-112522000D01*
Y-112522000D02*
G01X177927000D01*
Y-112522000D02*
G01X177292000Y-113157000D01*
Y-113157000D02*
G01X172828854D01*
Y-113157000D02*
G01X170815000D01*
X159258000D02*
G01X159549762D01*
X158115000Y-112014000D02*
G01X159258000Y-113157000D01*
X172828854D02*
G01X159549762D01*
X181737000Y-118872000D02*
G01X181610000D01*
X181737000D02*
G01X180467000Y-117602000D01*
Y-117602000D02*
G01X178181000D01*
Y-117602000D02*
G01X176149000Y-115570000D01*
X164763308Y-116078000D02*
G01X165271308Y-115570000D01*
X157353000Y-116078000D02*
G01X164763308D01*
X176149000Y-115570000D02*
G01X165271308D01*
X153289000Y-110617000D02*
G01Y-111252000D01*
X156574672Y-114537672D02*
G01Y-115299672D01*
X153289000Y-111252000D02*
G01X156574672Y-114537672D01*
Y-115299672D02*
G01X157353000Y-116078000D01*
G54D10*
X175704500Y-87159790D02*
G01X175208890Y-87655400D01*
X174118102*
X174205730Y-87444370*
X174206070Y-87055336*
X174057508Y-86695788*
X173964600Y-86602718*
Y-84836000*
X173908530Y-84554114*
X173748856Y-84315144*
X172097700Y-82663990*
Y-82461100*
Y-82399804*
X172348928Y-82231940*
X172631100Y-81809640*
X172913272Y-82231940*
X173366492Y-82534772*
X173901100Y-82641112*
X174435710Y-82534772*
X174888928Y-82231940*
X175171100Y-81809640*
X175453272Y-82231940*
X175704500Y-82399804*
Y-87159790*
X183338000Y-126335264D02*
G01X180998632Y-128674632D01*
X180850144Y-128896862*
X180798000Y-129159000*
Y-130145264*
X180378100Y-130565164*
Y-129505406*
Y-128761794*
X180271760Y-128227184*
X179968928Y-127773964*
X179515710Y-127471132*
X179070000Y-127382476*
Y-120205816*
Y-118999000*
X177862532*
X177742032Y-119231026*
X177990180Y-119760490*
X178422054Y-120154688*
X178837974Y-120326958*
X179070000Y-120205816*
Y-127382476*
X178981100Y-127364792*
X178446492Y-127471132*
X177993272Y-127773964*
X177711100Y-128196264*
X177428928Y-127773964*
X176975710Y-127471132*
X176441100Y-127364792*
X175906492Y-127471132*
X175453272Y-127773964*
X175171100Y-128196264*
X174888928Y-127773964*
X174435710Y-127471132*
X173901100Y-127364792*
X173366492Y-127471132*
X172913272Y-127773964*
X172631100Y-128196264*
X172348928Y-127773964*
X171895710Y-127471132*
X171361100Y-127364792*
X170826492Y-127471132*
X170373272Y-127773964*
X170091100Y-128196264*
X169808928Y-127773964*
X169355710Y-127471132*
X168821100Y-127364792*
X168286492Y-127471132*
X167833272Y-127773964*
X167551100Y-128196264*
X167268928Y-127773964*
X166815710Y-127471132*
X166281100Y-127364792*
X165746492Y-127471132*
X165293272Y-127773964*
X164990440Y-128227184*
X164884100Y-128761794*
Y-129505406*
X164990440Y-130040016*
X165293272Y-130493234*
X165746492Y-130796066*
X166281100Y-130902408*
X166815710Y-130796066*
X167268928Y-130493234*
X167551100Y-130070934*
X167833272Y-130493234*
X168286492Y-130796066*
X168821100Y-130902408*
X169355710Y-130796066*
X169808928Y-130493234*
X170091100Y-130070934*
X170373272Y-130493234*
X170826492Y-130796066*
X171361100Y-130902408*
X171895710Y-130796066*
X172348928Y-130493234*
X172631100Y-130070934*
X172913272Y-130493234*
X173366492Y-130796066*
X173901100Y-130902408*
X174435710Y-130796066*
X174888928Y-130493234*
X175171100Y-130070934*
X175453272Y-130493234*
X175906492Y-130796066*
X176441100Y-130902408*
X176975710Y-130796066*
X177428928Y-130493234*
X177711100Y-130070934*
X177993272Y-130493234*
X178446492Y-130796066*
X178981100Y-130902408*
X179515710Y-130796066*
X179968928Y-130493234*
X180271760Y-130040016*
X180378100Y-129505406*
Y-130565164*
X179929264Y-131014000*
X163538070*
Y-120456336*
X163389508Y-120096788*
X163114660Y-119821460*
X162755370Y-119672270*
X162366338Y-119671930*
X162006788Y-119820492*
X161731460Y-120095340*
X161642014Y-120310748*
X161554442Y-120398322*
X151932056*
X151718370Y-120309592*
X151329338Y-120309252*
X151113772Y-120398322*
X147574000*
Y-118103032*
Y-112778642*
X149011654Y-114216296*
X149250624Y-114375972*
X149250626*
X149532510Y-114432042*
X152252332*
X153835044Y-116014754*
X153834932Y-116144662*
X153983494Y-116504212*
X154258342Y-116779540*
X154617630Y-116928730*
X155006664Y-116929068*
X155366212Y-116780506*
X155641540Y-116505658*
X155790730Y-116146370*
X155791070Y-115757336*
X155642508Y-115397788*
X155367660Y-115122460*
X155008370Y-114973270*
X154876866Y-114973154*
X153078298Y-113174586*
X152839328Y-113014912*
X152557442Y-112958842*
X149837620*
X148866542Y-111987764*
X148932730Y-111828370*
X148933070Y-111439336*
X148784508Y-111079788*
X148509660Y-110804460*
X148150370Y-110655270*
X147761338Y-110654930*
X147401788Y-110803492*
X147320098Y-110885040*
X147239660Y-110804460*
X146880370Y-110655270*
X146491338Y-110654930*
X146131788Y-110803492*
X145856460Y-111078340*
X145707270Y-111437630*
X145706932Y-111826662*
X145796000Y-112042226*
Y-118103032*
Y-120398322*
X143753558*
X143448154Y-120092916*
X141979618Y-118624382*
X141691206Y-118431670*
X141351000Y-118364000*
X128511236*
X123691618Y-113544382*
X123403206Y-113351670*
X123063000Y-113284000*
X122344368*
Y-95583850*
Y-91187110*
X122179598Y-90788336*
X121874768Y-90482974*
X121476284Y-90317508*
X121044810Y-90317132*
X120646038Y-90481902*
X120340674Y-90786732*
X120175210Y-91185216*
X120174832Y-91616690*
X120339602Y-92015462*
X120644434Y-92320826*
X121042918Y-92486290*
X121474390Y-92486668*
X121873164Y-92321898*
X122178526Y-92017066*
X122343992Y-91618582*
X122344368Y-91187110*
Y-95583850*
X122179598Y-95185076*
X121874768Y-94879714*
X121476284Y-94714248*
X121044810Y-94713872*
X120646038Y-94878642*
X120340674Y-95183472*
X120175210Y-95581956*
X120174832Y-96013430*
X120339602Y-96412202*
X120644434Y-96717566*
X121042918Y-96883030*
X121474390Y-96883408*
X121873164Y-96718638*
X122178526Y-96413806*
X122343992Y-96015322*
X122344368Y-95583850*
Y-113284000*
X120391966*
X120170056*
X119956370Y-113195270*
X119567338Y-113194930*
X119207788Y-113343492*
X118932460Y-113618340*
X118783270Y-113977630*
X118782932Y-114366662*
X118931494Y-114726212*
X119206342Y-115001540*
X119565630Y-115150730*
X119954664Y-115151068*
X120170228Y-115062000*
X120391966*
X122694764*
X127514382Y-119881618*
X127802794Y-120074328*
X127802796*
X128143000Y-120142000*
X140982764*
X142190918Y-121350152*
X142756704Y-121915940*
X143045116Y-122108650*
X143045118Y-122108652*
X143385322Y-122176322*
X146608956*
X146685000Y-122191448*
X146761044Y-122176322*
X151113944*
X151327630Y-122265052*
X151716664Y-122265390*
X151932228Y-122176322*
X161922678*
X162262884Y-122108650*
X162551296Y-121915940*
X162899372Y-121567862*
X163113212Y-121479506*
X163388540Y-121204658*
X163537730Y-120845370*
X163538070Y-120456336*
Y-131014000*
X162598100*
Y-129505406*
Y-128761794*
X162491760Y-128227184*
X162471100Y-128196264*
Y-126657104*
Y-126657100*
X162471102*
X162374428Y-126171092*
X162099126Y-125759074*
X159521026Y-123180974*
X159109008Y-122905672*
X158623000Y-122808998*
X158622994Y-122809000*
X127646430*
Y-122771520*
X127522012Y-122146028*
X127167700Y-121615762*
X126637432Y-121261448*
X126011940Y-121137030*
X125386448Y-121261448*
X124856182Y-121615762*
X124501868Y-122146028*
X124377450Y-122771520*
Y-125386478*
X124501868Y-126011970*
X124856182Y-126542238*
X125386448Y-126896550*
X126011940Y-127020968*
X126637432Y-126896550*
X127167700Y-126542238*
X127522012Y-126011970*
X127646430Y-125386478*
Y-125349000*
X158096948*
X159931100Y-127183152*
Y-128196264*
X159922452Y-128209204*
X159903160Y-128143840*
X159559126Y-127718150*
X159078378Y-127456520*
X159004170Y-127441560*
X158788100Y-127564060*
Y-129006600*
X158808100*
Y-129260600*
X158788100*
Y-130703140*
X159004170Y-130825640*
X159078378Y-130810680*
X159559126Y-130549050*
X159903160Y-130123360*
X159922452Y-130057994*
X160213272Y-130493234*
X160666492Y-130796066*
X161201100Y-130902408*
X161735710Y-130796066*
X162188928Y-130493234*
X162491760Y-130040016*
X162598100Y-129505406*
Y-131014000*
X158534100*
Y-130703140*
Y-129260600*
Y-129006600*
Y-127564060*
X158318030Y-127441560*
X158243824Y-127456520*
X157763074Y-127718150*
X157419042Y-128143840*
X157391100Y-128238504*
X157363160Y-128143840*
X157019126Y-127718150*
X156538378Y-127456520*
X156464170Y-127441560*
X156248100Y-127564060*
Y-129006600*
X157264100*
X157518100*
X158534100*
Y-129260600*
X157518100*
X157264100*
X156248100*
Y-130703140*
X156464170Y-130825640*
X156538378Y-130810680*
X157019126Y-130549050*
X157363160Y-130123360*
X157391100Y-130028696*
X157419042Y-130123360*
X157763074Y-130549050*
X158243824Y-130810680*
X158318030Y-130825640*
X158534100Y-130703140*
Y-131014000*
X155994100*
Y-130703140*
Y-129260600*
X155974100*
Y-129006600*
X155994100*
Y-127564060*
X155778030Y-127441560*
X155703824Y-127456520*
X155223074Y-127718150*
X154879042Y-128143840*
X154859748Y-128209204*
X154568928Y-127773964*
X154115710Y-127471132*
X153581100Y-127364792*
X153046492Y-127471132*
X152593272Y-127773964*
X152311100Y-128196264*
X152028928Y-127773964*
X151930100Y-127707930*
Y-127165100*
X151862430Y-126824894*
X151669718Y-126536482*
X150869618Y-125736382*
X150581206Y-125543670*
X150241000Y-125476000*
X146939000*
X146598794Y-125543670*
X146310382Y-125736382*
X145332482Y-126714282*
X145139772Y-127002694*
X145072100Y-127342900*
Y-127707930*
X144973272Y-127773964*
X144691100Y-128196264*
X144408928Y-127773964*
X143955710Y-127471132*
X143421100Y-127364792*
X142886492Y-127471132*
X142433272Y-127773964*
X142130440Y-128227184*
X142024100Y-128761794*
Y-129505406*
X142130440Y-130040016*
X142433272Y-130493234*
X142886492Y-130796066*
X143421100Y-130902408*
X143955710Y-130796066*
X144408928Y-130493234*
X144691100Y-130070934*
X144973272Y-130493234*
X145426492Y-130796066*
X145961100Y-130902408*
X146495710Y-130796066*
X146948928Y-130493234*
X147231100Y-130070934*
X147513272Y-130493234*
X147966492Y-130796066*
X148501100Y-130902408*
X149035710Y-130796066*
X149488928Y-130493234*
X149771100Y-130070934*
X150053272Y-130493234*
X150506492Y-130796066*
X151041100Y-130902408*
X151575710Y-130796066*
X152028928Y-130493234*
X152311100Y-130070934*
X152593272Y-130493234*
X153046492Y-130796066*
X153581100Y-130902408*
X154115710Y-130796066*
X154568928Y-130493234*
X154859748Y-130057994*
X154879042Y-130123360*
X155223074Y-130549050*
X155703824Y-130810680*
X155778030Y-130825640*
X155994100Y-130703140*
Y-131014000*
X130729430*
X131343830Y-130400672*
X131684642Y-129579906*
X131685418Y-128691192*
X131346038Y-127869834*
X130718172Y-127240870*
X129897406Y-126900058*
X129008694Y-126899282*
X128187334Y-127238662*
X127558372Y-127866528*
X127217560Y-128687294*
X127216784Y-129576006*
X127556162Y-130397366*
X128171720Y-131014000*
X124390552*
X125004706Y-130841450*
X125507442Y-130445936*
X125820554Y-129888138*
X125851500Y-129760334*
Y-128999626*
X125820554Y-128871822*
X125507442Y-128314024*
X125004706Y-127918508*
X124388880Y-127745490*
X123388120*
Y-129252980*
X125732146*
X125851500Y-128999626*
Y-129760334*
X125732146Y-129506980*
X123388120*
Y-129526980*
X123134120*
Y-129506980*
Y-129252980*
Y-127745490*
X122133360*
X121644410Y-127882862*
Y-125206760*
Y-124206000*
Y-123952000*
Y-122951240*
X121471392Y-122335414*
X121075876Y-121832678*
X120518080Y-121519566*
X120390274Y-121488620*
X120136920Y-121607974*
Y-123952000*
X121644410*
Y-124206000*
X120136920*
Y-126550024*
X120390274Y-126669378*
X120518080Y-126638432*
X121075876Y-126325322*
X121471392Y-125822584*
X121644410Y-125206760*
Y-127882862*
X121517536Y-127918508*
X121014798Y-128314024*
X120701688Y-128871822*
X120670742Y-128999626*
X120790096Y-129252980*
X123134120*
Y-129506980*
X120790096*
X120670742Y-129760334*
X120701688Y-129888138*
X121014798Y-130445936*
X121517536Y-130841450*
X122131688Y-131014000*
X119882920*
Y-126550024*
Y-124206000*
Y-123952000*
Y-121607974*
X119629566Y-121488620*
X119501762Y-121519566*
X118943964Y-121832678*
X118548450Y-122335414*
X118375430Y-122951240*
Y-123952000*
X119882920*
Y-124206000*
X118375430*
Y-125206760*
X118548450Y-125822584*
X118943964Y-126325322*
X119501762Y-126638432*
X119629566Y-126669378*
X119882920Y-126550024*
Y-131014000*
X116996736*
X116128000Y-130145264*
Y-79912736*
X116996736Y-79044000*
X129391882*
X128828372Y-79606528*
X128487560Y-80427294*
X128486784Y-81316006*
X128826162Y-82137366*
X129454028Y-82766328*
X130274794Y-83107140*
X131163508Y-83107916*
X131984866Y-82768538*
X132613830Y-82140672*
X132914436Y-81416730*
X132986440Y-81778720*
X133289272Y-82231940*
X133348664Y-82271624*
X131266890Y-84353400*
X128270000*
X127988116Y-84409470*
X127749146Y-84569144*
X122796146Y-89522144*
X122636470Y-89761114*
X122580400Y-90043000*
Y-103534894*
Y-103759000*
Y-104013000*
X122636470Y-104294884*
X122796146Y-104533854*
X128638146Y-110375854*
X128877116Y-110535530*
X129159000Y-110591600*
X150368000*
X150649886Y-110535530*
X150744954Y-110472006*
X150829342Y-110556540*
X151188630Y-110705730*
X151577664Y-110706068*
X151937212Y-110557506*
X152212540Y-110282658*
X152361730Y-109923370*
X152361812Y-109829966*
X152445212Y-109795506*
X152720540Y-109520658*
X152869730Y-109161370*
X152870070Y-108772336*
X152721508Y-108412788*
X152446660Y-108137460*
X152087370Y-107988270*
X151698338Y-107987930*
X151338788Y-108136492*
X151245718Y-108229400*
X150114000*
X149832116Y-108285470*
X149593146Y-108445144*
X149427890Y-108610400*
X139794150*
Y-102427416*
X139645588Y-102067868*
X139370740Y-101792540*
X139011450Y-101643350*
X138622418Y-101643010*
X138262868Y-101791572*
X138129648Y-101924560*
X138049262Y-101940550*
X137810292Y-102100224*
X137015118Y-102895400*
X132169070*
Y-99501336*
X132020508Y-99141788*
X131745658Y-98866460*
X131530250Y-98777014*
X129667000Y-96913764*
Y-92138436*
X130693964Y-91111472*
X131352572Y-90452862*
X131566412Y-90364506*
X131841740Y-90089658*
X131990930Y-89730370*
X131991268Y-89341336*
X131842706Y-88981788*
X131567860Y-88706460*
X131208570Y-88557270*
X130819538Y-88556930*
X130459988Y-88705492*
X130184660Y-88980340*
X130095214Y-89195748*
X129436726Y-89854236*
X128149382Y-91141582*
X127956672Y-91429994*
X127889000Y-91770200*
Y-97282000*
X127956672Y-97622206*
X128149382Y-97910618*
X130273136Y-100034372*
X130361494Y-100248212*
X130636340Y-100523540*
X130995630Y-100672730*
X131384662Y-100673068*
X131744212Y-100524506*
X132019540Y-100249658*
X132168730Y-99890370*
X132169070Y-99501336*
Y-102895400*
X130302000*
X130020116Y-102951470*
X129781146Y-103111144*
X129476246Y-103416044*
X129346338Y-103415930*
X128986788Y-103564492*
X128711460Y-103839340*
X128562270Y-104198630*
X128561930Y-104587662*
X128710494Y-104947212*
X128985342Y-105222540*
X129344630Y-105371730*
X129733664Y-105372068*
X130093212Y-105223506*
X130368540Y-104948658*
X130517730Y-104589370*
X130517844Y-104457864*
X130607110Y-104368600*
X137320228*
X137602112Y-104312530*
X137841082Y-104152854*
X138461314Y-103532622*
X138620710Y-103598810*
X139009744Y-103599148*
X139369292Y-103450586*
X139644620Y-103175738*
X139793810Y-102816450*
X139794150Y-102427416*
Y-108610400*
X129972110*
X124651590Y-103289880*
Y-90512120*
X128829110Y-86334600*
X132429250*
X132711136Y-86278530*
X132950106Y-86118854*
X136492428Y-82576530*
X136817100Y-82641112*
X137351710Y-82534772*
X137804928Y-82231940*
X138088370Y-81807740*
X138371812Y-82231940*
X138470640Y-82297974*
Y-82480150*
X138538312Y-82820356*
X138731022Y-83108768*
X139683490Y-84061236*
Y-84946490*
X139751162Y-85286696*
X139943872Y-85575108*
X142824228Y-88455462*
X143516382Y-89147618*
X144020060Y-89651294*
X144308472Y-89844006*
X144648678Y-89911676*
X147425266*
X147447000Y-89916000*
X147787206Y-89848330*
X148075618Y-89655618*
X148583618Y-89147618*
X148831236Y-88900000*
X151650764*
X152146000Y-89395236*
Y-90043000*
Y-90889526*
Y-94361000*
X152213672Y-94701206*
X152406382Y-94989618*
X154692382Y-97275618*
X154980794Y-97468328*
X154980796*
X155321000Y-97536000*
X157042636*
X157946334*
X158877000*
X158975944*
X159189630Y-97624730*
X159578664Y-97625068*
X159938212Y-97476506*
X160213540Y-97201658*
X160362730Y-96842370*
X160363070Y-96453336*
X160214508Y-96093788*
X159939660Y-95818460*
X159580370Y-95669270*
X159191338Y-95668930*
X158975772Y-95758000*
X158877000*
X157946334*
X157042636*
X155689236*
X153924000Y-93992764*
Y-90889526*
Y-90043000*
Y-89027000*
X153856330Y-88686794*
X153663618Y-88398382*
X152647618Y-87382382*
X152359206Y-87189670*
X152019000Y-87122000*
X148463000*
X148122794Y-87189670*
X147834382Y-87382382*
X147326382Y-87890382*
X147083088Y-88133676*
X145016914*
X144773618Y-87890382*
X144081464Y-87198226*
X141461490Y-84578254*
Y-83693000*
X141393820Y-83352794*
X141201108Y-83064382*
X140355958Y-82219232*
X140636520Y-81799342*
X140655042Y-81862090*
X140999074Y-82287780*
X141479824Y-82549410*
X141554030Y-82564370*
X141770100Y-82441870*
Y-81000600*
X141750100*
Y-80746600*
X141770100*
Y-79305330*
X141554030Y-79182830*
X141479824Y-79197790*
X140999074Y-79459420*
X140655042Y-79885108*
X140636520Y-79947856*
X140347468Y-79515260*
X139894250Y-79212428*
X139359640Y-79106088*
X138825032Y-79212428*
X138371812Y-79515260*
X138088370Y-79939458*
X137804928Y-79515260*
X137351710Y-79212428*
X136817100Y-79106088*
X136282492Y-79212428*
X135829272Y-79515260*
X135547100Y-79937558*
X135264928Y-79515260*
X134811710Y-79212428*
X134277100Y-79106088*
X133742492Y-79212428*
X133289272Y-79515260*
X132986440Y-79968478*
X132914228Y-80331510*
X132616038Y-79609834*
X132051190Y-79044000*
X179929264*
X180798000Y-79912736*
Y-91059000*
X180850144Y-91321138*
X180998632Y-91543368*
X183338000Y-93882736*
Y-94771658*
X182788172Y-94220870*
X181967406Y-93880058*
X181078694Y-93879282*
X180378100Y-94168762*
Y-81244112*
Y-80503088*
X180271760Y-79968478*
X179968928Y-79515260*
X179515710Y-79212428*
X178981100Y-79106088*
X178446492Y-79212428*
X177993272Y-79515260*
X177711100Y-79937558*
X177428928Y-79515260*
X176975710Y-79212428*
X176441100Y-79106088*
X175906492Y-79212428*
X175453272Y-79515260*
X175171100Y-79937558*
X174888928Y-79515260*
X174435710Y-79212428*
X173901100Y-79106088*
X173366492Y-79212428*
X172913272Y-79515260*
X172631100Y-79937558*
X172348928Y-79515260*
X171895710Y-79212428*
X171361100Y-79106088*
X170826492Y-79212428*
X170373272Y-79515260*
X170091100Y-79937558*
X169808928Y-79515260*
X169355710Y-79212428*
X168821100Y-79106088*
X168286492Y-79212428*
X167833272Y-79515260*
X167551100Y-79937558*
X167268928Y-79515260*
X166815710Y-79212428*
X166281100Y-79106088*
X165746492Y-79212428*
X165293272Y-79515260*
X165011100Y-79937558*
X164728928Y-79515260*
X164275710Y-79212428*
X163741100Y-79106088*
X163206492Y-79212428*
X162753272Y-79515260*
X162471100Y-79937558*
X162188928Y-79515260*
X161735710Y-79212428*
X161201100Y-79106088*
X160666492Y-79212428*
X160213272Y-79515260*
X159910440Y-79968478*
X159804100Y-80503088*
Y-81244112*
X159910440Y-81778720*
X160213272Y-82231940*
X160515990Y-82434210*
X160520570Y-82457234*
X160680246Y-82696204*
X160919216Y-82855880*
X161201100Y-82911950*
X161482986Y-82855880*
X161721956Y-82696204*
X161881630Y-82457234*
X161886210Y-82434210*
X162188928Y-82231940*
X162471100Y-81809640*
X162753272Y-82231940*
X163206492Y-82534772*
X163741100Y-82641112*
X164275710Y-82534772*
X164728928Y-82231940*
X165011100Y-81809640*
X165293272Y-82231940*
X165746492Y-82534772*
X166281100Y-82641112*
X166815710Y-82534772*
X167268928Y-82231940*
X167551100Y-81809640*
X167833272Y-82231940*
X168286492Y-82534772*
X168821100Y-82641112*
X169355710Y-82534772*
X169808928Y-82231940*
X170091100Y-81809640*
X170373272Y-82231940*
X170624500Y-82399804*
Y-82461100*
Y-82969100*
X170680570Y-83250984*
X170840246Y-83489954*
X172491400Y-85141110*
Y-86602560*
X172399460Y-86694340*
X172250270Y-87053630*
X172249932Y-87442662*
X172337832Y-87655400*
X161671000*
X161389116Y-87711470*
X161150146Y-87871144*
X160871070Y-88150220*
Y-84896336*
X160722508Y-84536788*
X160447660Y-84261460*
X160088370Y-84112270*
X159699338Y-84111930*
X159339788Y-84260492*
X159064460Y-84535340*
X158915270Y-84894630*
X158914932Y-85283662*
X159063494Y-85643212*
X159156400Y-85736280*
Y-87451890*
X158534100Y-88074188*
Y-81244112*
Y-80503088*
X158427760Y-79968478*
X158124928Y-79515260*
X157671710Y-79212428*
X157137100Y-79106088*
X156602492Y-79212428*
X156149272Y-79515260*
X155867100Y-79937558*
X155584928Y-79515260*
X155131710Y-79212428*
X154597100Y-79106088*
X154062492Y-79212428*
X153609272Y-79515260*
X153327100Y-79937558*
X153044928Y-79515260*
X152591710Y-79212428*
X152057100Y-79106088*
X151522492Y-79212428*
X151069272Y-79515260*
X150787100Y-79937558*
X150504928Y-79515260*
X150051710Y-79212428*
X149517100Y-79106088*
X148982492Y-79212428*
X148529272Y-79515260*
X148247100Y-79937558*
X147964928Y-79515260*
X147511710Y-79212428*
X146977100Y-79106088*
X146442492Y-79212428*
X145989272Y-79515260*
X145707100Y-79937558*
X145424928Y-79515260*
X144971710Y-79212428*
X144437100Y-79106088*
X143902492Y-79212428*
X143449272Y-79515260*
X143158458Y-79950492*
X143139160Y-79885108*
X142795126Y-79459420*
X142314378Y-79197790*
X142240170Y-79182830*
X142024100Y-79305330*
Y-80746600*
X142044100*
Y-81000600*
X142024100*
Y-82441870*
X142240170Y-82564370*
X142314378Y-82549410*
X142795126Y-82287780*
X143139160Y-81862090*
X143158458Y-81796706*
X143449272Y-82231940*
X143700500Y-82399804*
Y-82765900*
Y-85763100*
X143756570Y-86044984*
X143916246Y-86283954*
X144691044Y-87058754*
X144690932Y-87188662*
X144839494Y-87548212*
X145114342Y-87823540*
X145473630Y-87972730*
X145862664Y-87973068*
X146222212Y-87824506*
X146497540Y-87549658*
X146646730Y-87190370*
X146647070Y-86801336*
X146498508Y-86441788*
X146223660Y-86166460*
X145864370Y-86017270*
X145732866Y-86017154*
X145173700Y-85457990*
Y-82765900*
Y-82399804*
X145424928Y-82231940*
X145707100Y-81809640*
X145989272Y-82231940*
X145999200Y-82238572*
Y-83325960*
X145907260Y-83417740*
X145758070Y-83777030*
X145757732Y-84166062*
X145906294Y-84525612*
X146181142Y-84800940*
X146540430Y-84950130*
X146929464Y-84950468*
X147289012Y-84801906*
X147564340Y-84527058*
X147713530Y-84167770*
X147713870Y-83778736*
X147565308Y-83419188*
X147472400Y-83326118*
Y-82542590*
X147511710Y-82534772*
X147964928Y-82231940*
X148247100Y-81809640*
X148529272Y-82231940*
X148982492Y-82534772*
X149517100Y-82641112*
X150051710Y-82534772*
X150504928Y-82231940*
X150787100Y-81809640*
X151069272Y-82231940*
X151522492Y-82534772*
X152057100Y-82641112*
X152591710Y-82534772*
X153044928Y-82231940*
X153327100Y-81809640*
X153609272Y-82231940*
X154062492Y-82534772*
X154597100Y-82641112*
X155131710Y-82534772*
X155584928Y-82231940*
X155867100Y-81809640*
X156149272Y-82231940*
X156602492Y-82534772*
X157137100Y-82641112*
X157671710Y-82534772*
X158124928Y-82231940*
X158427760Y-81778720*
X158534100Y-81244112*
Y-88074188*
X156654024Y-89954264*
X156270338Y-89953930*
X155910788Y-90102492*
X155635460Y-90377340*
X155486270Y-90736630*
X155485932Y-91125662*
X155634494Y-91485212*
X155909342Y-91760540*
X156268630Y-91909730*
X156657664Y-91910068*
X157017212Y-91761506*
X157292540Y-91486658*
X157354666Y-91337044*
X160413856Y-88277854*
X160573530Y-88038884*
X160629600Y-87757000*
Y-85736438*
X160721540Y-85644658*
X160870730Y-85285370*
X160871070Y-84896336*
Y-88150220*
X157231960Y-91789330*
X157072286Y-92028300*
X157016216Y-92310184*
Y-93822746*
X156924276Y-93914526*
X156775086Y-94273814*
X156774746Y-94662848*
X156923308Y-95022396*
X157198156Y-95297724*
X157557446Y-95446914*
X157946478Y-95447254*
X158306028Y-95298692*
X158581356Y-95023844*
X158704264Y-94727844*
X158998412Y-94606306*
X159273740Y-94331458*
X159422930Y-93972170*
X159423270Y-93583136*
X159274708Y-93223588*
X159181800Y-93130518*
Y-92557910*
X162103110Y-89636600*
X176276000*
X176557886Y-89580530*
X176796856Y-89420854*
X179501956Y-86715754*
X179661630Y-86476784*
X179717700Y-86194900*
Y-82399804*
X179968928Y-82231940*
X180271760Y-81778720*
X180378100Y-81244112*
Y-94168762*
X180257334Y-94218662*
X179628372Y-94846528*
X179287560Y-95667294*
X179286784Y-96556006*
X179626162Y-97377366*
X180254028Y-98006328*
X181074794Y-98347140*
X181963508Y-98347916*
X182784866Y-98008538*
X183338000Y-97456368*
Y-100214424*
X183306760Y-100167672*
X182938420Y-99921554*
Y-99885500*
X182870750Y-99545294*
X182678038Y-99256882*
X182233538Y-98812382*
X181945126Y-98619670*
X181604920Y-98552000*
X178998764*
X174625000*
X170716056*
X170502370Y-98463270*
X170113338Y-98462930*
X169753788Y-98611492*
X169478460Y-98886340*
X169329270Y-99245630*
X169328932Y-99634662*
X169477494Y-99994212*
X169752342Y-100269540*
X170111630Y-100418730*
X170500664Y-100419068*
X170716228Y-100330000*
X174625000*
X177377384*
X177364650Y-100393500*
Y-100583452*
X177288036Y-100634644*
X175821980Y-102100700*
X175676798Y-102245882*
X174367946*
X174290660Y-102168460*
X173931370Y-102019270*
X173542338Y-102018930*
X173182788Y-102167492*
X172907460Y-102442340*
X172764074Y-102787650*
X172420788Y-102929492*
X172145460Y-103204340*
X171996270Y-103563630*
X171995932Y-103952662*
X172144494Y-104312212*
X172162762Y-104330512*
X171891460Y-104601340*
X171742270Y-104960630*
X171741932Y-105349662*
X171890494Y-105709212*
X172165342Y-105984540*
X172524630Y-106133730*
X172913664Y-106134068*
X173273212Y-105985506*
X173366282Y-105892600*
X176424280*
X176589536Y-106057854*
X177288036Y-106756354*
X177527006Y-106916030*
X177552268Y-106921054*
X177754240Y-107223328*
X178207460Y-107526160*
X178742068Y-107632500*
X179281092*
X179815702Y-107526160*
X180268920Y-107223328*
X180549262Y-106803766*
X180742630Y-107148964*
X181173594Y-107488634*
X181701738Y-107637526*
X181922420Y-107478754*
Y-106362500*
X181902420*
Y-106108500*
X181922420*
Y-106088500*
X182176420*
Y-106108500*
X182196420*
Y-106362500*
X182176420*
Y-107478754*
X182397102Y-107637526*
X182925248Y-107488634*
X183338000Y-107163316*
Y-122711658*
X183248040Y-122621540*
Y-112115600*
Y-110388400*
X183201064Y-110146276*
X183061274Y-109933472*
X182850240Y-109791022*
X182600600Y-109740960*
X180873400*
X180631278Y-109787936*
X180418474Y-109927726*
X180276024Y-110138760*
X180267820Y-110179658*
X180256670Y-110162970*
X179770490Y-109838114*
X179197000Y-109724040*
X178623512Y-109838114*
X178137330Y-110162970*
X177812474Y-110649152*
X177766870Y-110878420*
X176732890Y-111912400*
X168512774*
Y-101022306*
X168264462Y-100421344*
X167805074Y-99961154*
X167204548Y-99711794*
X166554306Y-99711226*
X165953346Y-99959538*
X165493154Y-100418926*
X165243794Y-101019452*
X165243226Y-101669694*
X165491538Y-102270654*
X165950928Y-102730846*
X166551454Y-102980206*
X167201694Y-102980774*
X167802656Y-102732462*
X168262846Y-102273072*
X168512206Y-101672546*
X168512774Y-101022306*
Y-111912400*
X163432774*
Y-101022306*
X163184462Y-100421344*
X162725074Y-99961154*
X162124548Y-99711794*
X161474306Y-99711226*
X160873346Y-99959538*
X160413154Y-100418926*
X160163794Y-101019452*
X160163226Y-101669694*
X160411538Y-102270654*
X160870928Y-102730846*
X161471454Y-102980206*
X162121694Y-102980774*
X162722656Y-102732462*
X163182846Y-102273072*
X163432206Y-101672546*
X163432774Y-101022306*
Y-111912400*
X160198110*
X158089600Y-109803890*
Y-107834438*
X158181540Y-107742658*
X158252272Y-107572318*
X158363314Y-107683554*
X158725212Y-107833828*
X159117070Y-107834170*
X159479230Y-107684528*
X159756556Y-107407686*
X159906828Y-107045788*
X159907170Y-106653930*
X159760340Y-106298572*
X159906828Y-105945788*
X159907170Y-105553930*
X159757530Y-105191770*
X159480686Y-104914444*
X159118788Y-104764172*
X158726932Y-104763830*
X158364772Y-104913470*
X158087446Y-105190314*
X157937172Y-105552212*
X157936830Y-105944068*
X158083660Y-106299426*
X158014352Y-106466340*
X157907660Y-106359460*
X157548370Y-106210270*
X157159338Y-106209930*
X156799788Y-106358492*
X156524460Y-106633340*
X156375270Y-106992630*
X156374932Y-107381662*
X156523494Y-107741212*
X156616400Y-107834280*
Y-110109000*
X156672470Y-110390884*
X156832146Y-110629854*
X157474210Y-111271918*
X157286460Y-111459340*
X157137270Y-111818630*
X157137200Y-111899488*
X156425956Y-111188244*
X156426070Y-111058336*
X156277508Y-110698788*
X156002660Y-110423460*
X155643370Y-110274270*
X155536756Y-110274176*
X155537070Y-109915336*
X155388508Y-109555788*
X155287624Y-109454728*
Y-102427416*
X155139062Y-102067868*
X154864214Y-101792540*
X154504926Y-101643350*
X154115892Y-101643010*
X153756344Y-101791572*
X153481016Y-102066420*
X153331826Y-102425710*
X153331710Y-102557214*
X153031780Y-102857144*
X152993526Y-102895400*
X152616070*
Y-100771336*
X152467508Y-100411788*
X152374600Y-100318718*
Y-99822004*
Y-99822000*
X152374602*
X152327832Y-99586882*
X152318530Y-99540116*
Y-99540114*
X152158856Y-99301144*
X148691600Y-95833890*
Y-95682110*
X149491856Y-94881854*
X150050754Y-94322954*
X150180664Y-94323068*
X150540212Y-94174506*
X150815540Y-93899658*
X150964730Y-93540370*
X150965070Y-93151336*
X150842970Y-92855832*
X151069540Y-92629658*
X151218730Y-92270370*
X151219070Y-91881336*
X151070508Y-91521788*
X150795660Y-91246460*
X150776828Y-91238640*
X151048212Y-91126506*
X151323540Y-90851658*
X151472730Y-90492370*
X151473070Y-90103336*
X151324508Y-89743788*
X151049660Y-89468460*
X150690370Y-89319270*
X150301338Y-89318930*
X149941788Y-89467492*
X149848718Y-89560400*
X148717000*
X148435116Y-89616470*
X148196146Y-89776144*
X145402146Y-92570144*
X145242470Y-92809114*
X145186400Y-93091000*
Y-96797856*
Y-97376698*
X145242470Y-97658584*
X145402146Y-97897554*
X148044920Y-100540328*
X147976540Y-100705010*
X147976200Y-101094042*
X148124762Y-101453592*
X148399610Y-101728920*
X148642926Y-101829952*
X148776494Y-102153212*
X149051342Y-102428540*
X149410630Y-102577730*
X149799664Y-102578068*
X150159212Y-102429506*
X150177402Y-102411348*
X150321342Y-102555540*
X150680630Y-102704730*
X151069664Y-102705068*
X151429212Y-102556506*
X151704540Y-102281658*
X151847926Y-101936348*
X152191212Y-101794506*
X152466540Y-101519658*
X152615730Y-101160370*
X152616070Y-100771336*
Y-102895400*
X150546110*
X150507856Y-102857144*
X150268886Y-102697470*
X149987000Y-102641400*
X148895110*
X148822728Y-102569016*
X145427856Y-99174144*
X145188886Y-99014470*
X144907000Y-98958400*
X144193864*
X142883996Y-97648532*
X142879472Y-97641760*
X134086600Y-88848890*
Y-87757000*
X134073736Y-87692324*
X134074070Y-87309336*
X133925508Y-86949788*
X133650658Y-86674460*
X133291370Y-86525270*
X132902336Y-86524930*
X132542788Y-86673492*
X132267460Y-86948340*
X132118270Y-87307630*
X132117932Y-87696662*
X132266494Y-88056212*
X132541340Y-88331540*
X132613400Y-88361460*
Y-89154000*
X132669470Y-89435884*
X132829146Y-89674854*
X141833236Y-98678946*
X141837762Y-98685718*
X143367898Y-100215854*
X143606868Y-100375530*
X143888754Y-100431600*
X144601890*
X147548290Y-103378000*
X147434146Y-103492144*
X147274470Y-103731114*
X147218400Y-104013000*
Y-106795560*
X147126460Y-106887340*
X146977270Y-107246630*
X146976932Y-107635662*
X147125494Y-107995212*
X147400342Y-108270540*
X147759630Y-108419730*
X148148664Y-108420068*
X148508212Y-108271506*
X148783540Y-107996658*
X148932730Y-107637370*
X148933070Y-107248336*
X148784508Y-106888788*
X148691600Y-106795718*
Y-104318110*
X148895110Y-104114600*
X149681890*
X149720146Y-104152854*
X149959116Y-104312530*
X150241000Y-104368600*
X153298636*
X153580520Y-104312530*
X153819490Y-104152854*
X154073490Y-103898854*
X154373310Y-103599034*
X154503218Y-103599148*
X154862768Y-103450586*
X155138096Y-103175738*
X155287286Y-102816450*
X155287624Y-102427416*
Y-109454728*
X155113660Y-109280460*
X154754370Y-109131270*
X154365338Y-109130930*
X154005788Y-109279492*
X153730460Y-109554340*
X153664190Y-109713936*
X153484370Y-109639270*
X153095338Y-109638930*
X152735788Y-109787492*
X152460460Y-110062340*
X152311270Y-110421630*
X152310932Y-110810662*
X152459494Y-111170212*
X152555202Y-111266088*
X152608470Y-111533884*
X152768146Y-111772854*
X155838072Y-114842782*
Y-115299672*
X155894142Y-115581556*
X156053818Y-115820526*
X156832146Y-116598854*
X157071116Y-116758530*
X157353000Y-116814600*
X164763308*
X165045194Y-116758530*
X165284164Y-116598854*
X165576418Y-116306600*
X175843890*
X177660146Y-118122854*
X177861740Y-118257556*
X177742032Y-118512972*
X177862532Y-118745000*
X179070000*
Y-118725000*
X179324000*
Y-118745000*
X179344000*
Y-118999000*
X179324000*
Y-120205816*
X179556026Y-120326958*
X179971948Y-120154688*
X180403822Y-119760490*
X180461336Y-119637770*
X180677330Y-119961028*
X181163512Y-120285884*
X181737000Y-120399958*
X182310490Y-120285884*
X182796670Y-119961028*
X183121526Y-119474848*
X183235600Y-118901358*
Y-118842640*
X183121526Y-118269152*
X182796670Y-117782970*
X182525828Y-117602000*
X182796670Y-117421028*
X183121526Y-116934848*
X183235600Y-116361358*
Y-116302640*
X183121526Y-115729152*
X182796670Y-115242970*
X182525828Y-115062000*
X182796670Y-114881028*
X183121526Y-114394848*
X183235600Y-113821358*
Y-113762640*
X183121526Y-113189152*
X182809700Y-112722470*
X182842724Y-112716062*
X183055528Y-112576272*
X183197978Y-112365240*
X183248040Y-112115600*
Y-122621540*
X182788172Y-122160870*
X181967406Y-121820058*
X181078694Y-121819282*
X180257334Y-122158662*
X179628372Y-122786528*
X179287560Y-123607294*
X179286784Y-124496006*
X179626162Y-125317366*
X180254028Y-125946328*
X181074794Y-126287140*
X181963508Y-126287916*
X182784866Y-125948538*
X183338000Y-125396368*
Y-126335264*
M02*
