M48
;DRILL file {kicad (2015-02-03 BZR 5404)-product} date 2016-5-13 20:38:23
;FORMAT={-:-/ absolute / inch / decimal}
FMAT,2
INCH,TZ
T1C0.013
T2C0.014
T3C0.032
T4C0.039
T5C0.039
T6C0.040
%
G90
G05
M72
T1
X4.625Y-4.285
X4.625Y-4.76
X4.64Y-5.045
X4.645Y-3.345
X4.715Y-4.495
X4.74Y-4.03
X4.755Y-4.245
X4.785Y-4.175
X4.785Y-4.345
X4.79Y-3.99
X4.81Y-3.24
X4.865Y-4.225
X4.885Y-4.675
X4.95Y-4.02
X4.95Y-4.725
X4.955Y-3.135
X4.955Y-3.95
X4.975Y-3.855
X5.02Y-3.21
X5.065Y-3.285
X5.065Y-4.77
X5.0994Y-4.655
X5.1Y-4.11
X5.15Y-4.225
X5.158Y-3.525
X5.165Y-3.925
X5.23Y-5.07
X5.24Y-3.445
X5.245Y-4.175
X5.275Y-4.235
X5.325Y-4.125
X5.33Y-4.39
X5.33Y-5.07
X5.335Y-4.535
X5.405Y-3.745
X5.435Y-3.575
X5.435Y-5.07
X5.44Y-4.39
X5.4652Y-4.0402
X5.475Y-3.665
X5.535Y-5.07
X5.545Y-4.385
X5.605Y-4.2
X5.62Y-3.33
X5.64Y-3.56
X5.65Y-4.69
X5.655Y-4.39
X5.655Y-4.605
X5.6786Y-4.1386
X5.68Y-4.225
X5.735Y-3.425
X5.775Y-4.395
X5.777Y-3.306
X5.825Y-4.23
X5.825Y-4.395
X5.835Y-4.505
X5.855Y-3.605
X5.855Y-3.645
X5.855Y-3.765
X5.8643Y-3.9725
X5.89Y-4.
X5.905Y-3.675
X5.915Y-3.625
X5.915Y-3.975
X5.925Y-3.555
X5.94Y-4.005
X5.945Y-4.15
X5.96Y-4.32
X5.9655Y-4.7751
X5.97Y-3.975
X5.98Y-4.29
X6.035Y-4.115
X6.035Y-4.355
X6.065Y-3.96
X6.075Y-4.625
X6.0752Y-4.0402
X6.085Y-4.335
X6.095Y-4.565
X6.11Y-3.845
X6.12Y-4.38
X6.135Y-3.33
X6.155Y-4.265
X6.155Y-4.335
X6.16Y-3.58
X6.175Y-3.885
X6.185Y-3.495
X6.195Y-4.035
X6.195Y-4.22
X6.2Y-3.32
X6.2107Y-3.7193
X6.225Y-4.41
X6.23Y-4.535
X6.235Y-4.455
X6.238Y-3.692
X6.275Y-3.805
X6.285Y-3.685
X6.295Y-3.35
X6.33Y-4.68
X6.4Y-4.75
X6.435Y-3.895
X6.48Y-4.12
X6.535Y-4.605
X6.56Y-4.86
X6.605Y-3.345
X6.655Y-4.295
X6.665Y-3.865
X6.705Y-3.915
X6.8Y-4.14
X6.81Y-4.085
X6.82Y-3.435
X6.84Y-3.575
X6.84Y-4.055
X6.84Y-4.745
X6.84Y-4.86
X6.87Y-4.11
X6.885Y-3.31
X6.885Y-3.58
X6.8906Y-3.6456
X6.945Y-4.745
X6.965Y-4.385
X6.97Y-4.24
X7.007Y-4.27
X7.06Y-3.565
X7.06Y-3.675
X7.068Y-4.27
T2
X6.2568Y-4.1633
X6.2568Y-4.2067
T3
X6.37Y-3.99
X6.57Y-3.99
T4
X5.2865Y-3.184
X5.3865Y-3.184
X5.4866Y-3.184
X5.5865Y-3.184
X5.6865Y-3.184
X5.7865Y-3.184
X5.8865Y-3.184
X5.9865Y-3.184
X6.0865Y-3.184
X6.1865Y-3.184
X6.3465Y-3.184
X6.4465Y-3.184
X6.5465Y-3.184
X6.6465Y-3.184
X6.7465Y-3.184
X6.8465Y-3.184
X6.9465Y-3.184
X7.0465Y-3.184
T5
X5.6465Y-5.084
X5.7465Y-5.084
X5.8465Y-5.084
X5.9465Y-5.084
X6.0465Y-5.084
X6.1465Y-5.084
X6.2465Y-5.084
X6.3465Y-5.084
X6.5465Y-5.084
X6.6465Y-5.084
X6.7465Y-5.084
X6.8465Y-5.084
X6.9465Y-5.084
X7.0465Y-5.084
X7.0575Y-3.9825
X7.0575Y-4.0825
X7.0575Y-4.1825
X7.1575Y-3.9825
X7.1575Y-4.0825
X7.1575Y-4.1825
T6
X7.055Y-4.38
X7.055Y-4.48
X7.055Y-4.58
X7.055Y-4.68
X7.155Y-4.38
X7.155Y-4.48
X7.155Y-4.58
X7.155Y-4.68
T5
X4.7248Y-4.8457G85X4.7248Y-4.9243
G05
X4.8922Y-5.0937G85X4.8134Y-5.0937
G05
X4.9611Y-4.8358G85X4.9611Y-4.9342
G05
T0
M30
