G04 CAM350 V9.5.1 (Build 211) Date:  Fri May 13 20:41:23 2016 *
G04 Database: (Untitled) *
G04 Layer 5: STM32duino-F_Cu *
%FSLAX46Y46*%
%MOMM*%
%SFA1.000B1.000*%

%MIA0B0*%
%IPPOS*%
%ADD10C,0.25400*%
%ADD11O,1.52400X2.19964*%
%ADD12O,1.52400X2.19710*%
%ADD13O,4.00050X1.99898*%
%ADD14O,1.99898X4.00050*%
%ADD15O,1.99898X4.50088*%
%ADD16C,1.99898*%
%ADD17C,0.70000*%
%ADD18R,1.99898X1.52400*%
%ADD19O,1.99898X1.52400*%
%ADD20R,1.72720X1.72720*%
%ADD21O,1.72720X1.72720*%
%ADD22C,0.68580*%
%ADD23C,0.50800*%
%ADD24C,0.20320*%
%ADD25C,1.27000*%
%ADD29R,0.80000X0.75000*%
%ADD72R,0.75000X0.80000*%
%ADD73R,1.80086X2.49936*%
%ADD30R,0.79756X0.79756*%
%ADD31R,0.50000X0.90000*%
%ADD32R,0.91440X0.91440*%
%ADD33R,0.90000X0.50000*%
%ADD34R,1.00076X1.00076*%
%ADD35R,3.65760X2.03200*%
%ADD36R,1.01600X2.03200*%
%ADD37R,2.03200X3.65760*%
%ADD38R,2.03200X1.01600*%
%ADD39R,1.30048X0.29972*%
%ADD40R,0.29972X1.30048*%
%ADD41R,2.20000X1.05000*%
%ADD42R,1.05000X1.00000*%
%ADD43R,1.55000X0.60000*%
%ADD44R,3.00000X3.00000*%
%ADD45R,1.60020X2.60096*%
%ADD46R,0.70000X1.30000*%
%ADD47R,2.19710X2.19710*%
%ADD48R,2.19710X0.49784*%
%LNSTM32duino-F_Cu*%
%LPD*%
G36*
X116128006Y-130145244D02*
G01Y-79912756D01*
X116128024Y-79912712*
X116996726Y-79044018*
X116996770Y-79044000*
X129391794Y-79044034*
X128828360Y-79606554*
X128487570Y-80427274*
X128487560Y-80427324*
X128486786Y-81315984*
X128486796Y-81316032*
X128826154Y-82137344*
X128826182Y-82137386*
X129454014Y-82766312*
X130274774Y-83107130*
X130274824Y-83107140*
X131163486Y-83107914*
X131163534Y-83107904*
X131984844Y-82768546*
X131984886Y-82768518*
X132613814Y-82140686*
X132914450Y-81416794*
X132986436Y-81778698*
X132986456Y-81778746*
X133289260Y-82231922*
X133742474Y-82534760*
X133742522Y-82534780*
X134137354Y-82613330*
X134137400Y-82613386*
X134137390Y-86439726*
X134137364Y-86439774*
X133969058Y-86550348*
X133826636Y-86761342*
X133826616Y-86761388*
X133811670Y-86835752*
X133650632Y-86674448*
X133291390Y-86525280*
X133291340Y-86525270*
X132942456Y-86524954*
X132942408Y-86524928*
X132863652Y-86405056*
X132797524Y-86360388*
X132857906Y-86320684*
X133000364Y-86109658*
X133000384Y-86109612*
X133050438Y-85860012*
Y-85359986*
X133003468Y-85117900*
X133003448Y-85117854*
X132863652Y-84905056*
X132652658Y-84762634*
X132652612Y-84762614*
X132402986Y-84712560*
X131502986Y-84712562*
X131260902Y-84759532*
X131260856Y-84759552*
X131087514Y-84873400*
X130521816Y-84873384*
X130521760Y-84873338*
X130515468Y-84840900*
X130515448Y-84840854*
X130375652Y-84628056*
X130164658Y-84485634*
X130164612Y-84485614*
X129914986Y-84435560*
X129164986Y-84435562*
X128922902Y-84482532*
X128922856Y-84482552*
X128710058Y-84622348*
X128567636Y-84833342*
X128567616Y-84833388*
X128559588Y-84873356*
X128559532Y-84873400*
X128244728Y-84873386*
X128080658Y-84762634*
X128080612Y-84762614*
X127830986Y-84712560*
X127525290Y-84712554*
X127525246Y-84712536*
X126255798Y-83443080*
X126255780Y-83443036*
X126255796Y-83398030*
X126255842Y-83397974*
X126261660Y-83396846*
X126261706Y-83396826*
X126474468Y-83257064*
X126616926Y-83046038*
X126616946Y-83045992*
X126666998Y-82796392*
Y-81795606*
X126620028Y-81553520*
X126620008Y-81553474*
X126480212Y-81340676*
X126269218Y-81198254*
X126269172Y-81198234*
X126019546Y-81148180*
X125018786Y-81148182*
X124776702Y-81195152*
X124776656Y-81195172*
X124563858Y-81334968*
X124421436Y-81545962*
X124421416Y-81546008*
X124371360Y-81795634*
Y-82796370*
X124418334Y-83038478*
X124418354Y-83038524*
X124558116Y-83251286*
X124769142Y-83393744*
X124769188Y-83393764*
X124782536Y-83396454*
X124782580Y-83396510*
Y-83748170*
X124838646Y-84030042*
X124838666Y-84030090*
X124998322Y-84269026*
X126283542Y-85554260*
X126283560Y-85554304*
Y-85859990*
X126330534Y-86102098*
X126330554Y-86102144*
X126408534Y-86221000*
X121042986Y-86221002*
X120702816Y-86288666*
X120702768Y-86288686*
X120414372Y-86481394*
X119513376Y-87382392*
X119456200Y-87467960*
X119422756Y-87517974*
X119356608Y-87473324*
X119356562Y-87473304*
X119106936Y-87423250*
X118193820*
X116909836Y-87423252*
X116667752Y-87470222*
X116667706Y-87470242*
X116454908Y-87610038*
X116312486Y-87821032*
X116312466Y-87821078*
X116262410Y-88070704*
Y-90267780*
X116309384Y-90509888*
X116309404Y-90509934*
X116449166Y-90722696*
X116660192Y-90865154*
X116660238Y-90865174*
X116909838Y-90915228*
X118470058Y-90915262*
X118431684Y-90972776*
X118431664Y-90972824*
X118364000Y-91313014*
Y-95884990*
X118431668Y-96225184*
X118431688Y-96225232*
X118470042Y-96282770*
X116909836Y-96282772*
X116667752Y-96329742*
X116667706Y-96329762*
X116454908Y-96469558*
X116312486Y-96680552*
X116312466Y-96680598*
X116262410Y-96930224*
Y-99127300*
X116309384Y-99369408*
X116309404Y-99369454*
X116449166Y-99582216*
X116660192Y-99724674*
X116660238Y-99724694*
X116909838Y-99774748*
X119106940Y-99774750*
X119253000Y-99746438*
X119252994Y-100083664*
X119252976Y-100083708*
X116859076Y-102477612*
X116666384Y-102765996*
X116666364Y-102766044*
X116598700Y-103106234*
X116598686Y-103205852*
X116491556Y-103364562*
X116491536Y-103364608*
X116441480Y-103614234*
Y-104411770*
X116488454Y-104653878*
X116488474Y-104653924*
X116598690Y-104821718*
X116598700Y-106732844*
X116666368Y-107073038*
X116666388Y-107073086*
X116859078Y-107361464*
X118224982Y-108727380*
X118225000Y-108727424*
X118224970Y-109642066*
X118140328Y-109607010*
X118140280Y-109607000*
X117899798Y-109607006*
X117899708Y-109607044*
X117741038Y-109765722*
X117741000Y-109765812*
X117741020Y-110489872*
X117741148Y-110490000*
X117760946Y-110490020*
X117761000Y-110490074*
X117760980Y-110743946*
X117760926Y-110744000*
X117741128Y-110744020*
X117741000Y-110744148*
X117741006Y-111468202*
X117741044Y-111468292*
X117899722Y-111626962*
X117899812Y-111627000*
X118140288Y-111626998*
X118140336Y-111626988*
X118237000Y-111586982*
X118236980Y-111648946*
X118236926Y-111649000*
X118014798Y-111649006*
X118014708Y-111649044*
X117856038Y-111807722*
X117856000Y-111807812*
X117856020Y-112408872*
X117856148Y-112409000*
X117875946Y-112409020*
X117876000Y-112409074*
X117875980Y-112658946*
X117875926Y-112659000*
X117856128Y-112659020*
X117856000Y-112659148*
X117855980Y-112680946*
X117855926Y-112681000*
X117602054Y-112680980*
X117602000Y-112680926*
Y-112659128*
X117601872Y-112659000*
X116802798Y-112659006*
X116802708Y-112659044*
X116644038Y-112817722*
X116644000Y-112817812*
X116644002Y-112910286*
X116644012Y-112910334*
X116740666Y-113143676*
X116740694Y-113143718*
X116882102Y-113285204*
X116824058Y-113323348*
X116681636Y-113534342*
X116681616Y-113534388*
X116631560Y-113784014*
Y-114283990*
X116678534Y-114526098*
X116678554Y-114526144*
X116818316Y-114738906*
X116920516Y-114807972*
X116824058Y-114871348*
X116681636Y-115082342*
X116681616Y-115082388*
X116631560Y-115332014*
Y-115831990*
X116678534Y-116074098*
X116678554Y-116074144*
X116818316Y-116286906*
X116884476Y-116331644*
X116824058Y-116371348*
X116681636Y-116582342*
X116681616Y-116582388*
X116631560Y-116832014*
Y-117331990*
X116678534Y-117574098*
X116678554Y-117574144*
X116818316Y-117786906*
X117029342Y-117929364*
X117029388Y-117929384*
X117278988Y-117979438*
X117318710Y-117979446*
X117318754Y-117979464*
X123939138Y-124599844*
X124178098Y-124759518*
X124178146Y-124759538*
X124377404Y-124799184*
X124377450Y-124799240*
Y-125386468*
X124501864Y-126011948*
X124501884Y-126011996*
X124856170Y-126542220*
X125386430Y-126896538*
X125386478Y-126896558*
X126011920Y-127020964*
X126011968*
X126637410Y-126896554*
X126637458Y-126896534*
X127167682Y-126542250*
X127477898Y-126078006*
X127477948Y-126077980*
X130663030Y-126077996*
X130663086Y-126078042*
X130706104Y-126299758*
X130706124Y-126299804*
X130845886Y-126512566*
X131056912Y-126655024*
X131056958Y-126655044*
X131306558Y-126705098*
X133107420Y-126705100*
X133349528Y-126658126*
X133349574Y-126658106*
X133562336Y-126518344*
X133704794Y-126307318*
X133704814Y-126307272*
X133750802Y-126078024*
X133750858Y-126077980*
X134907010*
X135393006Y-125981310*
X135393054Y-125981290*
X135805038Y-125706010*
X138439016Y-123072034*
X138714316Y-122660026*
X138714336Y-122659978*
X138810998Y-122174010*
X138811038Y-121487448*
X138928970Y-121663944*
X141331480Y-124066560*
X137998186Y-124066562*
X137756102Y-124113532*
X137756056Y-124113552*
X137543258Y-124253348*
X137400836Y-124464342*
X137400816Y-124464388*
X137350760Y-124714014*
Y-126745990*
X137397734Y-126988098*
X137397754Y-126988144*
X137537516Y-127200906*
X137748542Y-127343364*
X137748588Y-127343384*
X137998188Y-127393438*
X141655790Y-127393440*
X141897900Y-127346466*
X141897946Y-127346446*
X142110708Y-127206684*
X142253166Y-126995658*
X142253186Y-126995612*
X142303238Y-126746012*
X142303266Y-124777796*
X142620990Y-124840998*
X148462990Y-124841000*
X148948986Y-124744330*
X148949034Y-124744310*
X148975768Y-124726450*
X149478990Y-124726440*
X149721100Y-124679466*
X149721146Y-124679446*
X149893446Y-124566318*
X149364774Y-125094982*
X149364730Y-125095000*
X147502866Y-125095002*
X147162696Y-125162666*
X147162648Y-125162686*
X146874252Y-125355394*
X145332476Y-126897172*
X145139784Y-127185556*
X145139764Y-127185604*
X145072100Y-127525794*
X145072092Y-127707904*
X145072066Y-127707954*
X144973256Y-127773986*
X144691084Y-128196240*
X144408906Y-127773948*
X143955728Y-127471144*
X143955680Y-127471124*
X143421120Y-127364796*
X143421072*
X142886514Y-127471128*
X142886466Y-127471148*
X142433256Y-127773986*
X142130452Y-128227166*
X142130432Y-128227214*
X142024100Y-128761808*
Y-129505396*
X142130436Y-130039994*
X142130456Y-130040042*
X142433260Y-130493216*
X142886474Y-130796054*
X142886522Y-130796074*
X143421080Y-130902404*
X143421128*
X143955688Y-130796070*
X143955736Y-130796050*
X144408910Y-130493246*
X144691116Y-130070958*
X144973260Y-130493216*
X145426474Y-130796054*
X145426522Y-130796074*
X145961080Y-130902404*
X145961128*
X146495688Y-130796070*
X146495736Y-130796050*
X146948910Y-130493246*
X147231116Y-130070958*
X147513260Y-130493216*
X147966474Y-130796054*
X147966522Y-130796074*
X148501080Y-130902404*
X148501128*
X149035688Y-130796070*
X149035736Y-130796050*
X149488910Y-130493246*
X149771116Y-130070958*
X150053260Y-130493216*
X150506474Y-130796054*
X150506522Y-130796074*
X151041080Y-130902404*
X151041128*
X151575688Y-130796070*
X151575736Y-130796050*
X152028910Y-130493246*
X152311116Y-130070958*
X152593260Y-130493216*
X153046474Y-130796054*
X153046522Y-130796074*
X153581080Y-130902404*
X153581128*
X154115688Y-130796070*
X154115736Y-130796050*
X154568910Y-130493246*
X154859760Y-130058034*
X154879038Y-130123338*
X154879060Y-130123382*
X155223062Y-130549032*
X155703808Y-130810670*
X155777988Y-130825628*
X155778078Y-130825614*
X155994036Y-130703166*
X155994100Y-130703054*
X155994080Y-129260728*
X155993952Y-129260600*
X155974154Y-129260580*
X155974100Y-129260526*
X155974120Y-129006654*
X155974174Y-129006600*
X155993972Y-129006580*
X155994100Y-129006452*
X155994120Y-128986654*
X155994174Y-128986600*
X156248046Y-128986620*
X156248100Y-128986674*
X156248120Y-129006472*
X156248248Y-129006600*
X158533972Y-129006580*
X158534100Y-129006452*
X158534090Y-127564128*
X158534026Y-127564016*
X158318064Y-127441584*
X158317974Y-127441570*
X158243802Y-127456532*
X157763056Y-127718174*
X157419056Y-128143824*
X157419034Y-128143868*
X157391078Y-128238432*
X157363164Y-128143862*
X157363142Y-128143818*
X157019100Y-127718136*
X156538358Y-127456516*
X156464212Y-127441572*
X156464122Y-127441586*
X156248102Y-127564022*
X156248082Y-127398908*
X156247954Y-127398780*
X156235398Y-127398720*
X158362608Y-125271506*
X158555318Y-124983102*
X158555338Y-124983054*
X158622998Y-124642890*
X158623034Y-116984656*
X158643342Y-116998364*
X158643388Y-116998384*
X158892988Y-117048438*
X159392990Y-117048440*
X159635100Y-117001466*
X159635146Y-117001446*
X159847908Y-116861684*
X159891356Y-116797380*
X160033288Y-116939310*
X160033330Y-116939338*
X160266674Y-117035990*
X160266722Y-117036000*
X160359202Y-117035994*
X160359292Y-117035956*
X160517962Y-116877278*
X160518000Y-116877188*
X160517980Y-116078128*
X160517852Y-116078000*
X160496054Y-116077980*
X160496000Y-116077926*
X160496020Y-115824054*
X160496074Y-115824000*
X160517872Y-115823980*
X160518000Y-115823852*
X160518020Y-115804054*
X160518074Y-115804000*
X160767946Y-115804020*
X160768000Y-115804074*
X160768020Y-115823872*
X160768148Y-115824000*
X160789946Y-115824020*
X160790000Y-115824074*
X160789980Y-116077946*
X160789926Y-116078000*
X160768128Y-116078020*
X160768000Y-116078148*
X160768006Y-116877202*
X160768044Y-116877292*
X160926722Y-117035962*
X160926812Y-117036000*
X161019288Y-117035998*
X161019336Y-117035988*
X161252676Y-116939334*
X161252718Y-116939306*
X161431312Y-116760712*
X161431340Y-116760670*
X161527990Y-116527328*
X161528000Y-116527280*
X161527994Y-116236798*
X161527956Y-116236708*
X161369328Y-116078028*
X161527872Y-116077982*
X161528000Y-116077854*
X161528034Y-116049272*
X162116320Y-116637564*
X162116338Y-116637608*
X162116326Y-119775192*
X162116290Y-119775246*
X162006810Y-119820484*
X162006768Y-119820512*
X161731448Y-120095366*
X161582280Y-120454610*
X161582270Y-120454660*
X161581934Y-120843640*
X161581944Y-120843688*
X161730486Y-121203190*
X161730514Y-121203232*
X162005328Y-121478524*
X162364610Y-121627720*
X162364660Y-121627730*
X162753642Y-121628066*
X162753690Y-121628056*
X163113190Y-121479514*
X163113232Y-121479486*
X163388524Y-121204672*
X163477978Y-120989270*
X163633946Y-120833288*
X163826656Y-120544884*
X163826676Y-120544836*
X163875560Y-120299278*
Y-120506990*
X163922534Y-120749098*
X163922554Y-120749144*
X164062316Y-120961906*
X164273342Y-121104364*
X164273388Y-121104384*
X164522988Y-121154438*
X165422990Y-121154440*
X165665100Y-121107466*
X165665146Y-121107446*
X165838450Y-120993610*
X166141236Y-120993604*
X166305342Y-121104364*
X166305388Y-121104384*
X166554988Y-121154438*
X167411346Y-121154460*
X167411400Y-121154514*
X167411394Y-126623750*
X167411376Y-126623794*
X166605804Y-127429354*
X166605750Y-127429370*
X166281120Y-127364796*
X166281072*
X165746514Y-127471128*
X165746466Y-127471148*
X165293256Y-127773986*
X164990452Y-128227166*
X164990432Y-128227214*
X164884100Y-128761808*
Y-129505396*
X164990436Y-130039994*
X164990456Y-130040042*
X165293260Y-130493216*
X165746474Y-130796054*
X165746522Y-130796074*
X166281080Y-130902404*
X166281128*
X166815688Y-130796070*
X166815736Y-130796050*
X167268910Y-130493246*
X167551116Y-130070958*
X167833260Y-130493216*
X168286474Y-130796054*
X168286522Y-130796074*
X168821080Y-130902404*
X168821128*
X169355688Y-130796070*
X169355736Y-130796050*
X169808910Y-130493246*
X170091116Y-130070958*
X170373260Y-130493216*
X170826474Y-130796054*
X170826522Y-130796074*
X171361080Y-130902404*
X171361128*
X171895688Y-130796070*
X171895736Y-130796050*
X172348910Y-130493246*
X172631116Y-130070958*
X172913260Y-130493216*
X173366474Y-130796054*
X173366522Y-130796074*
X173901080Y-130902404*
X173901128*
X174435688Y-130796070*
X174435736Y-130796050*
X174888910Y-130493246*
X175171116Y-130070958*
X175453260Y-130493216*
X175906474Y-130796054*
X175906522Y-130796074*
X176441080Y-130902404*
X176441128*
X176975688Y-130796070*
X176975736Y-130796050*
X177428910Y-130493246*
X177711116Y-130070958*
X177993260Y-130493216*
X178446474Y-130796054*
X178446522Y-130796074*
X178981080Y-130902404*
X178981128*
X179515688Y-130796070*
X179515736Y-130796050*
X179968910Y-130493246*
X180271748Y-130040034*
X180271768Y-130039986*
X180378098Y-129505416*
Y-128761780*
X180271764Y-128227206*
X180271744Y-128227158*
X179968906Y-127773948*
X179515728Y-127471144*
X179515680Y-127471124*
X179070000Y-127382476*
X178981120Y-127364796*
X178981072*
X178656432Y-127429364*
X178656378Y-127429348*
X176817166Y-125590138*
X176578224Y-125430482*
X176578176Y-125430462*
X176296306Y-125374400*
X174168130Y-125374394*
X174168086Y-125374376*
X171932618Y-123138900*
X171932600Y-123138856*
X171932606Y-117780130*
X171932624Y-117780086*
X175018846Y-114693862*
X175178518Y-114454902*
X175178538Y-114454854*
X175234598Y-114173010*
X175234606Y-108636130*
X175234624Y-108636086*
X175260016Y-108610726*
X176898138Y-110248844*
X177137098Y-110408518*
X177137146Y-110408538*
X177418990Y-110464598*
X177935712Y-110464632*
X177812486Y-110649134*
X177812466Y-110649182*
X177698400Y-111222654*
Y-111281348*
X177812470Y-111854826*
X177812490Y-111854874*
X178137318Y-112341010*
X178408122Y-112522034*
X178137314Y-112702992*
X177812486Y-113189134*
X177812466Y-113189182*
X177698400Y-113762654*
Y-113821348*
X177812470Y-114394826*
X177812490Y-114394874*
X178137318Y-114881010*
X178408122Y-115062034*
X178137314Y-115242992*
X177812486Y-115729134*
X177812466Y-115729182*
X177698400Y-116302654*
Y-116361348*
X177812470Y-116934826*
X177812490Y-116934874*
X178137318Y-117421010*
X178408116Y-117601990*
X177990168Y-117983538*
X177742062Y-118512926*
X177742050Y-118512980*
X177742064Y-118513038*
X177862508Y-118744930*
X177862622Y-118745000*
X179069872Y-118744980*
X179070000Y-118744852*
X179070020Y-118725054*
X179070074Y-118725000*
X179323946Y-118725020*
X179324000Y-118725074*
X179324020Y-118744872*
X179324148Y-118745000*
X179343946Y-118745020*
X179344000Y-118745074*
X179343980Y-118998946*
X179343926Y-118999000*
X179324128Y-118999020*
X179324000Y-118999148*
X179324010Y-120205744*
X179324078Y-120205858*
X179555980Y-120326926*
X179556088Y-120326930*
X179971930Y-120154692*
X180403804Y-119760502*
X180461358Y-119637800*
X180677318Y-119961010*
X181163494Y-120285872*
X181163542Y-120285892*
X181736980Y-120399954*
X181737028*
X182310468Y-120285888*
X182310516Y-120285868*
X182796652Y-119961040*
X183121514Y-119474866*
X183121534Y-119474818*
X183235598Y-118901368*
Y-118842626*
X183121530Y-118269174*
X183121510Y-118269126*
X182796648Y-117782954*
X182525878Y-117602002*
X182796652Y-117421040*
X183121514Y-116934866*
X183121534Y-116934818*
X183235598Y-116361368*
Y-116302626*
X183121530Y-115729174*
X183121510Y-115729126*
X182796648Y-115242954*
X182525878Y-115062002*
X182796652Y-114881040*
X183121514Y-114394866*
X183121534Y-114394818*
X183235598Y-113821368*
Y-113762626*
X183121530Y-113189174*
X183121510Y-113189126*
X182809746Y-112722490*
X182842700Y-112716066*
X182842746Y-112716046*
X183055508Y-112576284*
X183197966Y-112365258*
X183197986Y-112365212*
X183248038Y-112115612*
Y-110388386*
X183201068Y-110146300*
X183201048Y-110146254*
X183061252Y-109933456*
X182850258Y-109791034*
X182850212Y-109791014*
X182600586Y-109740960*
X181902690Y-109740954*
X181902646Y-109740936*
X181368846Y-109207138*
X181129904Y-109047482*
X181129856Y-109047462*
X180847986Y-108991400*
X177724130Y-108991394*
X177724086Y-108991376*
X176377618Y-107644900*
X176377600Y-107644856*
X176377598Y-95122986*
X176321534Y-94841136*
X176321514Y-94841088*
X176161844Y-94602134*
X173593000Y-92033290*
X172556012Y-90996274*
X172582962Y-90969278*
X172583000Y-90969188*
X172582980Y-90170128*
X172582852Y-90170000*
X172561054Y-90169980*
X172561000Y-90169926*
X172561020Y-89916054*
X172561074Y-89916000*
X172582872Y-89915980*
X172583000Y-89915852*
X172583020Y-89896054*
X172583074Y-89896000*
X172832946Y-89896020*
X172833000Y-89896074*
X172833020Y-89915872*
X172833148Y-89916000*
X173434202Y-89915994*
X173434292Y-89915956*
X173592962Y-89757278*
X173593000Y-89757188*
X173592998Y-89466712*
X173592988Y-89466664*
X173496336Y-89233322*
X173496308Y-89233280*
X173391702Y-89128626*
X174050190Y-89128600*
X174332064Y-89072534*
X174332112Y-89072514*
X174571048Y-88912858*
X175145846Y-88338062*
X175215220Y-88234250*
X175317100Y-88214466*
X175317146Y-88214446*
X175529908Y-88074684*
X175672366Y-87863658*
X175672386Y-87863612*
X175722438Y-87614012*
X175722474Y-87190712*
X176910982Y-88379226*
X176911000Y-88379270*
Y-97789990*
X176978668Y-98130184*
X176978688Y-98130232*
X177171378Y-98418610*
X178498722Y-99746060*
X178012076Y-99746062*
X177769992Y-99793032*
X177769946Y-99793052*
X177557148Y-99932848*
X177414726Y-100143842*
X177414706Y-100143888*
X177364650Y-100393514*
Y-101917490*
X177411624Y-102159598*
X177411644Y-102159644*
X177551406Y-102372406*
X177762432Y-102514864*
X177762478Y-102514884*
X177977980Y-102558132*
X177754224Y-102707694*
X177451420Y-103160872*
X177451400Y-103160920*
X177345070Y-103695504*
X177451404Y-104230086*
X177451424Y-104230134*
X177754228Y-104683310*
X178176490Y-104965534*
X177754224Y-105247694*
X177451420Y-105700872*
X177451400Y-105700920*
X177345070Y-106235504*
X177451404Y-106770086*
X177451424Y-106770134*
X177754228Y-107223310*
X178207442Y-107526148*
X178207490Y-107526168*
X178742058Y-107632498*
X179281082Y-107632500*
X179815680Y-107526164*
X179815728Y-107526144*
X180268902Y-107223340*
X180549278Y-106803794*
X180742622Y-107148944*
X181173578Y-107488620*
X181173624Y-107488644*
X181701688Y-107637504*
X181701796Y-107637484*
X181922366Y-107478782*
X181922420Y-107478678*
X181922400Y-106362628*
X181922272Y-106362500*
X181902474Y-106362480*
X181902420Y-106362426*
X181902440Y-106108554*
X181902494Y-106108500*
X181922292Y-106108480*
X181922420Y-106108352*
X181922440Y-106088554*
X181922494Y-106088500*
X182176366Y-106088520*
X182176420Y-106088574*
X182176440Y-106108372*
X182176568Y-106108500*
X182196366Y-106108520*
X182196420Y-106108574*
X182196400Y-106362446*
X182196346Y-106362500*
X182176548Y-106362520*
X182176420Y-106362648*
X182176428Y-107478694*
X182176482Y-107478798*
X182397062Y-107637488*
X182397170Y-107637508*
X182925224Y-107488640*
X182925270Y-107488616*
X183338000Y-107163362*
X183337966Y-122711622*
X182788146Y-122160858*
X181967426Y-121820068*
X181967376Y-121820058*
X181078716Y-121819284*
X181078668Y-121819294*
X180257356Y-122158654*
X180257314Y-122158682*
X179628360Y-122786554*
X179287570Y-123607274*
X179287560Y-123607324*
X179286786Y-124495984*
X179286796Y-124496032*
X179626154Y-125317344*
X179626182Y-125317386*
X180254014Y-125946312*
X181074774Y-126287130*
X181074824Y-126287140*
X181963486Y-126287914*
X181963534Y-126287904*
X182784844Y-125948546*
X182784886Y-125948518*
X183338000Y-125396420*
X183337994Y-126335244*
X183337976Y-126335288*
X180998626Y-128674642*
X180850156Y-128896844*
X180850136Y-128896892*
X180798000Y-129159014*
X180797994Y-130145244*
X180797976Y-130145288*
X179929274Y-131013982*
X179929230Y-131014000*
X162598100*
X158534100*
X130729492Y-131013940*
X131343814Y-130400686*
X131684632Y-129579926*
X131684642Y-129579876*
X131685416Y-128691214*
X131685406Y-128691166*
X131346046Y-127869856*
X131346018Y-127869814*
X130718146Y-127240858*
X129897426Y-126900068*
X129897376Y-126900058*
X129008716Y-126899284*
X129008668Y-126899294*
X128187356Y-127238654*
X128187314Y-127238682*
X127558360Y-127866554*
X127217570Y-128687274*
X127217560Y-128687324*
X127216786Y-129575984*
X127216796Y-129576032*
X127556154Y-130397344*
X127556182Y-130397386*
X128171618Y-131014000*
X124390734Y-131013948*
X125004682Y-130841456*
X125004728Y-130841432*
X125507424Y-130445948*
X125820548Y-129888148*
X125851488Y-129760378*
X125851480Y-129760294*
X125732168Y-129507054*
X125732052Y-129506980*
X123388248Y-129507000*
X123388120Y-129507128*
X123388100Y-129526926*
X123388046Y-129526980*
X123134174Y-129526960*
X123134120Y-129526906*
Y-129507108*
X123133992Y-129506980*
X120790172Y-129506992*
X120790056Y-129507066*
X120670764Y-129760300*
X120670752Y-129760354*
X120701684Y-129888122*
X121014790Y-130445916*
X121517520Y-130841436*
X121517566Y-130841460*
X122131488Y-131014000*
X119882920*
X116996756Y-131013994*
X116996712Y-131013976*
X116128024Y-130145288*
X116128006Y-130145244*
G37*
%LPC*%
G36*
X116579006Y-110331202D02*
G01X116579044Y-110331292D01*
X116737722Y-110489962*
X116737812Y-110490000*
X117486912*
X117487040Y-110489872*
X117487000Y-109765812*
X117486962Y-109765722*
X117328278Y-109607038*
X117328188Y-109607000*
X117087714Y-109607002*
X117087666Y-109607012*
X116854324Y-109703664*
X116854282Y-109703692*
X116675690Y-109882286*
X116675662Y-109882328*
X116579010Y-110115672*
X116579000Y-110115720*
X116579006Y-110331202*
G37*
G36*
X116644006Y-112250202D02*
G01X116644044Y-112250292D01*
X116802722Y-112408962*
X116802812Y-112409000*
X117601912*
X117602040Y-112408872*
X117602000Y-111807812*
X117601962Y-111807722*
X117487000Y-111692750*
X117443278Y-111649038*
X117443188Y-111649000*
X117152712Y-111649002*
X117152664Y-111649012*
X116919324Y-111745664*
X116919282Y-111745692*
X116740690Y-111924288*
X116740662Y-111924330*
X116644010Y-112157672*
X116644000Y-112157720*
X116644006Y-112250202*
G37*
G36*
X117185446Y-82010202D02*
G01X117185484Y-82010292D01*
X117344162Y-82168962*
X117344252Y-82169000*
X118193732*
X118193860Y-82168872*
X118193820Y-81319432*
X118193782Y-81319342*
X118035098Y-81160658*
X118035008Y-81160620*
X117694154Y-81160622*
X117694106Y-81160632*
X117460764Y-81257284*
X117460722Y-81257312*
X117282130Y-81435906*
X117282102Y-81435948*
X117185450Y-81669292*
X117185440Y-81669340*
X117185446Y-82010202*
G37*
G36*
X117185442Y-82922668D02*
G01X117185452Y-82922716D01*
X117282106Y-83156056*
X117282134Y-83156098*
X117460728Y-83334690*
X117460770Y-83334718*
X117694114Y-83431370*
X117694162Y-83431380*
X118035022Y-83431374*
X118035112Y-83431336*
X118193816Y-83272680*
X118193854Y-83272590*
X118193820Y-82423128*
X118193692Y-82423000*
X117344238Y-82423006*
X117344148Y-82423044*
X117185478Y-82581722*
X117185440Y-82581812*
X117185442Y-82922668*
G37*
G36*
X118375450Y-123951872D02*
G01X118375578Y-123952000D01*
X119882832*
X119882960Y-123951872*
X119882920Y-121608068*
X119882846Y-121607952*
X119629600Y-121488642*
X119629516Y-121488634*
X119501746Y-121519574*
X118943946Y-121832702*
X118548464Y-122335398*
X118548440Y-122335444*
X118375430Y-122951260*
X118375450Y-123951872*
G37*
G36*
X118548444Y-125822560D02*
G01X118548468Y-125822606D01*
X118943952Y-126325304*
X119501752Y-126638426*
X119629528Y-126669362*
X119629612Y-126669354*
X119882874Y-126550076*
X119882948Y-126549960*
X119882920Y-124206128*
X119882792Y-124206000*
X118375558Y-124206020*
X118375430Y-124206148*
Y-125206746*
X118548444Y-125822560*
G37*
G36*
X118447840Y-82168872D02*
G01X118447968Y-82169000D01*
X119297402Y-82168994*
X119297492Y-82168956*
X119456196Y-82010300*
X119456234Y-82010210*
X119456198Y-81669332*
X119456188Y-81669284*
X119359536Y-81435942*
X119359508Y-81435900*
X119180912Y-81257308*
X119180870Y-81257280*
X118947528Y-81160630*
X118947480Y-81160620*
X118606618Y-81160626*
X118606528Y-81160664*
X118447858Y-81319342*
X118447820Y-81319432*
X118447840Y-82168872*
G37*
G36*
X118447826Y-83272582D02*
G01X118447864Y-83272672D01*
X118606542Y-83431342*
X118606632Y-83431380*
X118947488Y-83431378*
X118947536Y-83431368*
X119180870Y-83334718*
X119180912Y-83334690*
X119359512Y-83156092*
X119456230Y-82922714*
X119456240Y-82922664*
X119456200Y-82581804*
X119456162Y-82581714*
X119297478Y-82423038*
X119297388Y-82423000*
X118447948Y-82423020*
X118447820Y-82423148*
X118447826Y-83272582*
G37*
G36*
X120136940Y-123951872D02*
G01X120137068Y-123952000D01*
X121644322*
X121644450Y-123951872*
X121644406Y-122951226*
X121471398Y-122335438*
X121471374Y-122335392*
X121075850Y-121832664*
X120518058Y-121519560*
X120390312Y-121488636*
X120390228Y-121488644*
X120136994Y-121607952*
X120136920Y-121608068*
X120136940Y-123951872*
G37*
G36*
X120136932Y-126549948D02*
G01X120137006Y-126550064D01*
X120390240Y-126669356*
X120390324Y-126669364*
X120518058Y-126638438*
X121075856Y-126325330*
X121471378Y-125822600*
X121471402Y-125822554*
X121644446Y-125206776*
X121644410Y-124206128*
X121644282Y-124206000*
X120137048Y-124206020*
X120136920Y-124206148*
X120136932Y-126549948*
G37*
G36*
X120670766Y-128999672D02*
G01X120790074Y-129252906D01*
X120790190Y-129252980*
X123134032*
X123134160Y-129252852*
X123134120Y-127745638*
X123133992Y-127745510*
X122133340Y-127745494*
X121644410Y-127882862*
X121517560Y-127918502*
X121517514Y-127918526*
X121014784Y-128314050*
X120701682Y-128871844*
X120670754Y-128999618*
X120670766Y-128999672*
G37*
G36*
X123388140Y-129252852D02*
G01X123388268Y-129252980D01*
X125732070Y-129252968*
X125732186Y-129252894*
X125851478Y-128999676*
X125851486Y-128999592*
X125820546Y-128871806*
X125507418Y-128314006*
X125004722Y-127918522*
X125004676Y-127918498*
X124388860Y-127745490*
X123388248Y-127745510*
X123388120Y-127745638*
X123388140Y-129252852*
G37*
G36*
X156248110Y-130703072D02*
G01X156248174Y-130703184D01*
X156464136Y-130825616*
X156464226Y-130825630*
X156538364Y-130810682*
X157019106Y-130549058*
X157363146Y-130123376*
X157363168Y-130123332*
X157391122Y-130028768*
X157419038Y-130123338*
X157419060Y-130123382*
X157763062Y-130549032*
X158243808Y-130810670*
X158317988Y-130825628*
X158318078Y-130825614*
X158534066Y-130703196*
X158534130Y-130703084*
X158534080Y-129260728*
X158533952Y-129260600*
X156248228Y-129260620*
X156248100Y-129260748*
X156248110Y-130703072*
G37*
G36*
X158788110D02*
G01X158788174Y-130703184D01*
X159004136Y-130825616*
X159004226Y-130825630*
X159078364Y-130810682*
X159559106Y-130549058*
X159903146Y-130123376*
X159903168Y-130123332*
X159922476Y-130058028*
X160213260Y-130493216*
X160666474Y-130796054*
X160666522Y-130796074*
X161201080Y-130902404*
X161201128*
X161735680Y-130796074*
X161735728Y-130796054*
X162188910Y-130493246*
X162491748Y-130040034*
X162491768Y-130039986*
X162598138Y-129505418*
X162598098Y-128761780*
X162491764Y-128227206*
X162491744Y-128227158*
X162188906Y-127773948*
X161735728Y-127471144*
X161735680Y-127471124*
X161201120Y-127364796*
X161201072*
X160666514Y-127471128*
X160666466Y-127471148*
X160213256Y-127773986*
X159922440Y-128209164*
X159903164Y-128143862*
X159903142Y-128143818*
X159559100Y-127718136*
X159078358Y-127456516*
X159004212Y-127441572*
X159004122Y-127441586*
X158788164Y-127564034*
X158788100Y-127564146*
X158788120Y-129006472*
X158788248Y-129006600*
X158808046Y-129006620*
X158808100Y-129006674*
X158808080Y-129260546*
X158808026Y-129260600*
X158788228Y-129260620*
X158788100Y-129260748*
X158788110Y-130703072*
G37*
G36*
X172833006Y-90969202D02*
G01X172833044Y-90969292D01*
X172991722Y-91127962*
X172991812Y-91128000*
X173084288Y-91127998*
X173084336Y-91127988*
X173317670Y-91031338*
X173317712Y-91031310*
X173496312Y-90852712*
X173593030Y-90619334*
X173593040Y-90619284*
X173592994Y-90328798*
X173592956Y-90328708*
X173434278Y-90170038*
X173434188Y-90170000*
X172833128Y-90170020*
X172833000Y-90170148*
X172833006Y-90969202*
G37*
G36*
X177742062Y-119231090D02*
G01X177990172Y-119760468D01*
X178422040Y-120154672*
X178837930Y-120326930*
X178838038Y-120326926*
X179069962Y-120205870*
X179070030Y-120205756*
X179069980Y-118999128*
X179069852Y-118999000*
X177862604Y-118999010*
X177862490Y-118999080*
X177742064Y-119230978*
X177742050Y-119231036*
X177742062Y-119231090*
G37*
G36*
X116579002Y-111118288D02*
G01X116579012Y-111118336D01*
X116675666Y-111351676*
X116675694Y-111351718*
X116854288Y-111530310*
X116854330Y-111530338*
X117087674Y-111626990*
X117087722Y-111627000*
X117328202Y-111626994*
X117328292Y-111626956*
X117486996Y-111468300*
X117487034Y-111468210*
X117487000Y-110744128*
X117486872Y-110744000*
X116737798Y-110744006*
X116737708Y-110744044*
X116579038Y-110902722*
X116579000Y-110902812*
X116579002Y-111118288*
G37*
%LPD*%
G36*
X167735000Y-109346926D02*
G01X167735020Y-109093054D01*
X167735074Y-109093000*
X167754872Y-109092980*
X167755000Y-109092852*
X167755020Y-109073054*
X167755074Y-109073000*
X168008946Y-109073020*
X168009000Y-109073074*
X168009020Y-109092872*
X168009148Y-109093000*
X168758202Y-109092994*
X168758292Y-109092956*
X168916962Y-108934278*
X168917000Y-108934188*
X168916998Y-108718712*
X168916988Y-108718664*
X168820336Y-108485322*
X168820308Y-108485280*
X168781542Y-108446466*
X169417946Y-108446460*
X169418000Y-108446514*
X169417980Y-109981946*
X169417926Y-109982000*
X168793088Y-109981940*
X168820312Y-109954712*
X168820340Y-109954670*
X168916990Y-109721328*
X168917000Y-109721280*
X168916994Y-109505798*
X168916956Y-109505708*
X168758278Y-109347038*
X168758188Y-109347000*
X168009128Y-109347020*
X168009000Y-109347148*
X168008980Y-109366946*
X168008926Y-109367000*
X167755054Y-109366980*
X167755000Y-109366926*
X167754980Y-109347128*
X167754852Y-109347000*
X167735054Y-109346980*
X167735000Y-109346926*
G37*
G36*
X155536756Y-110274104D02*
G01X155536976Y-110050910D01*
X155828990Y-110108998*
X158888946Y-110109020*
X158889000Y-110109074*
X158888980Y-111405154*
X158669634Y-111185448*
X158310390Y-111036280*
X158310340Y-111036270*
X157921360Y-111035932*
X157921312Y-111035942*
X157644282Y-111150400*
X156426042Y-111150380*
X156425988Y-111150328*
X156426068Y-111058358*
X156426058Y-111058310*
X156277516Y-110698810*
X156277488Y-110698768*
X156002634Y-110423448*
X155643390Y-110274280*
X155643340Y-110274270*
X155536810Y-110274156*
X155536756Y-110274104*
G37*
G36*
X149496780Y-105689136D02*
G01X149496786Y-105417950D01*
X149496804Y-105417906*
X149999846Y-104914862*
X150159518Y-104675902*
X150159538Y-104675854*
X150215598Y-104394010*
X150215606Y-103937130*
X150215624Y-103937086*
X150747372Y-103405336*
X150774400Y-103364964*
Y-103377990*
X150830466Y-103659862*
X150830486Y-103659910*
X150990142Y-103898846*
X151282382Y-104191100*
X151282400Y-104191144*
Y-104901990*
X151338466Y-105183862*
X151338486Y-105183910*
X151498142Y-105422846*
X151747068Y-105671880*
X151610046Y-105671882*
X151509346Y-105691414*
X151411926Y-105671880*
X151112206Y-105671882*
X151010214Y-105691664*
X150911546Y-105671880*
X150611826Y-105671882*
X150509834Y-105691664*
X150411166Y-105671880*
X150111446Y-105671882*
X150009454Y-105691664*
X149910786Y-105671880*
X149611066Y-105671882*
X149509074Y-105691664*
X149496824Y-105689192*
X149496780Y-105689136*
G37*
G36*
X160691036Y-112697766D02*
G01X160691056Y-111760054D01*
X160691110Y-111760000*
X169798990*
X170139184Y-111692332*
X170139232Y-111692312*
X170332400Y-111563282*
X170332394Y-113740870*
X170332376Y-113740914*
X167627140Y-116446154*
X167467482Y-116685096*
X167467462Y-116685144*
X167411400Y-116967014*
X167411380Y-117871946*
X167411326Y-117872000*
X167290798Y-117872006*
X167290708Y-117872044*
X167132038Y-118030722*
X167132000Y-118030812*
X167132020Y-118631872*
X167132148Y-118632000*
X167151946Y-118632020*
X167152000Y-118632074*
X167151980Y-118881946*
X167151926Y-118882000*
X167132128Y-118882020*
X167132000Y-118882148*
X167131980Y-118903946*
X167131926Y-118904000*
X166878054Y-118903980*
X166878000Y-118903926*
X166877980Y-118882128*
X166877852Y-118882000*
X166858054Y-118881980*
X166858000Y-118881926*
X166858020Y-118632054*
X166858074Y-118632000*
X166877872Y-118631980*
X166878000Y-118631852*
X166877994Y-118030798*
X166877956Y-118030708*
X166719278Y-117872038*
X166719188Y-117872000*
X166428712Y-117872002*
X166428664Y-117872012*
X166195324Y-117968664*
X166195282Y-117968692*
X166016662Y-118147328*
X165989412Y-118213036*
X165883652Y-118052056*
X165672658Y-117909634*
X165672612Y-117909614*
X165422986Y-117859560*
X164522986Y-117859562*
X164479486Y-117868000*
X164083256Y-117867994*
X164083212Y-117867976*
X163894356Y-117679112*
X163894338Y-117679068*
X163894336Y-116269324*
X163826672Y-115929154*
X163826652Y-115929106*
X163633944Y-115640710*
X160691054Y-112697810*
X160691036Y-112697766*
G37*
G36*
X140889054Y-117797218D02*
G01X140975608Y-117710626D01*
X141168318Y-117422222*
X141168338Y-117422174*
X141235998Y-117082010*
X141236030Y-116798932*
X141320674Y-116833990*
X141320722Y-116834000*
X141561202Y-116833994*
X141561292Y-116833956*
X141719962Y-116675278*
X141720000Y-116675188*
X141719980Y-115951128*
X141719852Y-115951000*
X141700054Y-115950980*
X141700000Y-115950926*
X141700020Y-115697054*
X141700074Y-115697000*
X141719872Y-115696980*
X141720000Y-115696852*
X141719994Y-114972798*
X141719956Y-114972708*
X141561278Y-114814038*
X141561188Y-114814000*
X141320714Y-114814002*
X141320666Y-114814012*
X141236000Y-114849046*
X141236020Y-114150194*
X141236074Y-114150140*
X144259946Y-114150160*
X144260000Y-114150214*
X144259970Y-114849066*
X144175328Y-114814010*
X144175280Y-114814000*
X143934798Y-114814006*
X143934708Y-114814044*
X143776038Y-114972722*
X143776000Y-114972812*
X143776020Y-115696872*
X143776148Y-115697000*
X143795946Y-115697020*
X143796000Y-115697074*
X143795980Y-115950946*
X143795926Y-115951000*
X143776128Y-115951020*
X143776000Y-115951148*
X143776006Y-116675202*
X143776044Y-116675292*
X143934722Y-116833962*
X143934812Y-116834000*
X144175288Y-116833998*
X144175336Y-116833988*
X144408676Y-116737334*
X144408718Y-116737308*
X144409994Y-116736054*
X144499342Y-116796364*
X144499388Y-116796384*
X144748988Y-116846438*
X145548990Y-116846440*
X145791100Y-116799466*
X145791146Y-116799446*
X146003908Y-116659684*
X146146366Y-116448658*
X146146386Y-116448612*
X146196438Y-116199012*
Y-115448986*
X146149468Y-115206900*
X146149448Y-115206854*
X146038000Y-115037168*
X146038020Y-114150194*
X146038074Y-114150140*
X154294884Y-114150146*
X154294928Y-114150164*
X155195798Y-115051094*
X155008390Y-114973280*
X155008340Y-114973270*
X154619360Y-114972932*
X154619312Y-114972942*
X154259810Y-115121484*
X154259768Y-115121512*
X154058000Y-115322880*
X154057998Y-115322710*
X154057988Y-115322664*
X153961336Y-115089322*
X153961308Y-115089280*
X153782712Y-114910688*
X153782670Y-114910660*
X153549328Y-114814010*
X153549280Y-114814000*
X153308798Y-114814006*
X153308708Y-114814044*
X153150038Y-114972722*
X153150000Y-114972812*
X153150020Y-115696872*
X153150148Y-115697000*
X153169946Y-115697020*
X153170000Y-115697074*
X153169980Y-115950946*
X153169926Y-115951000*
X153150128Y-115951020*
X153150000Y-115951148*
X153150006Y-116675202*
X153150044Y-116675292*
X153308722Y-116833962*
X153308812Y-116834000*
X153549288Y-116833998*
X153549336Y-116833988*
X153782676Y-116737334*
X153782718Y-116737306*
X153961312Y-116558712*
X153983802Y-116504520*
X154258328Y-116779524*
X154617610Y-116928720*
X154617660Y-116928730*
X154749114Y-116928850*
X154749158Y-116928868*
X156108382Y-118288100*
X156108400Y-118288144*
X156108374Y-118813848*
X156082986Y-118808760*
X154050986Y-118808762*
X153808902Y-118855732*
X153808856Y-118855752*
X153596058Y-118995548*
X153453636Y-119206542*
X153453616Y-119206588*
X153403560Y-119456214*
Y-123113790*
X153450534Y-123355898*
X153450554Y-123355944*
X153590316Y-123568706*
X153801342Y-123711164*
X153801388Y-123711184*
X154050988Y-123761238*
X156082990Y-123761240*
X156108400Y-123756336*
X156108394Y-123773870*
X156108376Y-123773914*
X153944020Y-125938262*
X153943976Y-125938280*
X151036018Y-125938220*
X152151608Y-124822626*
X152344318Y-124534224*
X152344338Y-124534176*
X152411998Y-124194010*
X152412002Y-121696384*
X152500720Y-121482712*
X152500730Y-121482662*
X152501068Y-121093680*
X152501058Y-121093632*
X152412000Y-120878076*
X152412030Y-116798932*
X152496674Y-116833990*
X152496722Y-116834000*
X152737202Y-116833994*
X152737292Y-116833956*
X152895962Y-116675278*
X152896000Y-116675188*
X152895980Y-115951128*
X152895852Y-115951000*
X152876054Y-115950980*
X152876000Y-115950926*
X152876020Y-115697054*
X152876074Y-115697000*
X152895872Y-115696980*
X152896000Y-115696852*
X152895994Y-114972798*
X152895956Y-114972708*
X152737278Y-114814038*
X152737188Y-114814000*
X152496714Y-114814002*
X152496666Y-114814012*
X152263324Y-114910664*
X152263282Y-114910690*
X152262006Y-114911944*
X152172658Y-114851634*
X152172612Y-114851614*
X151922986Y-114801560*
X151122986Y-114801562*
X150880902Y-114848532*
X150880856Y-114848552*
X150749228Y-114935000*
X150494138Y-114934986*
X150370658Y-114851634*
X150370612Y-114851614*
X150120986Y-114801560*
X149320986Y-114801562*
X149078902Y-114848532*
X149078856Y-114848552*
X148982108Y-114912080*
X148980712Y-114910688*
X148980670Y-114910660*
X148747328Y-114814010*
X148747280Y-114814000*
X148506798Y-114814006*
X148506708Y-114814044*
X148348038Y-114972722*
X148348000Y-114972812*
X148348020Y-115696872*
X148348148Y-115697000*
X148367946Y-115697020*
X148368000Y-115697074*
X148367980Y-115950946*
X148367926Y-115951000*
X148348128Y-115951020*
X148348000Y-115951148*
X148348006Y-116675202*
X148348044Y-116675292*
X148506722Y-116833962*
X148506812Y-116834000*
X148747288Y-116833998*
X148747336Y-116833988*
X148980676Y-116737334*
X148980718Y-116737308*
X148981994Y-116736054*
X149071342Y-116796364*
X149071388Y-116796384*
X149320988Y-116846438*
X150120990Y-116846440*
X150363100Y-116799466*
X150363146Y-116799446*
X150494738Y-116713010*
X150633946Y-116713020*
X150634000Y-116713074*
X150633980Y-120395946*
X150633926Y-120396000*
X149988262Y-120395990*
X149988214Y-120395964*
X149939652Y-120322056*
X149728658Y-120179634*
X149728612Y-120179614*
X149541288Y-120142000*
X149605288Y-120141998*
X149605336Y-120141988*
X149838678Y-120045334*
X149838720Y-120045306*
X150017312Y-119866712*
X150017340Y-119866670*
X150113990Y-119633326*
X150114000Y-119633278*
Y-119284804*
X150113962Y-119284714*
X149955278Y-119126038*
X149955188Y-119126000*
X148590128Y-119126020*
X148590000Y-119126148*
X148589980Y-119145946*
X148589926Y-119146000*
X148336054Y-119145980*
X148336000Y-119145926*
Y-119126128*
X148335872Y-119126000*
X146970798Y-119126006*
X146970708Y-119126044*
X146812038Y-119284722*
X146812000Y-119284812*
X146812002Y-119633286*
X146812012Y-119633334*
X146908666Y-119866676*
X146908694Y-119866718*
X147087288Y-120045310*
X147087330Y-120045338*
X147320672Y-120141990*
X147320720Y-120142000*
X147382634Y-120142050*
X147204902Y-120176532*
X147204856Y-120176552*
X146992058Y-120316348*
X146849636Y-120527342*
X146849616Y-120527388*
X146799560Y-120777014*
Y-121792990*
X146846534Y-122035098*
X146846554Y-122035144*
X146986316Y-122247906*
X147064832Y-122301000*
X143522000*
X143256000*
X143158146Y-122300994*
X143158102Y-122300976*
X141634202Y-120777026*
X141827202Y-120776994*
X141827292Y-120776956*
X141985962Y-120618278*
X141986000Y-120618188*
X141985980Y-119253128*
X141985852Y-119253000*
X141966054Y-119252980*
X141966000Y-119252926*
X141966020Y-118999054*
X141966074Y-118999000*
X141985872Y-118998980*
X141986000Y-118998852*
X141985994Y-117633798*
X141985956Y-117633708*
X141827278Y-117475038*
X141827188Y-117475000*
X141478714Y-117475002*
X141478666Y-117475012*
X141245324Y-117571664*
X141245282Y-117571692*
X141066690Y-117750286*
X141066662Y-117750328*
X140970010Y-117983672*
X140970000Y-117983720*
X140969958Y-118045666*
X140935468Y-117867900*
X140935448Y-117867854*
X140889054Y-117797218*
G37*
G36*
X118573514Y-116332404D02*
G01X118633908Y-116292684D01*
X118710244Y-116179626*
X118710294Y-116179600*
X120013292Y-116179628*
X119969010Y-116286672*
X119969000Y-116286720*
X119969006Y-116427202*
X119969044Y-116427292*
X120127722Y-116585962*
X120127812Y-116586000*
X121251872Y-116585980*
X121252000Y-116585852*
X121252020Y-116566054*
X121252074Y-116566000*
X121505946Y-116566020*
X121506000Y-116566074*
X121506020Y-116585872*
X121506148Y-116586000*
X122630202Y-116585994*
X122630292Y-116585956*
X122788962Y-116427278*
X122789000Y-116427188*
X122788998Y-116286712*
X122788988Y-116286664*
X122699222Y-116069916*
X122751366Y-115992658*
X122751386Y-115992612*
X122801438Y-115743012*
Y-115142986*
X122754468Y-114900900*
X122754448Y-114900854*
X122693622Y-114808230*
X122751366Y-114722658*
X122751386Y-114722612*
X122801438Y-114473012*
X122801474Y-114445186*
X125356542Y-117000260*
X125356560Y-117000304*
Y-117012990*
X125403534Y-117255098*
X125403554Y-117255144*
X125543316Y-117467906*
X125754342Y-117610364*
X125754388Y-117610384*
X126003988Y-117660438*
X127553990Y-117660440*
X127796100Y-117613466*
X127796146Y-117613446*
X128008908Y-117473684*
X128151366Y-117262658*
X128151386Y-117262612*
X128201438Y-117013012*
Y-116412986*
X128154468Y-116170900*
X128154448Y-116170854*
X128093622Y-116078230*
X128151366Y-115992658*
X128151386Y-115992612*
X128201438Y-115743012*
Y-115142986*
X128154468Y-114900900*
X128154448Y-114900854*
X128093622Y-114808230*
X128151366Y-114722658*
X128151386Y-114722612*
X128201438Y-114473012*
Y-113872986*
X128185758Y-113792042*
X128185802Y-113792000*
X130759406Y-113792020*
X130759460Y-113792074*
Y-114561610*
X130806432Y-114803718*
X130806452Y-114803764*
X130946216Y-115016526*
X131010946Y-115060262*
X130868590Y-115202668*
X130868562Y-115202710*
X130771910Y-115436052*
X130771900Y-115436100*
X130771906Y-116577062*
X130771944Y-116577152*
X130930622Y-116735822*
X130930712Y-116735860*
X132079872Y-116735840*
X132080000Y-116735712*
X132080020Y-116715914*
X132080074Y-116715860*
X132333946Y-116715880*
X132334000Y-116715934*
X132334020Y-116735732*
X132334148Y-116735860*
X133483302Y-116735854*
X133483392Y-116735816*
X133642062Y-116577138*
X133642100Y-116577048*
X133642098Y-115436092*
X133642088Y-115436044*
X133545434Y-115202704*
X133545406Y-115202662*
X133403526Y-115060740*
X133462008Y-115022304*
X133604466Y-114811278*
X133604486Y-114811232*
X133654538Y-114561632*
X133654560Y-114150194*
X133654614Y-114150140*
X139457946Y-114150160*
X139458000Y-114150214*
X139457986Y-115038826*
X139349636Y-115199342*
X139349616Y-115199388*
X139319300Y-115350354*
X139291468Y-115206900*
X139291448Y-115206854*
X139151652Y-114994056*
X138940658Y-114851634*
X138940612Y-114851614*
X138690986Y-114801560*
X137890986Y-114801562*
X137648902Y-114848532*
X137648856Y-114848552*
X137552108Y-114912080*
X137550712Y-114910688*
X137550670Y-114910660*
X137317328Y-114814010*
X137317280Y-114814000*
X137076798Y-114814006*
X137076708Y-114814044*
X136918038Y-114972722*
X136918000Y-114972812*
X136918020Y-115696872*
X136918148Y-115697000*
X136937946Y-115697020*
X136938000Y-115697074*
X136937980Y-115950946*
X136937926Y-115951000*
X136918128Y-115951020*
X136918000Y-115951148*
X136918006Y-116675202*
X136918044Y-116675292*
X137076722Y-116833962*
X137076812Y-116834000*
X137317288Y-116833998*
X137317336Y-116833988*
X137448634Y-116779654*
X137020140Y-117208154*
X136860482Y-117447096*
X136860462Y-117447144*
X136850344Y-117497960*
X136850298Y-117498008*
X136790902Y-117509532*
X136790856Y-117509552*
X136664000Y-117592880*
X136578058Y-117649348*
X136435636Y-117860342*
X136435616Y-117860388*
X136385560Y-118110014*
X136385546Y-118613244*
X136367686Y-118639974*
X136367666Y-118640022*
X136271000Y-119126014*
X136270994Y-121647928*
X136270976Y-121647972*
X134380978Y-123537962*
X134380934Y-123537980*
X133750968Y-123537964*
X133750912Y-123537918*
X133742430Y-123494184*
X133707898Y-123316200*
X133707878Y-123316154*
X133568082Y-123103356*
X133357088Y-122960934*
X133357042Y-122960914*
X133107416Y-122910860*
X132080000*
X131306556Y-122910862*
X131064472Y-122957832*
X131064426Y-122957852*
X130851628Y-123097648*
X130709206Y-123308642*
X130709186Y-123308688*
X130663198Y-123537936*
X130663142Y-123537980*
X127646484Y-123537960*
X127646430Y-123537906*
X127646428Y-122771506*
X127522016Y-122146050*
X127521996Y-122146002*
X127167678Y-121615746*
X126637450Y-121261460*
X126637402Y-121261440*
X126011960Y-121137034*
X126011912*
X125386470Y-121261444*
X125386422Y-121261464*
X124856166Y-121615784*
X124501880Y-122146010*
X124501860Y-122146058*
X124377450Y-122771534*
X124377416Y-122954704*
X122789000Y-121366290*
X121252000Y-119829290*
X118814466Y-117391724*
X118826438Y-117332012*
Y-116831986*
X118779468Y-116589900*
X118779448Y-116589854*
X118639652Y-116377056*
X118573514Y-116332404*
G37*
G36*
X125830342Y-92064814D02*
G01X127159342Y-90735788D01*
X127228342Y-90782364*
X127228388Y-90782384*
X127477988Y-90832438*
X128177990Y-90832440*
X128420098Y-90785466*
X128420144Y-90785446*
X128632908Y-90645684*
X128775364Y-90434658*
X128775384Y-90434612*
X128777238Y-90425572*
X128777534Y-90427098*
X128777554Y-90427144*
X128917316Y-90639906*
X129128342Y-90782364*
X129128388Y-90782384*
X129377988Y-90832438*
X130077990Y-90832440*
X130320100Y-90785466*
X130320146Y-90785446*
X130532908Y-90645684*
X130665410Y-90449438*
X130817810Y-90512720*
X130817860Y-90512730*
X131206842Y-90513066*
X131206890Y-90513056*
X131566390Y-90364514*
X131566432Y-90364486*
X131841724Y-90089672*
X131990920Y-89730390*
X131990930Y-89730340*
X131991054Y-89619044*
X132206980Y-89661996*
X132207028*
X132267318Y-89650002*
X134381904Y-89650000*
X134423988Y-89658438*
X135323990Y-89658440*
X135367490Y-89650002*
X136413904Y-89650000*
X136455988Y-89658438*
X137355990Y-89658440*
X137598100Y-89611466*
X137598146Y-89611446*
X137810908Y-89471684*
X137953366Y-89260658*
X137953386Y-89260612*
X138003438Y-89011012*
Y-88510986*
X137956468Y-88268900*
X137956448Y-88268854*
X137816652Y-88056056*
X137750524Y-88011388*
X137810908Y-87971684*
X137953366Y-87760658*
X137953386Y-87760612*
X138003438Y-87511012*
Y-87010986*
X137956468Y-86768900*
X137956448Y-86768854*
X137816652Y-86556056*
X137642626Y-86438578*
X137642600Y-86438528*
X137642608Y-82340430*
X137642634Y-82340380*
X137804910Y-82231952*
X138088386Y-81807764*
X138371800Y-82231922*
X138429974Y-82270812*
X138430000Y-82270862*
X138429986Y-86614862*
X138346636Y-86738342*
X138346616Y-86738388*
X138296560Y-86988014*
Y-87787990*
X138343534Y-88030098*
X138343554Y-88030144*
X138407066Y-88126908*
X138405690Y-88128288*
X138405662Y-88128330*
X138309010Y-88361672*
X138309000Y-88361720*
X138309006Y-88602202*
X138309044Y-88602292*
X138467722Y-88760962*
X138467812Y-88761000*
X139191872Y-88760980*
X139192000Y-88760852*
X139192020Y-88741054*
X139192074Y-88741000*
X139445946Y-88741020*
X139446000Y-88741074*
X139446020Y-88760872*
X139446148Y-88761000*
X140170202Y-88760994*
X140170292Y-88760956*
X140328962Y-88602278*
X140329000Y-88602188*
X140328998Y-88361712*
X140328988Y-88361664*
X140293966Y-88277038*
X140630014Y-88277028*
X140595010Y-88361672*
X140595000Y-88361720*
X140595006Y-88602202*
X140595044Y-88602292*
X140753722Y-88760962*
X140753812Y-88761000*
X141477872Y-88760980*
X141478000Y-88760852*
X141478020Y-88741054*
X141478074Y-88741000*
X141731946Y-88741020*
X141732000Y-88741074*
X141732020Y-88760872*
X141732148Y-88761000*
X142456202Y-88760994*
X142456292Y-88760956*
X142614962Y-88602278*
X142615000Y-88602188*
X142614998Y-88361712*
X142614988Y-88361664*
X142518336Y-88128324*
X142518310Y-88128282*
X142517064Y-88126988*
X142577366Y-88037658*
X142577386Y-88037612*
X142627438Y-87788012*
Y-86987986*
X142580468Y-86745900*
X142580448Y-86745854*
X142440652Y-86533056*
X142229658Y-86390634*
X142229612Y-86390614*
X141979986Y-86340560*
X141229986Y-86340562*
X140987902Y-86387532*
X140987856Y-86387552*
X140818170Y-86499000*
X140208054Y-86498980*
X140208000Y-86498926*
X140208008Y-82325154*
X140208034Y-82325104*
X140347450Y-82231952*
X140636532Y-81799382*
X140655038Y-81862068*
X140655060Y-81862112*
X140999062Y-82287762*
X141479808Y-82549400*
X141553988Y-82564358*
X141554078Y-82564344*
X141770036Y-82441896*
X141770100Y-82441784*
X141770080Y-81000728*
X141769952Y-81000600*
X141750154Y-81000580*
X141750100Y-81000526*
X141750120Y-80746654*
X141750174Y-80746600*
X141769972Y-80746580*
X141770100Y-80746452*
X141770090Y-79305398*
X141770026Y-79305286*
X141554064Y-79182854*
X141553974Y-79182840*
X141479802Y-79197802*
X140999056Y-79459444*
X140655056Y-79885092*
X140655034Y-79885136*
X140636496Y-79947822*
X140347446Y-79515244*
X139894268Y-79212440*
X139894220Y-79212420*
X139359660Y-79106092*
X139359612*
X138825054Y-79212424*
X138825006Y-79212444*
X138371796Y-79515282*
X138088354Y-79939434*
X137804906Y-79515244*
X137351728Y-79212440*
X137351680Y-79212420*
X136817120Y-79106092*
X136817072*
X136282514Y-79212424*
X136282466Y-79212444*
X135829256Y-79515282*
X135547084Y-79937534*
X135264906Y-79515244*
X134811728Y-79212440*
X134811680Y-79212420*
X134277120Y-79106092*
X134277072*
X133742514Y-79212424*
X133742466Y-79212444*
X133289256Y-79515282*
X132986452Y-79968460*
X132986432Y-79968508*
X132914204Y-80331450*
X132616046Y-79609856*
X132616018Y-79609814*
X132051264Y-79044026*
X179929244Y-79044006*
X179929288Y-79044024*
X180797982Y-79912726*
X180798000Y-79912770*
Y-91058990*
X180850140Y-91321116*
X180850160Y-91321164*
X180998628Y-91543360*
X183337982Y-93882726*
X183338000Y-93882770*
X183337966Y-94771622*
X182788146Y-94220858*
X181967426Y-93880068*
X181967376Y-93880058*
X181078716Y-93879284*
X181078668Y-93879294*
X180257356Y-94218654*
X180257314Y-94218682*
X179628360Y-94846554*
X179287570Y-95667274*
X179287560Y-95667324*
X179286786Y-96555984*
X179286796Y-96556032*
X179626154Y-97377344*
X179626182Y-97377386*
X180254014Y-98006312*
X180956296Y-98298000*
X179565256Y-98297994*
X179565212Y-98297976*
X178689018Y-97421774*
X178689000Y-97421730*
X178688998Y-88010986*
X178621334Y-87670816*
X178621314Y-87670768*
X178428606Y-87382372*
X176337420Y-85291178*
X176300114Y-85235366*
X176011742Y-85042682*
X176011694Y-85042662*
X175671504Y-84975000*
X175117070Y-84974998*
X175074986Y-84966560*
X174174986Y-84966562*
X174131486Y-84975000*
X171942070Y-84974998*
X171899986Y-84966560*
X171599212Y-84966500*
X171870100Y-84695618*
X171870144Y-84695600*
X172263558*
X172545432Y-84639534*
X172545480Y-84639514*
X172784416Y-84479858*
X174421946Y-82842330*
X174581618Y-82603370*
X174581638Y-82603322*
X174619730Y-82411834*
X174888910Y-82231952*
X175171116Y-81809664*
X175453260Y-82231922*
X175906474Y-82534760*
X175906522Y-82534780*
X176441080Y-82641108*
X176441128*
X176975688Y-82534776*
X176975736Y-82534756*
X177428910Y-82231952*
X177711116Y-81809664*
X177993260Y-82231922*
X178446474Y-82534760*
X178446522Y-82534780*
X178981080Y-82641108*
X178981128*
X179515688Y-82534776*
X179515736Y-82534756*
X179968910Y-82231952*
X180271748Y-81778738*
X180271768Y-81778690*
X180378098Y-81244122*
Y-80503074*
X180271764Y-79968500*
X180271744Y-79968452*
X179968906Y-79515244*
X179515728Y-79212440*
X179515680Y-79212420*
X178981120Y-79106092*
X178981072*
X178446514Y-79212424*
X178446466Y-79212444*
X177993256Y-79515282*
X177711084Y-79937534*
X177428906Y-79515244*
X176975728Y-79212440*
X176975680Y-79212420*
X176441120Y-79106092*
X176441072*
X175906514Y-79212424*
X175906466Y-79212444*
X175453256Y-79515282*
X175171084Y-79937534*
X174888906Y-79515244*
X174435728Y-79212440*
X174435680Y-79212420*
X173901120Y-79106092*
X173901072*
X173366514Y-79212424*
X173366466Y-79212444*
X172913256Y-79515282*
X172631084Y-79937534*
X172348906Y-79515244*
X171895728Y-79212440*
X171895680Y-79212420*
X171361120Y-79106092*
X171361072*
X170826514Y-79212424*
X170826466Y-79212444*
X170373256Y-79515282*
X170091084Y-79937534*
X169808906Y-79515244*
X169355728Y-79212440*
X169355680Y-79212420*
X168821120Y-79106092*
X168821072*
X168286514Y-79212424*
X168286466Y-79212444*
X167833256Y-79515282*
X167551084Y-79937534*
X167268906Y-79515244*
X166815728Y-79212440*
X166815680Y-79212420*
X166281120Y-79106092*
X166281072*
X165746514Y-79212424*
X165746466Y-79212444*
X165293256Y-79515282*
X165011084Y-79937534*
X164728906Y-79515244*
X164275728Y-79212440*
X164275680Y-79212420*
X163741120Y-79106092*
X163741072*
X163206514Y-79212424*
X163206466Y-79212444*
X162753256Y-79515282*
X162471084Y-79937534*
X162188906Y-79515244*
X161735728Y-79212440*
X161735680Y-79212420*
X161201120Y-79106092*
X161201072*
X160666514Y-79212424*
X160666466Y-79212444*
X160213256Y-79515282*
X159910452Y-79968460*
X159910432Y-79968508*
X159804100Y-80503102*
Y-81244102*
X159910436Y-81778698*
X159910456Y-81778746*
X160213260Y-82231922*
X160464474Y-82399796*
X160464500Y-82399846*
X160464494Y-83476770*
X160464476Y-83476814*
X159829256Y-84112026*
X159829212Y-84112044*
X159699360Y-84111932*
X159699312Y-84111942*
X159339810Y-84260484*
X159339768Y-84260512*
X159064448Y-84535366*
X158915280Y-84894610*
X158915270Y-84894660*
X158915058Y-85115346*
X158915004Y-85115400*
X154939986Y-85115402*
X154658138Y-85171466*
X154658090Y-85171486*
X154419136Y-85331156*
X150431256Y-89319026*
X150431212Y-89319044*
X150314136Y-89318922*
X150314082Y-89318868*
X150314088Y-88738348*
X150314106Y-88738304*
X156140450Y-82911968*
X156140494Y-82911950*
X156171890*
X156453764Y-82855884*
X156453812Y-82855864*
X156692748Y-82696208*
X156812416Y-82576554*
X156812470Y-82576538*
X157137080Y-82641108*
X157137128*
X157671688Y-82534776*
X157671736Y-82534756*
X158124910Y-82231952*
X158427748Y-81778738*
X158427768Y-81778690*
X158534098Y-81244122*
Y-80503074*
X158427764Y-79968500*
X158427744Y-79968452*
X158124906Y-79515244*
X157671728Y-79212440*
X157671680Y-79212420*
X157137120Y-79106092*
X157137072*
X156602514Y-79212424*
X156602466Y-79212444*
X156149256Y-79515282*
X155867084Y-79937534*
X155584906Y-79515244*
X155131728Y-79212440*
X155131680Y-79212420*
X154597120Y-79106092*
X154597072*
X154062514Y-79212424*
X154062466Y-79212444*
X153609256Y-79515282*
X153327084Y-79937534*
X153044906Y-79515244*
X152591728Y-79212440*
X152591680Y-79212420*
X152057120Y-79106092*
X152057072*
X151522514Y-79212424*
X151522466Y-79212444*
X151069256Y-79515282*
X150787084Y-79937534*
X150504906Y-79515244*
X150051728Y-79212440*
X150051680Y-79212420*
X149517120Y-79106092*
X149517072*
X148982514Y-79212424*
X148982466Y-79212444*
X148529256Y-79515282*
X148247084Y-79937534*
X147964906Y-79515244*
X147511728Y-79212440*
X147511680Y-79212420*
X146977120Y-79106092*
X146977072*
X146442514Y-79212424*
X146442466Y-79212444*
X145989256Y-79515282*
X145707084Y-79937534*
X145424906Y-79515244*
X144971728Y-79212440*
X144971680Y-79212420*
X144437120Y-79106092*
X144437072*
X143902514Y-79212424*
X143902466Y-79212444*
X143449256Y-79515282*
X143158446Y-79950452*
X143139164Y-79885130*
X143139142Y-79885086*
X142795100Y-79459406*
X142314358Y-79197786*
X142240212Y-79182842*
X142240122Y-79182856*
X142024164Y-79305304*
X142024100Y-79305416*
X142024120Y-80746472*
X142024248Y-80746600*
X142044046Y-80746620*
X142044100Y-80746674*
X142044080Y-81000546*
X142044026Y-81000600*
X142024228Y-81000620*
X142024100Y-81000748*
X142024110Y-82441802*
X142024174Y-82441914*
X142240136Y-82564346*
X142240226Y-82564360*
X142314364Y-82549412*
X142795106Y-82287788*
X143139146Y-81862106*
X143139168Y-81862062*
X143158482Y-81796740*
X143449260Y-82231922*
X143902474Y-82534760*
X143902522Y-82534780*
X144437080Y-82641108*
X144437128*
X144971688Y-82534776*
X144971736Y-82534756*
X145424910Y-82231952*
X145707116Y-81809664*
X145989260Y-82231922*
X146217248Y-82384352*
X146124214Y-82402856*
X146124166Y-82402876*
X145885212Y-82562548*
X143624140Y-84823622*
X143464482Y-85062564*
X143464462Y-85062612*
X143408400Y-85344480*
Y-100075990*
X143464466Y-100357862*
X143464486Y-100357910*
X143624142Y-100596846*
X144398588Y-101371400*
X144069130Y-101371394*
X144069086Y-101371376*
X142615000Y-99917290*
X141617846Y-98920138*
X141478000Y-98826696*
X141378904Y-98760482*
X141378856Y-98760462*
X141213050Y-98727472*
X141213002Y-98727426*
X141207468Y-98698900*
X141207448Y-98698854*
X141067652Y-98486056*
X140856658Y-98343634*
X140856612Y-98343614*
X140606986Y-98293560*
X140329000*
X140292054Y-98293540*
X140292000Y-98293486*
Y-98251804*
X140291962Y-98251714*
X140133278Y-98093038*
X140133188Y-98093000*
X138684128Y-98093020*
X138684000Y-98093148*
X138684006Y-98967202*
X138684044Y-98967292*
X138842722Y-99125962*
X138842812Y-99126000*
X138909506Y-99126020*
X138909560Y-99126074*
X138909540Y-99755946*
X138909486Y-99756000*
X138842798Y-99756006*
X138842708Y-99756044*
X138684038Y-99914722*
X138684000Y-99914812*
X138684020Y-100788872*
X138684148Y-100789000*
X140133202Y-100788994*
X140133292Y-100788956*
X140291962Y-100630278*
X140292000Y-100630188*
X140292020Y-100588494*
X140292074Y-100588440*
X140606990*
X140849100Y-100541466*
X140849146Y-100541446*
X141034198Y-100419908*
X142498668Y-101884480*
X140111608Y-101884420*
X140195312Y-101800712*
X140195340Y-101800670*
X140291990Y-101567326*
X140292000Y-101567278*
X140291994Y-101201798*
X140291956Y-101201708*
X140133278Y-101043038*
X140133188Y-101043000*
X138684128Y-101043020*
X138684000Y-101043148*
X138683980Y-101062946*
X138683926Y-101063000*
X138430054Y-101062980*
X138430000Y-101062926*
Y-101043128*
X138429872Y-101043000*
X136980796Y-101043006*
X136980706Y-101043044*
X136931714Y-101092004*
X135483618Y-99643900*
X135483600Y-99643856*
X135483598Y-94614986*
X135427534Y-94333136*
X135427514Y-94333088*
X135267844Y-94094134*
X133870846Y-92697138*
X133631904Y-92537482*
X133631856Y-92537462*
X133349986Y-92481400*
X131115130Y-92481394*
X131115086Y-92481376*
X130568846Y-91935138*
X130388276Y-91814456*
X130378468Y-91763900*
X130378448Y-91763854*
X130238652Y-91551056*
X130027658Y-91408634*
X130027612Y-91408614*
X129777986Y-91358560*
X129277986Y-91358562*
X129035902Y-91405532*
X129035856Y-91405552*
X128823058Y-91545348*
X128778370Y-91611500*
X128738652Y-91551056*
X128527658Y-91408634*
X128527612Y-91408614*
X128277986Y-91358560*
X127777986Y-91358562*
X127535902Y-91405532*
X127535856Y-91405552*
X127323058Y-91545348*
X127180636Y-91756342*
X127180616Y-91756388*
X127180014Y-91759340*
X127179968Y-91759386*
X127099138Y-91775466*
X127099090Y-91775486*
X126860136Y-91935156*
X126730460Y-92064822*
X126730416Y-92064840*
X125830342Y-92064814*
G37*
%LPC*%
G36*
X141974020Y-115696872D02*
G01X141974148Y-115697000D01*
X142723204Y-115696994*
X142723294Y-115696956*
X142748016Y-115672266*
X142772722Y-115696962*
X142772812Y-115697000*
X143521912*
X143522040Y-115696872*
X143522000Y-114972812*
X143521962Y-114972722*
X143363278Y-114814038*
X143363188Y-114814000*
X143122714Y-114814002*
X143122666Y-114814012*
X142889324Y-114910664*
X142889282Y-114910692*
X142747984Y-115051958*
X142606712Y-114910688*
X142606670Y-114910660*
X142373328Y-114814010*
X142373280Y-114814000*
X142132798Y-114814006*
X142132708Y-114814044*
X141974038Y-114972722*
X141974000Y-114972812*
X141974020Y-115696872*
G37*
G36*
X142240020Y-118998872D02*
G01X142240148Y-118999000D01*
X143097202Y-118998994*
X143097292Y-118998956*
X143255996Y-118840300*
X143256034Y-118840210*
X143255998Y-117983712*
X143255988Y-117983664*
X143159336Y-117750322*
X143159308Y-117750280*
X142980712Y-117571688*
X142980670Y-117571660*
X142747328Y-117475010*
X142747280Y-117475000*
X142398798Y-117475006*
X142398708Y-117475044*
X142240038Y-117633722*
X142240000Y-117633812*
X142240020Y-118998872*
G37*
G36*
X142240006Y-120618202D02*
G01X142240044Y-120618292D01*
X142398722Y-120776962*
X142398812Y-120777000*
X142747288Y-120776998*
X142747336Y-120776988*
X142980670Y-120680338*
X142980712Y-120680310*
X143159312Y-120501712*
X143256030Y-120268334*
X143256040Y-120268284*
X143256000Y-119411804*
X143255962Y-119411714*
X143097278Y-119253038*
X143097188Y-119253000*
X142240128Y-119253020*
X142240000Y-119253148*
X142240006Y-120618202*
G37*
G36*
X147186006Y-115538202D02*
G01X147186044Y-115538292D01*
X147344722Y-115696962*
X147344812Y-115697000*
X148093912*
X148094040Y-115696872*
X148094000Y-114972812*
X148093962Y-114972722*
X147935278Y-114814038*
X147935188Y-114814000*
X147694714Y-114814002*
X147694666Y-114814012*
X147461324Y-114910664*
X147461282Y-114910692*
X147282690Y-115089286*
X147282662Y-115089328*
X147186010Y-115322672*
X147186000Y-115322720*
X147186006Y-115538202*
G37*
G36*
X147186002Y-116325288D02*
G01X147186012Y-116325336D01*
X147282666Y-116558676*
X147282694Y-116558718*
X147461288Y-116737310*
X147461330Y-116737338*
X147694674Y-116833990*
X147694722Y-116834000*
X147935202Y-116833994*
X147935292Y-116833956*
X148093996Y-116675300*
X148094034Y-116675210*
X148094000Y-115951128*
X148093872Y-115951000*
X147344798Y-115951006*
X147344708Y-115951044*
X147186038Y-116109722*
X147186000Y-116109812*
X147186002Y-116325288*
G37*
G36*
X146812006Y-118713202D02*
G01X146812044Y-118713292D01*
X146970722Y-118871962*
X146970812Y-118872000*
X148335912*
X148336040Y-118871872*
X148336000Y-118014812*
X148335962Y-118014722*
X148177278Y-117856038*
X148177188Y-117856000*
X148094000*
X147320712Y-117856002*
X147320664Y-117856012*
X147087324Y-117952664*
X147087282Y-117952692*
X146908690Y-118131288*
X146908662Y-118131330*
X146812010Y-118364672*
X146812000Y-118364720*
X146812006Y-118713202*
G37*
G36*
X148590020Y-118871872D02*
G01X148590148Y-118872000D01*
X149955202Y-118871994*
X149955292Y-118871956*
X150113996Y-118713300*
X150114034Y-118713210*
X150113998Y-118364712*
X150113988Y-118364664*
X150017336Y-118131324*
X150017308Y-118131282*
X149838714Y-117952688*
X149838672Y-117952660*
X149605328Y-117856010*
X149605280Y-117856000*
X148748798Y-117856006*
X148748708Y-117856044*
X148590038Y-118014722*
X148590000Y-118014812*
X148590020Y-118871872*
G37*
G36*
X141974006Y-116675202D02*
G01X141974044Y-116675292D01*
X142132722Y-116833962*
X142132812Y-116834000*
X142373288Y-116833998*
X142373336Y-116833988*
X142606676Y-116737334*
X142606718Y-116737306*
X142748016Y-116596040*
X142889288Y-116737310*
X142889330Y-116737338*
X143122674Y-116833990*
X143122722Y-116834000*
X143363202Y-116833994*
X143363292Y-116833956*
X143521996Y-116675300*
X143522034Y-116675210*
X143522000Y-115951128*
X143521872Y-115951000*
X142772796Y-115951006*
X142772706Y-115951044*
X142747984Y-115975734*
X142723278Y-115951038*
X142723188Y-115951000*
X141974128Y-115951020*
X141974000Y-115951148*
X141974006Y-116675202*
G37*
G36*
X121506006Y-117489202D02*
G01X121506044Y-117489292D01*
X121664722Y-117647962*
X121664812Y-117648000*
X122280288Y-117647998*
X122280336Y-117647988*
X122513670Y-117551338*
X122513712Y-117551310*
X122692312Y-117372712*
X122789030Y-117139334*
X122789040Y-117139284*
X122788994Y-116998798*
X122788956Y-116998708*
X122630278Y-116840038*
X122630188Y-116840000*
X121506128Y-116840020*
X121506000Y-116840148*
X121506006Y-117489202*
G37*
G36*
X130771902Y-118289626D02*
G01X130771912Y-118289674D01*
X130868566Y-118523016*
X130868594Y-118523058*
X131047188Y-118701650*
X131047230Y-118701678*
X131280572Y-118798330*
X131280620Y-118798340*
X131921202Y-118798334*
X131921292Y-118798296*
X132079996Y-118639640*
X132080034Y-118639550*
X132079980Y-116989988*
X132079852Y-116989860*
X130930698Y-116989866*
X130930608Y-116989904*
X130771938Y-117148582*
X130771900Y-117148672*
X130771902Y-118289626*
G37*
G36*
X130671576Y-120524222D02*
G01X130671614Y-120524312D01*
X130830292Y-120682982*
X130830382Y-120683020*
X132079912*
X132080040Y-120682892*
X132080000Y-119084144*
X132079962Y-119084054*
X131921278Y-118925378*
X131921188Y-118925340*
X131180282Y-118925342*
X131180234Y-118925352*
X130946892Y-119022004*
X130946850Y-119022032*
X130768260Y-119200628*
X130768232Y-119200670*
X130671580Y-119434012*
X130671570Y-119434060*
X130671576Y-120524222*
G37*
G36*
X130671572Y-122185986D02*
G01X130671582Y-122186034D01*
X130768236Y-122419376*
X130768264Y-122419418*
X130946856Y-122598010*
X130946898Y-122598038*
X131180242Y-122694690*
X131180290Y-122694700*
X131921202Y-122694694*
X131921292Y-122694656*
X132079996Y-122536000*
X132080034Y-122535910*
X132080000Y-120937148*
X132079872Y-120937020*
X130830368Y-120937026*
X130830278Y-120937064*
X130671608Y-121095742*
X130671570Y-121095832*
X130671572Y-122185986*
G37*
G36*
X132334006Y-118639542D02*
G01X132334044Y-118639632D01*
X132492722Y-118798302*
X132492812Y-118798340*
X133133388Y-118798338*
X133133436Y-118798328*
X133366770Y-118701678*
X133366812Y-118701650*
X133545410Y-118523052*
X133642130Y-118289672*
X133642140Y-118289622*
X133642094Y-117148658*
X133642056Y-117148568*
X133483378Y-116989898*
X133483288Y-116989860*
X132334128Y-116989880*
X132334000Y-116990008*
X132334006Y-118639542*
G37*
G36*
X132334020Y-120682892D02*
G01X132334148Y-120683020D01*
X133583632Y-120683014*
X133583722Y-120682976*
X133742426Y-120524320*
X133742464Y-120524230*
X133742428Y-119434052*
X133742418Y-119434004*
X133645766Y-119200664*
X133645738Y-119200622*
X133642100Y-119196984*
X133467144Y-119022028*
X133467102Y-119022000*
X133233758Y-118925350*
X133233710Y-118925340*
X132492798Y-118925346*
X132492708Y-118925384*
X132334038Y-119084062*
X132334000Y-119084152*
X132334020Y-120682892*
G37*
G36*
X132334006Y-122535902D02*
G01X132334044Y-122535992D01*
X132492722Y-122694662*
X132492812Y-122694700*
X133233718Y-122694698*
X133233766Y-122694688*
X133467102Y-122598038*
X133467144Y-122598010*
X133645742Y-122419412*
X133645770Y-122419370*
X133742460Y-122186030*
X133742470Y-122185982*
X133742430Y-121095824*
X133742392Y-121095734*
X133583708Y-120937058*
X133583618Y-120937020*
X132334128Y-120937040*
X132334000Y-120937168*
X132334006Y-122535902*
G37*
G36*
X135756006Y-115538202D02*
G01X135756044Y-115538292D01*
X135914722Y-115696962*
X135914812Y-115697000*
X136663912*
X136664040Y-115696872*
X136663994Y-114972798*
X136663956Y-114972708*
X136505278Y-114814038*
X136505188Y-114814000*
X136264714Y-114814002*
X136264666Y-114814012*
X136031324Y-114910664*
X136031282Y-114910692*
X135852690Y-115089286*
X135852662Y-115089328*
X135756010Y-115322672*
X135756000Y-115322720*
X135756006Y-115538202*
G37*
G36*
X135756002Y-116325288D02*
G01X135756012Y-116325336D01*
X135852666Y-116558676*
X135852694Y-116558718*
X136031288Y-116737310*
X136031330Y-116737338*
X136264674Y-116833990*
X136264722Y-116834000*
X136505202Y-116833994*
X136505292Y-116833956*
X136663996Y-116675300*
X136664034Y-116675210*
X136664000Y-115951128*
X136663872Y-115951000*
X135914798Y-115951006*
X135914708Y-115951044*
X135756038Y-116109722*
X135756000Y-116109812*
X135756002Y-116325288*
G37*
G36*
X119969002Y-117139288D02*
G01X119969012Y-117139336D01*
X120065666Y-117372676*
X120065694Y-117372718*
X120244288Y-117551310*
X120244330Y-117551338*
X120477674Y-117647990*
X120477722Y-117648000*
X121093202Y-117647994*
X121093292Y-117647956*
X121251996Y-117489300*
X121252034Y-117489210*
X121251980Y-116840128*
X121251852Y-116840000*
X120127798Y-116840006*
X120127708Y-116840044*
X119969038Y-116998722*
X119969000Y-116998812*
X119969002Y-117139288*
G37*
G36*
X138309002Y-89414286D02*
G01X138309012Y-89414334D01*
X138405666Y-89647676*
X138405694Y-89647718*
X138584288Y-89826310*
X138584330Y-89826338*
X138817672Y-89922990*
X138817720Y-89923000*
X139033202Y-89922994*
X139033292Y-89922956*
X139191996Y-89764300*
X139192034Y-89764210*
X139191980Y-89015128*
X139191852Y-89015000*
X138467798Y-89015006*
X138467708Y-89015044*
X138309038Y-89173722*
X138309000Y-89173812*
X138309002Y-89414286*
G37*
G36*
X136822006Y-97680202D02*
G01X136822044Y-97680292D01*
X136980722Y-97838962*
X136980812Y-97839000*
X138429912*
X138430040Y-97838872*
X138429994Y-96964798*
X138429956Y-96964708*
X138271278Y-96806038*
X138271188Y-96806000*
X137330712Y-96806002*
X137330664Y-96806012*
X137097324Y-96902664*
X137097282Y-96902692*
X136918690Y-97081288*
X136918662Y-97081330*
X136822010Y-97314672*
X136822000Y-97314720*
X136822006Y-97680202*
G37*
G36*
X136822002Y-98617286D02*
G01X136822012Y-98617334D01*
X136918666Y-98850676*
X136918694Y-98850718*
X137097288Y-99029310*
X137097330Y-99029338*
X137330672Y-99125990*
X137330720Y-99126000*
X138271202Y-99125994*
X138271292Y-99125956*
X138429996Y-98967300*
X138430034Y-98967210*
X138430000Y-98093128*
X138429872Y-98093000*
X136980798Y-98093006*
X136980708Y-98093044*
X136822038Y-98251722*
X136822000Y-98251812*
X136822002Y-98617286*
G37*
G36*
X139446006Y-89764202D02*
G01X139446044Y-89764292D01*
X139604722Y-89922962*
X139604812Y-89923000*
X139820288Y-89922998*
X139820336Y-89922988*
X140053672Y-89826338*
X140053714Y-89826310*
X140232312Y-89647712*
X140232340Y-89647670*
X140329030Y-89414330*
X140329040Y-89414282*
X140328994Y-89173798*
X140328956Y-89173708*
X140170278Y-89015038*
X140170188Y-89015000*
X139446128Y-89015020*
X139446000Y-89015148*
X139446006Y-89764202*
G37*
G36*
X138684020Y-97838872D02*
G01X138684148Y-97839000D01*
X140133202Y-97838994*
X140133292Y-97838956*
X140291996Y-97680300*
X140292034Y-97680210*
X140291998Y-97314712*
X140291988Y-97314664*
X140195336Y-97081324*
X140195308Y-97081282*
X140016714Y-96902688*
X140016672Y-96902660*
X139783328Y-96806010*
X139783280Y-96806000*
X139192000*
X138842798Y-96806006*
X138842708Y-96806044*
X138684038Y-96964722*
X138684000Y-96964812*
X138684020Y-97838872*
G37*
G36*
X140595002Y-89414286D02*
G01X140595012Y-89414334D01*
X140691666Y-89647676*
X140691694Y-89647718*
X140870288Y-89826310*
X140870330Y-89826338*
X141103672Y-89922990*
X141103720Y-89923000*
X141319202Y-89922994*
X141319292Y-89922956*
X141477996Y-89764300*
X141478034Y-89764210*
X141477980Y-89015128*
X141477852Y-89015000*
X140753798Y-89015006*
X140753708Y-89015044*
X140595038Y-89173722*
X140595000Y-89173812*
X140595002Y-89414286*
G37*
G36*
X141732006Y-89764202D02*
G01X141732044Y-89764292D01*
X141890722Y-89922962*
X141890812Y-89923000*
X142106288Y-89922998*
X142106336Y-89922988*
X142339672Y-89826338*
X142339714Y-89826310*
X142518312Y-89647712*
X142518340Y-89647670*
X142615030Y-89414330*
X142615040Y-89414282*
X142614994Y-89173798*
X142614956Y-89173708*
X142456278Y-89015038*
X142456188Y-89015000*
X141732128Y-89015020*
X141732000Y-89015148*
X141732006Y-89764202*
G37*
G36*
X136822006Y-100630202D02*
G01X136822044Y-100630292D01*
X136980722Y-100788962*
X136980812Y-100789000*
X138429912*
X138430040Y-100788872*
X138430000Y-99914804*
X138429962Y-99914714*
X138271278Y-99756038*
X138271188Y-99756000*
X137330712Y-99756002*
X137330664Y-99756012*
X137097324Y-99852664*
X137097282Y-99852692*
X136918690Y-100031288*
X136918662Y-100031330*
X136822010Y-100264672*
X136822000Y-100264720*
X136822006Y-100630202*
G37*
%LPD*%
G36*
X156591372Y-88798340D02*
G01X156769100Y-88620618D01*
X156769144Y-88620600*
X159333870Y-88620606*
X159333914Y-88620624*
X159511588Y-88798400*
X156591372Y-88798340*
G37*
G36*
X154998420Y-97857160D02*
G01X154998426Y-97503310D01*
X154998444Y-97503266*
X155270200Y-97231562*
X155270194Y-99064750*
X155270176Y-99064794*
X155089700Y-99245274*
X155059120Y-99290966*
X155059118Y-98120186*
X155012148Y-97878100*
X155012128Y-97878054*
X154998420Y-97857160*
G37*
G36*
X153476498Y-100055424D02*
G01X153512900Y-100048334D01*
X153611568Y-100068118*
X153911290Y-100068120*
X154013280Y-100048334*
X154111948Y-100068118*
X154312826Y-100068140*
X154312880Y-100068194*
Y-100269030*
X154332666Y-100371044*
X154312880Y-100469714*
Y-100769410*
X154332666Y-100871424*
X154312880Y-100970094*
Y-101269790*
X154332666Y-101371804*
X154312880Y-101470474*
X154312860Y-101643128*
X154312808Y-101643182*
X154115914Y-101643012*
X154115866Y-101643022*
X153756366Y-101791564*
X153756324Y-101791592*
X153670000Y-101877712*
X153669998Y-100583986*
X153602334Y-100243816*
X153602314Y-100243768*
X153476498Y-100055424*
G37*
G36*
X128225516Y-86360372D02*
G01X128246450Y-86346610D01*
X128575536Y-86346628*
X128530010Y-86456672*
X128530000Y-86456720*
X128530006Y-86697202*
X128530044Y-86697292*
X128688722Y-86855962*
X128688812Y-86856000*
X129412872Y-86855980*
X129413000Y-86855852*
X129413020Y-86836054*
X129413074Y-86836000*
X129666946Y-86836020*
X129667000Y-86836074*
X129667020Y-86855872*
X129667148Y-86856000*
X130391202Y-86855994*
X130391292Y-86855956*
X130549962Y-86697278*
X130550000Y-86697188*
X130549998Y-86456712*
X130549988Y-86456664*
X130504444Y-86346638*
X131089236Y-86346604*
X131108476Y-86359644*
X131048056Y-86399348*
X130905634Y-86610342*
X130905614Y-86610388*
X130855560Y-86860014*
X130855540Y-87121946*
X130855486Y-87122000*
X130403270Y-87121994*
X130403226Y-87121976*
X130391280Y-87110038*
X130391190Y-87110000*
X129667128Y-87110020*
X129667000Y-87110148*
X129666980Y-87121946*
X129666926Y-87122000*
X129413054Y-87121980*
X129413000Y-87121926*
X129412980Y-87110128*
X129412852Y-87110000*
X128688796Y-87110006*
X128688706Y-87110044*
X128676760Y-87121982*
X128676716Y-87122000*
X128478494Y-87121980*
X128478440Y-87121926*
X128478438Y-86859986*
X128431468Y-86617900*
X128431448Y-86617854*
X128291652Y-86405056*
X128225516Y-86360372*
G37*
G36*
X164858372Y-86627340D02*
G01X168850426Y-82635288D01*
X169355688Y-82534776*
X169355736Y-82534756*
X169808910Y-82231952*
X170091116Y-81809664*
X170373260Y-82231922*
X170826474Y-82534760*
X170826522Y-82534780*
X171361080Y-82641108*
X171361128*
X171895688Y-82534776*
X171895736Y-82534756*
X172348910Y-82231952*
X172631116Y-81809664*
X172913260Y-82231922*
X172934596Y-82246216*
X171958468Y-83222382*
X171958424Y-83222400*
X171564986Y-83222402*
X171283138Y-83278466*
X171283090Y-83278486*
X171044136Y-83438156*
X169024140Y-85458154*
X168864482Y-85697096*
X168864462Y-85697144*
X168808400Y-85979014*
X168808380Y-86627346*
X168808326Y-86627400*
X164858372Y-86627340*
G37*
G36*
X158864666Y-104355946D02*
G01X159016690Y-104355900D01*
X159298564Y-104299834*
X159298612Y-104299814*
X159537548Y-104140158*
X159817100Y-103860618*
X159817144Y-103860600*
X163194990*
X163476864Y-103804534*
X163476912Y-103804514*
X163715848Y-103644858*
X165278100Y-102082618*
X165278144Y-102082600*
X165413800Y-102082612*
X165413854Y-102082648*
X165491530Y-102270632*
X165491558Y-102270674*
X165950914Y-102730830*
X166551434Y-102980196*
X166551484Y-102980206*
X167201672Y-102980772*
X167201720Y-102980762*
X167802634Y-102732470*
X167802676Y-102732442*
X168262830Y-102273086*
X168512196Y-101672566*
X168512206Y-101672516*
X168512772Y-101022328*
X168512762Y-101022280*
X168264470Y-100421366*
X168264442Y-100421324*
X167805048Y-99961142*
X167614636Y-99882062*
X167614600Y-99882010*
X167614620Y-98927054*
X167614674Y-98927000*
X167850202Y-98926994*
X167850292Y-98926956*
X168008962Y-98768278*
X168009000Y-98768188*
X168008980Y-98044128*
X168008852Y-98044000*
X167989054Y-98043980*
X167989000Y-98043926*
X167989020Y-97790054*
X167989074Y-97790000*
X168008872Y-97789980*
X168009000Y-97789852*
X168008994Y-97065798*
X168008956Y-97065708*
X167850278Y-96907038*
X167850188Y-96907000*
X167609714Y-96907002*
X167609666Y-96907012*
X167376324Y-97003664*
X167376282Y-97003690*
X167375006Y-97004944*
X167285658Y-96944634*
X167285612Y-96944614*
X167068790Y-96901076*
X167278100Y-96860466*
X167278146Y-96860446*
X167374892Y-96796918*
X167376288Y-96798310*
X167376330Y-96798338*
X167609674Y-96894990*
X167609722Y-96895000*
X167850202Y-96894994*
X167850292Y-96894956*
X168008962Y-96736278*
X168009000Y-96736188*
X168008980Y-96012128*
X168008852Y-96012000*
X167989054Y-96011980*
X167989000Y-96011926*
X167989020Y-95758054*
X167989074Y-95758000*
X168008872Y-95757980*
X168009000Y-95757852*
X168009020Y-95738054*
X168009074Y-95738000*
X168262946Y-95738020*
X168263000Y-95738074*
X168263020Y-95757872*
X168263148Y-95758000*
X168282946Y-95758020*
X168283000Y-95758074*
X168282980Y-96011946*
X168282926Y-96012000*
X168263128Y-96012020*
X168263000Y-96012148*
X168263006Y-96736202*
X168263044Y-96736292*
X168421722Y-96894962*
X168421812Y-96895000*
X168662288Y-96894998*
X168662336Y-96894988*
X168895676Y-96798334*
X168895718Y-96798306*
X169074312Y-96619712*
X169074340Y-96619670*
X169170990Y-96386328*
X169171000Y-96386280*
X169171034Y-96260272*
X169417982Y-96507226*
X169418000Y-96507270*
X169417992Y-99031960*
X169329280Y-99245610*
X169329270Y-99245660*
X169328934Y-99634640*
X169328944Y-99634688*
X169417996Y-99850220*
X169417980Y-104151506*
X169417926Y-104151560*
X169170980Y-104151540*
X166421986Y-104151562*
X166179902Y-104198532*
X166179856Y-104198552*
X165967058Y-104338348*
X165824636Y-104549342*
X165824616Y-104549388*
X165774560Y-104799014*
X165774526Y-107455814*
X163546846Y-105228138*
X163307904Y-105068482*
X163307856Y-105068462*
X163025986Y-105012400*
X159578490Y-105012394*
X159578446Y-105012376*
X159480660Y-104914432*
X159382282Y-104873572*
X158864666Y-104355946*
G37*
G36*
X146278600Y-99262856D02*
G01X146278606Y-88995580D01*
X146278624Y-88995536*
X152577946Y-82696212*
X152737618Y-82457252*
X152737638Y-82457204*
X152742210Y-82434232*
X153044910Y-82231952*
X153327116Y-81809664*
X153609260Y-82231922*
X153775202Y-82342810*
X148539038Y-87579056*
X148379382Y-87817998*
X148379362Y-87818046*
X148323300Y-88099914*
X148323288Y-90671548*
X148323252Y-90671602*
X148163810Y-90737484*
X148163768Y-90737512*
X147888448Y-91012366*
X147739280Y-91371610*
X147739270Y-91371660*
X147738934Y-91760640*
X147738944Y-91760688*
X147868938Y-92075350*
X147739280Y-92387610*
X147739270Y-92387660*
X147738934Y-92776640*
X147738944Y-92776688*
X147887486Y-93136190*
X147887514Y-93136232*
X148162328Y-93411524*
X148521610Y-93560720*
X148521660Y-93560730*
X148910642Y-93561066*
X148910690Y-93561056*
X149008946Y-93520492*
X149008934Y-93538640*
X149008944Y-93538688*
X149157486Y-93898190*
X149157514Y-93898232*
X149282644Y-94023644*
X149240080Y-94066214*
X149080422Y-94305156*
X149080402Y-94305204*
X149024340Y-94587074*
X149024320Y-97485146*
X149024266Y-97485200*
X148984412Y-97485202*
X148984364Y-97485212*
X148980346Y-97486860*
X148910026Y-97472760*
X148610306Y-97472762*
X148368222Y-97519732*
X148368176Y-97519752*
X148155378Y-97659548*
X148012956Y-97870542*
X148012936Y-97870588*
X147962880Y-98120214*
X147962860Y-99321826*
X147962806Y-99321880*
X146761186Y-99321882*
X146519102Y-99368852*
X146519056Y-99368872*
X146498160Y-99382580*
X146398310Y-99382574*
X146398266Y-99382556*
X146278618Y-99262900*
X146278600Y-99262856*
G37*
G36*
X126754772Y-109004304D02*
G01X126769108Y-108994884D01*
X126911566Y-108783858*
X126911586Y-108783812*
X126961638Y-108534212*
Y-107619786*
X126914668Y-107377700*
X126914650Y-107377654*
X126888396Y-107337654*
X127800026Y-106426018*
X127800070Y-106426000*
X130047990*
X130388184Y-106358332*
X130388232Y-106358312*
X130676610Y-106165622*
X131819608Y-105022626*
X132012318Y-104734224*
X132012338Y-104734176*
X132079998Y-104394010*
X132080002Y-100104062*
X132168720Y-99890390*
X132168730Y-99890340*
X132169068Y-99501358*
X132169058Y-99501310*
X132020516Y-99141810*
X132020488Y-99141768*
X131745632Y-98866448*
X131386390Y-98717280*
X131386340Y-98717270*
X130997358Y-98716932*
X130997310Y-98716942*
X130637810Y-98865484*
X130637768Y-98865512*
X130519284Y-98983782*
X130519240Y-98983800*
X130198360Y-98983790*
X130198312Y-98983764*
X130187852Y-98967856*
X129976858Y-98825434*
X129976812Y-98825414*
X129727186Y-98775360*
X129227186Y-98775362*
X128985100Y-98822332*
X128985054Y-98822352*
X128772258Y-98962148*
X128727570Y-99028300*
X128713800Y-99007314*
X128713806Y-98956930*
X128713824Y-98956886*
X129672260Y-97998458*
X129672304Y-97998440*
X129777990*
X130020100Y-97951466*
X130020146Y-97951446*
X130232906Y-97811684*
X130375364Y-97600658*
X130375384Y-97600612*
X130425438Y-97351012*
Y-96450986*
X130378468Y-96208900*
X130378448Y-96208854*
X130264600Y-96035514*
X130264604Y-95478764*
X130375364Y-95314658*
X130375384Y-95314612*
X130406492Y-95159502*
X130441848Y-95135858*
X130988100Y-94589618*
X130988144Y-94589600*
X132917870Y-94589606*
X132917914Y-94589624*
X133502382Y-95174100*
X133502400Y-95174144*
Y-100202990*
X133558466Y-100484862*
X133558486Y-100484910*
X133718142Y-100723846*
X137634818Y-104640524*
X137873778Y-104800198*
X137873826Y-104800218*
X138155670Y-104856278*
X146126146Y-104856300*
X146126200Y-104856354*
X146126206Y-104886712*
X146126244Y-104886802*
X146138880Y-104899444*
X146160734Y-105012018*
X146160754Y-105012064*
X146231912Y-105120448*
X146163836Y-105221302*
X146163816Y-105221348*
X146139932Y-105340386*
X146126238Y-105354090*
X146126200Y-105354180*
X146126202Y-105396586*
X146126212Y-105396634*
X146127856Y-105400616*
X146113760Y-105470974*
Y-105770670*
X146133466Y-105872286*
X146133456Y-105872332*
X146004482Y-106065356*
X146004462Y-106065404*
X145980664Y-106185022*
X145863684Y-106360096*
X145863664Y-106360144*
X145796000Y-106700334*
X145795992Y-111223960*
X145707280Y-111437610*
X145707270Y-111437660*
X145706934Y-111826640*
X145706944Y-111826688*
X145855486Y-112186190*
X145855514Y-112186232*
X146040994Y-112372140*
X133654594Y-112372120*
X133654540Y-112372066*
X133654538Y-111960646*
X133607568Y-111718560*
X133607548Y-111718514*
X133467752Y-111505716*
X133256758Y-111363294*
X133256712Y-111363274*
X133007086Y-111313220*
X131406886Y-111313222*
X131164800Y-111360192*
X131164754Y-111360212*
X130951958Y-111500008*
X130809536Y-111711002*
X130809516Y-111711048*
X130759460Y-111960674*
X130759440Y-112013946*
X130759386Y-112014000*
X127816028Y-112013986*
X127803658Y-112005634*
X127803612Y-112005614*
X127668044Y-111978414*
X127668000Y-111978358*
X127668004Y-111012260*
X127800566Y-110815858*
X127800586Y-110815812*
X127850638Y-110566212*
Y-109651786*
X127803668Y-109409700*
X127803648Y-109409654*
X127663852Y-109196856*
X127452858Y-109054434*
X127452812Y-109054414*
X127203186Y-109004360*
X126754772Y-109004304*
G37*
%LPC*%
G36*
X168263020Y-97789872D02*
G01X168263148Y-97790000D01*
X169012188*
X169012278Y-97789962*
X169170962Y-97631286*
X169171000Y-97631196*
X169170998Y-97415712*
X169170988Y-97415664*
X169074336Y-97182322*
X169074308Y-97182280*
X168895712Y-97003688*
X168895670Y-97003660*
X168662328Y-96907010*
X168662280Y-96907000*
X168421798Y-96907006*
X168421708Y-96907044*
X168263038Y-97065722*
X168263000Y-97065812*
X168263020Y-97789872*
G37*
G36*
X168263006Y-98768202D02*
G01X168263044Y-98768292D01*
X168421708Y-98926956*
X168421798Y-98926994*
X168662288Y-98926998*
X168662336Y-98926988*
X168895676Y-98830334*
X168895718Y-98830306*
X169074312Y-98651712*
X169074340Y-98651670*
X169170990Y-98418332*
X169171000Y-98418284*
X169170994Y-98202790*
X169170956Y-98202700*
X169012278Y-98044038*
X169012188Y-98044000*
X168263128Y-98044020*
X168263000Y-98044148*
X168263006Y-98768202*
G37*
%LPD*%
G36*
X155822632Y-107956360D02*
G01X155822638Y-107308624D01*
X155822656Y-107308580*
X155949608Y-107181626*
X156142318Y-106893224*
X156142338Y-106893176*
X156165102Y-106778726*
X156314544Y-106555062*
X156314564Y-106555014*
X156345048Y-106401812*
X156345094Y-106401764*
X156502900Y-106371146*
X156502946Y-106371126*
X156616400Y-106296640*
X156616394Y-106541540*
X156616376Y-106541584*
X156524448Y-106633366*
X156375280Y-106992610*
X156375270Y-106992660*
X156374934Y-107381640*
X156374944Y-107381688*
X156523486Y-107741190*
X156523514Y-107741232*
X156798328Y-108016524*
X157157610Y-108165720*
X157157660Y-108165730*
X157546642Y-108166066*
X157546690Y-108166056*
X157906190Y-108017514*
X157906232Y-108017486*
X158181524Y-107742672*
X158252294Y-107572342*
X158363300Y-107683538*
X158725192Y-107833818*
X158725242Y-107833828*
X159117048Y-107834168*
X159117096Y-107834158*
X159479208Y-107684536*
X159479250Y-107684508*
X159578320Y-107585618*
X159578364Y-107585600*
X162423870Y-107585606*
X162423914Y-107585624*
X163048188Y-108210000*
X162953126Y-108210020*
X162952998Y-108210148*
X162952964Y-108368712*
X162794278Y-108210038*
X162794188Y-108210000*
X162553714Y-108210002*
X162553666Y-108210012*
X162320324Y-108306664*
X162320282Y-108306692*
X162178984Y-108447958*
X162037712Y-108306688*
X162037670Y-108306660*
X161804328Y-108210010*
X161804280Y-108210000*
X161563798Y-108210006*
X161563708Y-108210044*
X161405038Y-108368722*
X161405000Y-108368812*
X161405020Y-109092872*
X161405148Y-109093000*
X162154204Y-109092994*
X162154294Y-109092956*
X162179016Y-109068266*
X162203722Y-109092962*
X162203812Y-109093000*
X162952872Y-109092980*
X162953000Y-109092852*
X162953020Y-109073054*
X162953074Y-109073000*
X163206946Y-109073020*
X163207000Y-109073074*
X163207020Y-109092872*
X163207148Y-109093000*
X163226946Y-109093020*
X163227000Y-109093074*
X163226980Y-109346946*
X163226926Y-109347000*
X163207128Y-109347020*
X163207000Y-109347148*
X163206980Y-109366946*
X163206926Y-109367000*
X162953054Y-109366980*
X162953000Y-109366926*
X162952980Y-109347128*
X162952852Y-109347000*
X162203796Y-109347006*
X162203706Y-109347044*
X162178984Y-109371734*
X162154278Y-109347038*
X162154188Y-109347000*
X161405128Y-109347020*
X161405000Y-109347148*
X161404980Y-109366946*
X161404926Y-109367000*
X161151054Y-109366980*
X161151000Y-109366926*
X161150980Y-109347128*
X161150852Y-109347000*
X161131054Y-109346980*
X161131000Y-109346926*
X161131020Y-109093054*
X161131074Y-109093000*
X161150872Y-109092980*
X161151000Y-109092852*
X161150994Y-108368798*
X161150956Y-108368708*
X160992278Y-108210038*
X160992188Y-108210000*
X160751714Y-108210002*
X160751666Y-108210012*
X160518324Y-108306664*
X160518282Y-108306690*
X160517006Y-108307944*
X160427658Y-108247634*
X160427612Y-108247614*
X160177986Y-108197560*
X159377986Y-108197562*
X159135902Y-108244532*
X159135856Y-108244552*
X159004228Y-108331000*
X156197256Y-108330994*
X156197212Y-108330976*
X155822650Y-107956404*
X155822632Y-107956360*
G37*
G36*
X156895820Y-102382266D02*
G01Y-102356974D01*
X156895874Y-102356920*
X157078670*
X157360544Y-102300854*
X157360592Y-102300834*
X157599528Y-102141178*
X159143846Y-100596862*
X159303518Y-100357902*
X159303538Y-100357854*
X159359598Y-100076010*
X159359606Y-99281930*
X159359624Y-99281886*
X159732782Y-98908738*
X159732836Y-98908722*
X159885988Y-98939438*
X160685990Y-98939440*
X160928100Y-98892466*
X160928146Y-98892446*
X161024892Y-98828918*
X161026288Y-98830310*
X161026330Y-98830338*
X161259674Y-98926990*
X161259722Y-98927000*
X161500202Y-98926994*
X161500292Y-98926956*
X161658962Y-98768278*
X161659000Y-98768188*
X161658980Y-98044128*
X161658852Y-98044000*
X161639054Y-98043980*
X161639000Y-98043926*
X161639020Y-97790054*
X161639074Y-97790000*
X161658872Y-97789980*
X161659000Y-97789852*
X161659020Y-97770054*
X161659074Y-97770000*
X161912946Y-97770020*
X161913000Y-97770074*
X161913020Y-97789872*
X161913148Y-97790000*
X163333872Y-97789980*
X163334000Y-97789852*
X163333994Y-97065798*
X163333956Y-97065708*
X163175278Y-96907038*
X163175188Y-96907000*
X162934714Y-96907002*
X162934666Y-96907012*
X162701324Y-97003664*
X162701282Y-97003692*
X162623484Y-97081458*
X162545712Y-97003688*
X162545670Y-97003660*
X162312328Y-96907010*
X162312280Y-96907000*
X162194540Y-96906944*
X162363908Y-96795684*
X162447654Y-96671678*
X162574288Y-96798310*
X162574330Y-96798338*
X162807674Y-96894990*
X162807722Y-96895000*
X163048202Y-96894994*
X163048292Y-96894956*
X163206962Y-96736278*
X163207000Y-96736188*
X163206980Y-96012128*
X163206852Y-96012000*
X163187054Y-96011980*
X163187000Y-96011926*
X163187020Y-95758054*
X163187074Y-95758000*
X163206872Y-95757980*
X163207000Y-95757852*
X163207020Y-95738054*
X163207074Y-95738000*
X163460946Y-95738020*
X163461000Y-95738074*
X163461020Y-95757872*
X163461148Y-95758000*
X163480946Y-95758020*
X163481000Y-95758074*
X163480980Y-96011946*
X163480926Y-96012000*
X163461128Y-96012020*
X163461000Y-96012148*
X163461006Y-96736202*
X163461044Y-96736292*
X163619722Y-96894962*
X163619812Y-96895000*
X163860288Y-96894998*
X163860336Y-96894988*
X164093676Y-96798334*
X164093718Y-96798308*
X164094994Y-96797054*
X164184342Y-96857364*
X164184388Y-96857384*
X164433988Y-96907438*
X164494366Y-96907490*
X164318902Y-96941532*
X164318856Y-96941552*
X164222108Y-97005080*
X164220712Y-97003688*
X164220670Y-97003660*
X163987328Y-96907010*
X163987280Y-96907000*
X163746798Y-96907006*
X163746708Y-96907044*
X163588038Y-97065722*
X163588000Y-97065812*
X163588020Y-97789872*
X163588148Y-97790000*
X163607946Y-97790020*
X163608000Y-97790074*
X163607980Y-98043946*
X163607926Y-98044000*
X163588128Y-98044020*
X163588000Y-98044148*
X163588006Y-98768202*
X163588044Y-98768292*
X163714988Y-98895302*
X163334000Y-99276288*
X162671402Y-99938866*
X162124568Y-99711804*
X162124518Y-99711794*
X161474328Y-99711228*
X161474280Y-99711238*
X160873368Y-99959530*
X160873326Y-99959558*
X160413142Y-100418952*
X160334062Y-100609364*
X160334010Y-100609400*
X159511986*
X159230138Y-100665464*
X159230090Y-100665484*
X158991136Y-100825156*
X157433980Y-102382302*
X157433936Y-102382320*
X156895874*
X156895820Y-102382266*
G37*
G36*
X118884452Y-102966754D02*
G01X120770608Y-101080546D01*
X120963318Y-100792142*
X120963338Y-100792094*
X121030998Y-100451930*
X121031030Y-96878094*
X121042898Y-96883020*
X121042948Y-96883030*
X121474368Y-96883406*
X121474416Y-96883396*
X121797674Y-96749880*
X121761510Y-96930224*
Y-99127300*
X121808484Y-99369408*
X121808504Y-99369454*
X121948266Y-99582216*
X122159292Y-99724674*
X122159338Y-99724694*
X122408938Y-99774748*
X124606040Y-99774750*
X124848150Y-99727776*
X124848196Y-99727756*
X125060958Y-99587994*
X125203416Y-99376968*
X125203436Y-99376922*
X125253488Y-99127322*
Y-96930196*
X125206518Y-96688110*
X125206498Y-96688064*
X125066702Y-96475266*
X124855708Y-96332844*
X124855662Y-96332824*
X124606036Y-96282770*
X122408936Y-96282772*
X122217534Y-96319866*
X122343982Y-96015342*
X122343992Y-96015292*
X122344042Y-95990284*
X122562022Y-96080570*
X122562070Y-96080580*
X123501102Y-96080574*
X123501192Y-96080536*
X123659862Y-95921858*
X123659900Y-95921768*
X123659880Y-95321248*
X123659752Y-95321120*
X123639954Y-95321100*
X123639900Y-95321046*
X123639906Y-95141750*
X123639924Y-95141706*
X123659862Y-95121758*
X123659900Y-95121668*
X123659920Y-95049714*
X123659974Y-95049660*
X123913846Y-95049680*
X123913900Y-95049734*
X123913906Y-95121682*
X123913944Y-95121772*
X124072622Y-95280442*
X124072712Y-95280480*
X125011738Y-95280478*
X125011786Y-95280468*
X125245128Y-95183814*
X125245170Y-95183786*
X125356746Y-95072218*
X125356790Y-95072200*
X125361652Y-95072194*
X125361742Y-95072156*
X125520412Y-94913478*
X125520450Y-94913388*
X125520448Y-94821452*
X125520438Y-94821404*
X125510176Y-94796592*
X125520440Y-94771806*
X125520450Y-94771758*
X125520444Y-94679818*
X125520406Y-94679728*
X125361728Y-94521058*
X125361638Y-94521020*
X125356776Y-94521014*
X125356732Y-94520996*
X125245124Y-94409400*
X125209482Y-94394578*
X125299256Y-94335610*
X126567870Y-94335606*
X126567914Y-94335624*
X127130542Y-94898260*
X127130560Y-94898304*
Y-95064990*
X127177534Y-95307098*
X127177554Y-95307144*
X127317316Y-95519906*
X127528342Y-95662364*
X127528388Y-95662384*
X127777988Y-95712438*
X128277990Y-95712440*
X128520100Y-95665466*
X128520146Y-95665446*
X128732906Y-95525684*
X128777630Y-95459498*
X128791390Y-95480450*
X128791386Y-96037270*
X128779646Y-96054616*
X128637712Y-95912688*
X128637670Y-95912660*
X128404328Y-95816010*
X128404280Y-95816000*
X128311798Y-95816006*
X128311708Y-95816044*
X128153038Y-95974722*
X128153000Y-95974812*
X128153020Y-96773872*
X128153148Y-96774000*
X128174946Y-96774020*
X128175000Y-96774074*
X128174980Y-97027946*
X128174926Y-97028000*
X128153128Y-97028020*
X128153000Y-97028148*
X128152980Y-97047946*
X128152926Y-97048000*
X127903054Y-97047980*
X127903000Y-97047926*
Y-97028128*
X127902872Y-97028000*
X127301798Y-97028006*
X127301708Y-97028044*
X127143038Y-97186722*
X127143000Y-97186812*
X127143002Y-97477288*
X127143012Y-97477336*
X127239666Y-97710676*
X127239694Y-97710718*
X127418288Y-97889310*
X127418330Y-97889338*
X127615994Y-97971244*
X127456340Y-98130954*
X127296682Y-98369896*
X127296662Y-98369944*
X127240600Y-98651814*
X127240586Y-99009070*
X127129836Y-99173142*
X127129816Y-99173188*
X127079760Y-99422814*
Y-100322790*
X127126734Y-100564898*
X127126754Y-100564944*
X127266516Y-100777706*
X127477542Y-100920164*
X127477588Y-100920184*
X127727188Y-100970238*
X128227190Y-100970240*
X128469300Y-100923266*
X128469346Y-100923246*
X128682108Y-100783484*
X128726830Y-100717298*
X128766516Y-100777706*
X128977542Y-100920164*
X128977588Y-100920184*
X129227188Y-100970238*
X129727190Y-100970240*
X129969300Y-100923266*
X129969346Y-100923246*
X130182108Y-100783484*
X130196748Y-100761826*
X130196798Y-100761800*
X130301946Y-100761820*
X130302000Y-100761874*
X130301964Y-102188418*
X130238652Y-102092056*
X130027658Y-101949634*
X130027612Y-101949614*
X129777986Y-101899560*
X129277986Y-101899562*
X129035902Y-101946532*
X129035856Y-101946552*
X128823058Y-102086348*
X128778370Y-102152500*
X128738652Y-102092056*
X128527658Y-101949634*
X128527612Y-101949614*
X128277986Y-101899560*
X127777986Y-101899562*
X127535902Y-101946532*
X127535856Y-101946552*
X127323058Y-102086348*
X127205580Y-102260374*
X127205530Y-102260400*
X125520450*
X123062986Y-102260402*
X122781138Y-102316466*
X122781090Y-102316486*
X122542136Y-102476156*
X121741900Y-103276382*
X121741856Y-103276400*
X119922706Y-103276390*
X119922658Y-103276364*
X119845732Y-103159276*
X119634738Y-103016854*
X119634692Y-103016834*
X119385066Y-102966780*
X118884452Y-102966754*
G37*
G36*
X118376700Y-106364584D02*
G01X118376726Y-105016944D01*
X118587508Y-105059218*
X119385070Y-105059220*
X119627180Y-105012246*
X119627226Y-105012226*
X119839988Y-104872464*
X119922926Y-104749626*
X119922976Y-104749600*
X122046990*
X122328864Y-104693534*
X122328912Y-104693514*
X122567848Y-104533858*
X123368100Y-103733618*
X123368144Y-103733600*
X127206728Y-103733610*
X127206776Y-103733636*
X127317316Y-103901906*
X127528342Y-104044364*
X127528388Y-104044384*
X127777988Y-104094438*
X128277990Y-104094440*
X128520100Y-104047466*
X128520146Y-104047446*
X128664360Y-103952764*
X128562280Y-104198610*
X128562270Y-104198660*
X128561932Y-104587640*
X128561942Y-104587688*
X128586778Y-104648000*
X127431786Y-104648002*
X127091618Y-104715666*
X127091570Y-104715686*
X126803172Y-104908394*
X125228376Y-106483192*
X125035684Y-106771576*
X125035664Y-106771624*
X124968000Y-107111814*
X124967990Y-107143908*
X124967964Y-107143956*
X124944858Y-107159148*
X124802436Y-107370142*
X124802416Y-107370188*
X124752360Y-107619814*
Y-108534190*
X124799334Y-108776298*
X124799354Y-108776344*
X124939116Y-108989106*
X124961574Y-109004360*
X124510786Y-109004362*
X124268702Y-109051332*
X124268656Y-109051352*
X124055858Y-109191148*
X123913436Y-109402142*
X123913416Y-109402188*
X123863360Y-109651814*
Y-110566190*
X123910334Y-110808298*
X123910354Y-110808344*
X124050116Y-111021106*
X124231374Y-111143480*
X124231400Y-111143530*
X124231366Y-113791654*
X122821846Y-112382138*
X122726626Y-112318500*
X122614652Y-112148056*
X122403658Y-112005634*
X122403612Y-112005614*
X122153986Y-111955560*
X120603986Y-111955562*
X120361902Y-112002532*
X120361856Y-112002552*
X120149058Y-112142348*
X120015000Y-112340876*
X120014998Y-111511986*
X120003000Y-111451656*
X120003004Y-111402208*
X120111366Y-111241658*
X120111386Y-111241612*
X120161438Y-110992012*
Y-110241986*
X120114468Y-109999900*
X120114448Y-109999854*
X120003000Y-109830168*
X120002998Y-108359140*
X119935334Y-108018970*
X119935314Y-108018922*
X119742606Y-107730526*
X118376718Y-106364628*
X118376700Y-106364584*
G37*
%LPC*%
G36*
X161913006Y-98768202D02*
G01X161913044Y-98768292D01*
X162071722Y-98926962*
X162071812Y-98927000*
X162312288Y-98926998*
X162312336Y-98926988*
X162545676Y-98830334*
X162545718Y-98830306*
X162623516Y-98752540*
X162701288Y-98830310*
X162701330Y-98830338*
X162934674Y-98926990*
X162934722Y-98927000*
X163175202Y-98926994*
X163175292Y-98926956*
X163333996Y-98768300*
X163334034Y-98768210*
X163333980Y-98044128*
X163333852Y-98044000*
X161913128Y-98044020*
X161913000Y-98044148*
X161913006Y-98768202*
G37*
G36*
X127143006Y-96615202D02*
G01X127143044Y-96615292D01*
X127301722Y-96773962*
X127301812Y-96774000*
X127902912*
X127903040Y-96773872*
X127902994Y-95974798*
X127902956Y-95974708*
X127744278Y-95816038*
X127744188Y-95816000*
X127651714Y-95816002*
X127651666Y-95816012*
X127418324Y-95912664*
X127418282Y-95912692*
X127239690Y-96091286*
X127239662Y-96091328*
X127143010Y-96324672*
X127143000Y-96324720*
X127143006Y-96615202*
G37*
G36*
X123913906Y-95921782D02*
G01X123913944Y-95921872D01*
X124072622Y-96080542*
X124072712Y-96080580*
X125011738Y-96080578*
X125011786Y-96080568*
X125245122Y-95983918*
X125245164Y-95983890*
X125423762Y-95805292*
X125423790Y-95805250*
X125520480Y-95571910*
X125520490Y-95571862*
X125520444Y-95479918*
X125520406Y-95479828*
X125361728Y-95321158*
X125361638Y-95321120*
X123914028Y-95321140*
X123913900Y-95321268*
X123913906Y-95921782*
G37*
%LPD*%
G36*
X156743400Y-99298398D02*
G01X156743406Y-96520330D01*
X156743424Y-96520286*
X156900420Y-96363304*
X156870400Y-96514428*
X156870394Y-99171430*
X156870376Y-99171474*
X156743400Y-99298398*
G37*
G54D11*
X143421100Y-129133600D03*
X145961100D03*
X148501100D03*
X151041100D03*
X153581100D03*
X156121100D03*
X158661100D03*
X161201100D03*
X166281100D03*
X168821100D03*
X171361100D03*
X173901100D03*
X176441100D03*
X178981100D03*
G54D12*
Y-80873600D03*
X176441100D03*
X173901100D03*
X171361100D03*
X168821100D03*
X166281100D03*
X163741100D03*
X161201100D03*
X157137100D03*
X154597100D03*
X152057100D03*
X149517100D03*
X146977100D03*
X144437100D03*
X141897100D03*
X139359640D03*
X136817100D03*
X134277100D03*
G54D29*
X166636000Y-95885000D03*
X168136000D03*
X159778000Y-109220000D03*
X161278000D03*
X164834000Y-95885000D03*
X163334000D03*
G54D72*
X139319000Y-87388000D03*
Y-88888000D03*
X129540000Y-85483000D03*
Y-86983000D03*
G54D29*
X160286000Y-97917000D03*
X161786000D03*
G54D72*
X141605000Y-87388000D03*
Y-88888000D03*
G54D29*
X149721000Y-115824000D03*
X148221000D03*
X138291000D03*
X136791000D03*
X145149000D03*
X143649000D03*
X166636000Y-97917000D03*
X168136000D03*
X164961000D03*
X163461000D03*
X164580000Y-109220000D03*
X163080000D03*
X166382000D03*
X167882000D03*
X140347000Y-115824000D03*
X141847000D03*
G54D73*
X132207000Y-120810020D03*
Y-124807980D03*
G54D30*
X117487700Y-104013000D03*
X118986300D03*
G54D13*
X123261120Y-129379980D03*
G54D14*
X120009920Y-124079000D03*
G54D15*
X126011940D03*
G54D31*
X161659000Y-95885000D03*
X160159000D03*
G54D32*
X126746000Y-110109000D03*
X124968000D03*
X125857000Y-108077000D03*
G54D33*
X127381000Y-87110000D03*
Y-85610000D03*
X131953000Y-87110000D03*
Y-85610000D03*
G54D31*
X160643000Y-115951000D03*
X159143000D03*
G54D33*
X164973000Y-118757000D03*
Y-120257000D03*
X167005000Y-118757000D03*
Y-120257000D03*
X117729000Y-117082000D03*
Y-115582000D03*
G54D31*
X128028000Y-94615000D03*
X129528000D03*
X128028000Y-92456000D03*
X129528000D03*
X128028000Y-96901000D03*
X129528000D03*
X129477200Y-99872800D03*
X127977200D03*
X128028000Y-102997000D03*
X129528000D03*
G54D33*
X117729000Y-114034000D03*
Y-112534000D03*
X134874000Y-88761000D03*
Y-87261000D03*
X136906000Y-88761000D03*
Y-87261000D03*
G54D31*
X171208000Y-90043000D03*
X172708000D03*
G54D34*
X118320820Y-82296000D03*
X125519180D03*
G54D35*
X139827000Y-125730000D03*
G54D36*
Y-119126000D03*
X137541000D03*
X142113000D03*
G54D37*
X155067000Y-121285000D03*
G54D38*
X148463000D03*
Y-123571000D03*
Y-118999000D03*
G54D39*
X155610560Y-104119680D03*
Y-103619300D03*
Y-103118920D03*
Y-102621080D03*
Y-102120700D03*
Y-105620820D03*
Y-105120440D03*
Y-104620060D03*
G54D40*
X154261820Y-98770440D03*
X153761440D03*
X153261060D03*
X152760680D03*
X152260300D03*
X151759920D03*
X151262080D03*
X150761700D03*
G54D39*
X147411440Y-100119180D03*
Y-100619560D03*
Y-101119940D03*
Y-101620320D03*
Y-102120700D03*
Y-102621080D03*
Y-103118920D03*
Y-103619300D03*
G54D40*
X148760180Y-106969560D03*
X149260560D03*
X149760940D03*
X150261320D03*
X150761700D03*
X151262080D03*
X151759920D03*
X152260300D03*
G54D39*
X155610560Y-101620320D03*
Y-101119940D03*
Y-100619560D03*
Y-100119180D03*
G54D40*
X150261320Y-98770440D03*
X149760940D03*
X149260560D03*
X148760180D03*
G54D39*
X147411440Y-104119680D03*
Y-104620060D03*
Y-105120440D03*
Y-105620820D03*
G54D40*
X152760680Y-106969560D03*
X153261060D03*
X153761440D03*
X154261820D03*
G54D41*
X138557000Y-100916000D03*
Y-97966000D03*
G54D42*
X140082000Y-99441000D03*
G54D43*
X121379000Y-112903000D03*
Y-114173000D03*
Y-115443000D03*
Y-116713000D03*
X126779000D03*
Y-115443000D03*
Y-114173000D03*
Y-112903000D03*
G54D16*
X166878000Y-101346000D03*
X161798000D03*
G54D17*
X158922000Y-106849000D03*
Y-105749000D03*
G54D44*
X167922000Y-106299000D03*
G54D18*
X179011580Y-101155500D03*
G54D19*
X182049420D03*
X179011580Y-103695500D03*
X182049420D03*
X179011580Y-106235500D03*
X182049420D03*
G54D45*
X132207000Y-113261140D03*
Y-116862860D03*
G54D20*
X181737000Y-111252000D03*
G54D21*
X179197000D03*
X181737000Y-113792000D03*
X179197000D03*
X181737000Y-116332000D03*
X179197000D03*
X181737000Y-118872000D03*
X179197000D03*
G54D29*
X119114000Y-110617000D03*
X117614000D03*
X151523000Y-115824000D03*
X153023000D03*
G54D46*
X127828000Y-89535000D03*
X129728000D03*
G54D47*
X123507500Y-98028760D03*
G54D48*
X123786900Y-92001340D03*
Y-92801440D03*
Y-93599000D03*
Y-94396560D03*
Y-95196660D03*
G54D47*
X123507500Y-89169240D03*
X118008400D03*
Y-98028760D03*
G54D33*
X174625000Y-85864000D03*
Y-87364000D03*
X171450000Y-85864000D03*
Y-87364000D03*
G54D22*
X170307000Y-99441000D03*
X119761000Y-114173000D03*
X146685000Y-111633000D03*
X162560000Y-120650000D03*
X151523000Y-121287322D03*
X157480000Y-84328000D03*
X155829000Y-84582000D03*
X157099000Y-88773000D03*
X167767000Y-84963000D03*
X143256000Y-90424000D03*
X138049000Y-90805000D03*
X139065000Y-93091000D03*
X144236440Y-105120440D03*
X169037000Y-109093000D03*
X156337000Y-108331000D03*
Y-110109000D03*
X137287000Y-95123000D03*
X126365000Y-97917000D03*
X117983000Y-84963000D03*
X129524760Y-118237000D03*
X135509000Y-115189000D03*
X143510000Y-119126000D03*
X176911000Y-111379000D03*
X169291000Y-98171000D03*
X163449000Y-98933000D03*
X148717000Y-95631000D03*
X153289000Y-104521000D03*
X157353000Y-102489000D03*
X117475000Y-108839000D03*
X120777000Y-107823000D03*
X121539000Y-110363000D03*
X123571000Y-107315000D03*
X121539000Y-106045000D03*
X148209000Y-114427000D03*
X154305000Y-117475000D03*
X156845000Y-98679000D03*
X159639000Y-93599000D03*
X143637000Y-116967000D03*
X151003000Y-105410000D03*
X155194000Y-97663000D03*
X142367000Y-106680000D03*
X144272000Y-107315000D03*
X122174000Y-82296000D03*
X125857000Y-79629000D03*
X127508000Y-81534000D03*
X128651000Y-83439000D03*
X133223000Y-106045000D03*
X130810000Y-107315000D03*
X133985000Y-107569000D03*
X135255000Y-104775000D03*
X135382000Y-111506000D03*
X138176000D03*
X140843000Y-111379000D03*
X143637000Y-111506000D03*
X124079000Y-118745000D03*
X125730000Y-120015000D03*
X128651000Y-121158000D03*
X179527006Y-108458000D03*
X177978262D03*
X177038000Y-107696000D03*
X174879000Y-90932000D03*
X173736000Y-90805000D03*
X179324000Y-93345000D03*
Y-90551000D03*
X117856000Y-128143000D03*
X117475000Y-120904000D03*
X132842000Y-128778000D03*
X135382000D03*
X138049000D03*
X140589000D03*
X175022494Y-92599492D03*
X154051000Y-100584000D03*
X125857000Y-100330000D03*
X125730000Y-102108000D03*
X121666000Y-101346000D03*
X120396000Y-102362000D03*
X142748000Y-84582000D03*
X164592000Y-104648000D03*
X165989000Y-116967000D03*
X176403000Y-120523000D03*
X173736000D03*
Y-123444000D03*
X166624000D03*
X160782000Y-118872000D03*
X174879000Y-84074000D03*
X131013200Y-89535000D03*
X131191000Y-99695000D03*
X147955000Y-107442000D03*
Y-111633000D03*
X154309556Y-102621080D03*
X154813000Y-115951000D03*
X133096000Y-87503000D03*
X172720000Y-105156000D03*
X173736000Y-102997000D03*
X174498000Y-104394000D03*
X173228000Y-87249000D03*
X149987000Y-93345000D03*
X151638000Y-100965000D03*
X150241000Y-92075000D03*
X150876000Y-101727000D03*
X150495000Y-90297000D03*
X148954270Y-100900380D03*
X156464000Y-90932000D03*
X159893000Y-85090000D03*
X148717000Y-92583000D03*
X150241000Y-100965000D03*
X148717000Y-91567000D03*
X149606000Y-101600000D03*
X146735800Y-83972400D03*
X145669000Y-86995000D03*
X159385000Y-96647000D03*
X151892000Y-108966000D03*
X151384000Y-109728000D03*
X158445200Y-93776800D03*
X172974000Y-103759000D03*
X157752816Y-94469184D03*
X154559000Y-110109000D03*
X158242000Y-115189000D03*
X138816080Y-102621080D03*
X129540000Y-104394000D03*
X158369000Y-113157000D03*
X155448000Y-111252000D03*
X157353000Y-107188000D03*
X158115000Y-112014000D03*
X153289000Y-110617000D03*
G54D23*
X181800500Y-99504500D02*
G01X181483000Y-99187000D01*
Y-99187000D02*
G01X179197000D01*
X149721000Y-115824000D02*
G01X151523000D01*
X161659000Y-95885000D02*
G01Y-95389000D01*
X164834000Y-94984000D02*
G01Y-95885000D01*
X164465000Y-94615000D02*
G01X164834000Y-94984000D01*
X162433000Y-94615000D02*
G01X164465000D01*
X164834000Y-95885000D02*
G01X166636000D01*
X119114000Y-108359154D02*
G01X117487700Y-106732854D01*
X119114000Y-110617000D02*
G01Y-108359154D01*
X117487700Y-106732854D02*
G01Y-104013000D01*
X119126000Y-113284000D02*
G01X120015000Y-114173000D01*
Y-114173000D02*
G01X121379000D01*
X119126000Y-111512000D02*
G01Y-113284000D01*
X119114000Y-111500000D02*
G01X119126000Y-111512000D01*
X119114000Y-110617000D02*
G01Y-111500000D01*
X126927800Y-87110000D02*
G01X126658786D01*
X127828800Y-88011000D02*
G01X126927800Y-87110000D01*
X126658786D02*
G01X127381000D01*
X166636000Y-95885000D02*
G01X166661000D01*
X167931000Y-94615000D02*
G01X168783000D01*
X159802036Y-110871000D02*
G01X159778000Y-110895036D01*
Y-110895036D02*
G01Y-109220000D01*
Y-112280000D02*
G01Y-110895036D01*
X163911684Y-110871000D02*
G01X159802036D01*
X169037000D02*
G01X163911684D01*
Y-110871000D02*
G01X161925000D01*
X159802036D02*
G01X169799000D01*
X170011946Y-95843946D02*
G01X168856700Y-94688698D01*
X162359302D02*
G01X162433000Y-94615000D01*
X161659000Y-95885000D02*
G01Y-94881000D01*
X161925000Y-94615000D02*
G01X164810368D01*
X161659000Y-94881000D02*
G01X161925000Y-94615000D01*
X164810368D02*
G01X164465000D01*
X170307000Y-96139000D02*
G01X169801086Y-95633086D01*
X170307000Y-99441000D02*
G01Y-96139000D01*
X169801086Y-95633086D02*
G01X168783000Y-94615000D01*
X170011946Y-95843946D02*
G01X169801086Y-95633086D01*
X170307000Y-110363000D02*
G01X169799000Y-110871000D01*
X170307000Y-99441000D02*
G01Y-110363000D01*
X159802036Y-113066036D02*
G01Y-110871000D01*
Y-109244036D02*
G01X159778000Y-109220000D01*
X159802036Y-110871000D02*
G01Y-109244036D01*
X155829000Y-109220000D02*
G01X155960746D01*
X156285692D02*
G01X155829000D01*
X159778000D02*
G01X156285692D01*
Y-109220000D02*
G01X155960746D01*
X120015000Y-114173000D02*
G01X119126000Y-113284000D01*
X119761000Y-114173000D02*
G01X120015000D01*
X120142000Y-88011000D02*
G01X121043000Y-87110000D01*
X120142000Y-90424000D02*
G01Y-88011000D01*
X119253000Y-95885000D02*
G01Y-91313000D01*
X120142000Y-96774000D02*
G01X119253000Y-95885000D01*
X120142000Y-100451920D02*
G01Y-96774000D01*
X121043000Y-87110000D02*
G01X126658786D01*
X117487700Y-103106220D02*
G01X120142000Y-100451920D01*
X119253000Y-91313000D02*
G01X120142000Y-90424000D01*
X117487700Y-104013000D02*
G01Y-103106220D01*
G54D24*
X166636000Y-94655132D02*
G01X166676134Y-94615000D01*
X166636000Y-95885000D02*
G01Y-94655132D01*
G54D23*
X166676134Y-94615000D02*
G01X164810368D01*
X168783000D02*
G01X166676134D01*
X146685000Y-107002854D02*
G01Y-106700320D01*
G54D24*
X147168824Y-105625900D02*
G01X147411440D01*
G54D23*
X146685000Y-111633000D02*
G01Y-107534644D01*
Y-107534644D02*
G01Y-107002854D01*
G54D24*
X147406360Y-105625900D02*
G01X147411440D01*
X146685000Y-106347260D02*
G01X147406360Y-105625900D01*
X146685000Y-106700320D02*
G01Y-106347260D01*
X155610560Y-105620820D02*
G01X154602180D01*
X154475180D02*
G01X154261820Y-105834180D01*
X155610560Y-105620820D02*
G01X154475180D01*
X148760180Y-98770440D02*
G01Y-99623880D01*
G54D23*
X154933632Y-108324630D02*
G01Y-106940368D01*
X155829000Y-109220000D02*
G01X154933632Y-108324630D01*
X151041100Y-129133600D02*
G01Y-128689100D01*
X128442608Y-88011000D02*
G01X131445000D01*
X130429000D02*
G01X128442608D01*
Y-88011000D02*
G01X127828800D01*
G54D24*
X154904440Y-106969560D02*
G01X154933632Y-106940368D01*
X155610560Y-106263440D02*
G01X155321000Y-106553000D01*
G54D23*
Y-106553000D02*
G01X154933632Y-106940368D01*
G54D10*
X155610560Y-106263440D02*
G01X155321000Y-106553000D01*
X155610560Y-105620820D02*
G01Y-106263440D01*
X154904440Y-106969560D02*
G01X154933632Y-106940368D01*
X154261820Y-106969560D02*
G01X154904440D01*
X148760180Y-98770440D02*
G01Y-99674680D01*
Y-99674680D02*
G01X149034500Y-99949000D01*
Y-99949000D02*
G01X149085300D01*
G54D23*
X154305000Y-105168700D02*
G01Y-105791000D01*
X149085300Y-99949000D02*
G01X152146000D01*
Y-99949000D02*
G01X152781000Y-100584000D01*
Y-102489000D02*
G01X153763856Y-103471856D01*
X152781000Y-100584000D02*
G01Y-102489000D01*
X153763856Y-103471856D02*
G01X153890856D01*
Y-103471856D02*
G01X154305000Y-103886000D01*
Y-103886000D02*
G01Y-105168700D01*
G54D10*
X154261820Y-105834180D02*
G01X154305000Y-105791000D01*
X154261820Y-106969560D02*
G01Y-105834180D01*
G54D23*
X161798104Y-115062102D02*
G01X162982378Y-116246376D01*
X161798104Y-115062102D02*
G01X159802036Y-113066036D01*
X163005338Y-116269338D02*
G01Y-118047338D01*
Y-116269338D02*
G01X161798104Y-115062102D01*
X163715000Y-118757000D02*
G01X164973000D01*
X163005338Y-118047338D02*
G01X163715000Y-118757000D01*
X163005338Y-120204662D02*
G01X162560000Y-120650000D01*
X163005338Y-118047338D02*
G01Y-120204662D01*
X132195000Y-88761000D02*
G01X131832750Y-88398748D01*
X136906000Y-88761000D02*
G01X132195000D01*
X131832750Y-88398748D02*
G01X132207000Y-88773000D01*
X131445000Y-88011000D02*
G01X131832750Y-88398748D01*
X134874000Y-88761000D02*
G01X136906000D01*
X181483000Y-99187000D02*
G01X181800500Y-99504500D01*
X179197000Y-99187000D02*
G01X181483000D01*
X177800000Y-88011000D02*
G01Y-97790000D01*
Y-97790000D02*
G01X179197000Y-99187000D01*
X181800500Y-99504500D02*
G01Y-101155500D01*
X171450000Y-85864000D02*
G01X175671518D01*
X175653000D02*
G01X177800000Y-88011000D01*
X174625000Y-85864000D02*
G01X175653000D01*
X149733000Y-125984000D02*
G01X151523000Y-124194000D01*
X147502880Y-125984000D02*
G01X149733000D01*
X145961100Y-127525780D02*
G01X147502880Y-125984000D01*
X145961100Y-129133600D02*
G01Y-127525780D01*
X151520678Y-121285000D02*
G01X151523000Y-121287322D01*
X148463000Y-121285000D02*
G01X151520678D01*
X151523000Y-121287322D02*
G01Y-115824000D01*
Y-124194000D02*
G01Y-121287322D01*
G54D24*
X127889000Y-94615000D02*
G01X128028000D01*
X126873000Y-93599000D02*
G01X127889000Y-94615000D01*
X123786900Y-93599000D02*
G01X126873000D01*
X155829000Y-84582000D02*
G01X157226000D01*
Y-84582000D02*
G01X157480000Y-84328000D01*
X143256000Y-90424000D02*
G01X138430000D01*
X141605000Y-88913000D02*
G01X143116000Y-90424000D01*
Y-90424000D02*
G01X143256000D01*
X138430000D02*
G01X138049000Y-90805000D01*
X137287000Y-95123000D02*
G01Y-94869000D01*
Y-94869000D02*
G01X139065000Y-93091000D01*
X117729000Y-112534000D02*
G01Y-110732000D01*
Y-110732000D02*
G01X117614000Y-110617000D01*
X123786900Y-95196660D02*
G01X126184660D01*
Y-95196660D02*
G01X126238000Y-95250000D01*
X123786900Y-94396560D02*
G01X125384560D01*
Y-94396560D02*
G01X126238000Y-95250000D01*
Y-95250000D02*
G01X127889000Y-96901000D01*
Y-96901000D02*
G01X128028000D01*
X140450000Y-85217000D02*
G01Y-83324000D01*
Y-83324000D02*
G01X141897100Y-81876900D01*
Y-81876900D02*
G01Y-80873600D01*
X140450000Y-85078000D02*
G01Y-85217000D01*
X128028000Y-96659000D02*
G01Y-96901000D01*
X168136000Y-95885000D02*
G01Y-97917000D01*
X163334000Y-95885000D02*
G01Y-97790000D01*
Y-97790000D02*
G01X163461000Y-97917000D01*
X161786000D02*
G01X163461000D01*
X161278000Y-109220000D02*
G01X163080000D01*
X147411440Y-105120440D02*
G01X144236440D01*
X168910000Y-109220000D02*
G01X169037000Y-109093000D01*
X167882000Y-109220000D02*
G01X168910000D01*
X161278000D02*
G01Y-107938000D01*
Y-107938000D02*
G01X161163000Y-107823000D01*
Y-107823000D02*
G01X158369000D01*
Y-107823000D02*
G01X157861000Y-108331000D01*
Y-108331000D02*
G01X156337000D01*
X154813000Y-109093000D02*
G01X155829000Y-110109000D01*
Y-110109000D02*
G01X156337000D01*
X163461000Y-97917000D02*
G01Y-98495200D01*
X138557000Y-97237800D02*
G01X137287000Y-95967800D01*
X138557000Y-97966000D02*
G01Y-97237800D01*
X137287000Y-95967800D02*
G01Y-95123000D01*
X127574800Y-96901000D02*
G01X126558800Y-97917000D01*
X128028000Y-96901000D02*
G01X127574800D01*
X126558800Y-97917000D02*
G01X126365000D01*
X128961800Y-86983000D02*
G01X128465800Y-86487000D01*
X129540000Y-86983000D02*
G01X128961800D01*
X128465800Y-86487000D02*
G01X125857000D01*
Y-86487000D02*
G01X125095000Y-85725000D01*
Y-85725000D02*
G01X120015000D01*
X118320820Y-84030820D02*
G01Y-82296000D01*
X120015000Y-85725000D02*
G01X118320820Y-84030820D01*
Y-82296000D02*
G01Y-84625180D01*
Y-84625180D02*
G01X117983000Y-84963000D01*
X124972820Y-120810020D02*
G01X132207000D01*
X121379000Y-117216200D02*
G01X124972820Y-120810020D01*
X121379000Y-116713000D02*
G01Y-117216200D01*
G54D23*
X130898900Y-116862860D02*
G01X129524760Y-118237000D01*
X132207000Y-116862860D02*
G01X130898900D01*
G54D24*
X136791000Y-115824000D02*
G01X136144000D01*
Y-115824000D02*
G01X135509000Y-115189000D01*
G54D23*
X142113000Y-119126000D02*
G01X143510000D01*
G54D24*
X143649000Y-115824000D02*
G01X143674000D01*
X147617800D02*
G01X148221000D01*
G54D23*
X175768000Y-111748000D02*
G01Y-113169000D01*
G54D24*
X176542000Y-111748000D02*
G01X176911000Y-111379000D01*
X175768000Y-111748000D02*
G01X176542000D01*
X153761440Y-108041440D02*
G01X154813000Y-109093000D01*
X153761440Y-106969560D02*
G01Y-108041440D01*
X169037000Y-97917000D02*
G01X169291000Y-98171000D01*
X168136000Y-97917000D02*
G01X169037000D01*
X163461000Y-98921000D02*
G01X163449000Y-98933000D01*
X163461000Y-97917000D02*
G01Y-98921000D01*
G54D10*
X149260560Y-96174560D02*
G01X148717000Y-95631000D01*
X149260560Y-98770440D02*
G01Y-96174560D01*
G54D24*
X153761440Y-106969560D02*
G01Y-104993440D01*
Y-104993440D02*
G01X153289000Y-104521000D01*
G54D10*
X155610560Y-102120700D02*
G01X156984700D01*
Y-102120700D02*
G01X157353000Y-102489000D01*
G54D24*
X117614000Y-110617000D02*
G01Y-108978000D01*
Y-108978000D02*
G01X117475000Y-108839000D01*
X121539000Y-110363000D02*
G01X123571000Y-108331000D01*
Y-108331000D02*
G01Y-107315000D01*
G54D23*
X148221000Y-114439000D02*
G01X148209000Y-114427000D01*
X148221000Y-115824000D02*
G01Y-114439000D01*
X153023000Y-116193000D02*
G01X154305000Y-117475000D01*
X153023000Y-115824000D02*
G01Y-116193000D01*
G54D24*
X156845000Y-97048834D02*
G01Y-96393000D01*
Y-98679000D02*
G01Y-97048834D01*
Y-96393000D02*
G01X159639000Y-93599000D01*
G54D23*
X142113000Y-119126000D02*
G01Y-117475000D01*
X141847000Y-117209000D02*
G01Y-115824000D01*
X142113000Y-117475000D02*
G01X141847000Y-117209000D01*
Y-115824000D02*
G01X143649000D01*
Y-116707000D02*
G01X143637000Y-116719000D01*
X143649000Y-115824000D02*
G01Y-116707000D01*
X143637000Y-116719000D02*
G01Y-116967000D01*
X132207000Y-116862860D02*
G01Y-120810020D01*
X134844140Y-116862860D02*
G01X134597140D01*
X135883000Y-115824000D02*
G01X134844140Y-116862860D01*
X136791000Y-115824000D02*
G01X135883000D01*
X134597140Y-116862860D02*
G01X132207000D01*
X146170000Y-116967000D02*
G01X145559050D01*
X147313000Y-115824000D02*
G01X146170000Y-116967000D01*
X148221000Y-115824000D02*
G01X147313000D01*
X143637000Y-116967000D02*
G01X145559050D01*
G54D24*
X177800000Y-108458000D02*
G01X176657000Y-107315000D01*
Y-107315000D02*
G01Y-98933000D01*
Y-98933000D02*
G01X176276000Y-98552000D01*
Y-98552000D02*
G01Y-93853000D01*
X157861000Y-88773000D02*
G01X157734000D01*
X157861000D02*
G01X157099000D01*
X142676880Y-106680000D02*
G01X142367000D01*
X144236440Y-105120440D02*
G01X142676880Y-106680000D01*
X143929102Y-107657898D02*
G01Y-111671100D01*
X144272000Y-107315000D02*
G01X143929102Y-107657898D01*
Y-111671100D02*
G01X143764000Y-111506000D01*
X119507000Y-84963000D02*
G01X122174000Y-82296000D01*
X117983000Y-84963000D02*
G01X119507000D01*
X125857000Y-79629000D02*
G01X127508000Y-81280000D01*
Y-81280000D02*
G01Y-81534000D01*
X133858000Y-106680000D02*
G01X133223000Y-106045000D01*
X142367000Y-106680000D02*
G01X133858000D01*
X133731000Y-107315000D02*
G01X133985000Y-107569000D01*
X130810000Y-107315000D02*
G01X133731000D01*
X135255000Y-111379000D02*
G01X135382000Y-111506000D01*
X135255000Y-104775000D02*
G01Y-111379000D01*
X140716000Y-111506000D02*
G01X140843000Y-111379000D01*
X138176000Y-111506000D02*
G01X140716000D01*
X124587000Y-118237000D02*
G01X124079000Y-118745000D01*
X129524760Y-118237000D02*
G01X124587000D01*
X127508000Y-120015000D02*
G01X128651000Y-121158000D01*
X125730000Y-120015000D02*
G01X127508000D01*
X181749506Y-106235500D02*
G01X179527006Y-108458000D01*
X181800500Y-106235500D02*
G01X181749506D01*
X179527006Y-108458000D02*
G01X177800000D01*
X179527006D02*
G01X177978262D01*
X173863000Y-90932000D02*
G01X173736000Y-90805000D01*
X174879000Y-90932000D02*
G01X173863000D01*
X179324000Y-93345000D02*
G01Y-90551000D01*
X119092980Y-129379980D02*
G01X117856000Y-128143000D01*
X123261120Y-129379980D02*
G01X119092980D01*
X132842000Y-128778000D02*
G01X135382000D01*
X138049000D02*
G01X140589000D01*
X175069500Y-92646500D02*
G01X175022494Y-92599492D01*
X176276000Y-93853000D02*
G01X175069500Y-92646500D01*
X157467300Y-102120700D02*
G01X159258000Y-100330000D01*
Y-100330000D02*
G01Y-100076000D01*
Y-100076000D02*
G01X160020000Y-99314000D01*
Y-99314000D02*
G01X161290000D01*
Y-99314000D02*
G01X161786000Y-98818000D01*
Y-98818000D02*
G01Y-97917000D01*
X155610560Y-102120700D02*
G01X157467300D01*
X126365000Y-99822000D02*
G01X125857000Y-100330000D01*
X126365000Y-97917000D02*
G01Y-99822000D01*
X124968000Y-101346000D02*
G01X121666000D01*
X125730000Y-102108000D02*
G01X124968000Y-101346000D01*
G54D23*
X141897100Y-83731100D02*
G01X142748000Y-84582000D01*
X141897100Y-80873600D02*
G01Y-83731100D01*
G54D24*
X167005000Y-117983000D02*
G01X165989000Y-116967000D01*
X167005000Y-118757000D02*
G01Y-117983000D01*
X157099000Y-88773000D02*
G01X157988000D01*
Y-88773000D02*
G01X158115000Y-88900000D01*
X171831000D02*
G01X173736000Y-90805000D01*
X158115000Y-88900000D02*
G01X171831000D01*
X139319000Y-88888000D02*
G01X141605000D01*
Y-88888000D02*
G01Y-88913000D01*
X177546000Y-120523000D02*
G01X176403000D01*
X179197000Y-118872000D02*
G01X177546000Y-120523000D01*
X173736000D02*
G01Y-123444000D01*
X161417000D02*
G01X165173760D01*
X166624000D02*
G01X165173760D01*
X179324000Y-90551000D02*
G01Y-85598000D01*
X177800000Y-84074000D02*
G01X174879000D01*
X179324000Y-85598000D02*
G01X177800000Y-84074000D01*
G54D23*
X148221000Y-118757000D02*
G01X148463000Y-118999000D01*
X148221000Y-115824000D02*
G01Y-118757000D01*
G54D24*
X160782000Y-121775910D02*
G01X160265456Y-122292454D01*
X160782000Y-118872000D02*
G01Y-121775910D01*
X160265456Y-122292454D02*
G01X161417000Y-123444000D01*
X158877000Y-120904000D02*
G01X160265456Y-122292454D01*
X160643000Y-118733000D02*
G01X160782000Y-118872000D01*
X160643000Y-115951000D02*
G01Y-118733000D01*
G54D23*
X125857000Y-107111800D02*
G01X127431800Y-105537000D01*
X125857000Y-108077000D02*
G01Y-107111800D01*
X127431800Y-105537000D02*
G01X130048000D01*
X129728000Y-89535000D02*
G01X131013200D01*
Y-99872800D02*
G01X131191000Y-99695000D01*
X129477200Y-99872800D02*
G01X131013200D01*
X131191000Y-104394000D02*
G01X130855404Y-104729596D01*
X131191000Y-99695000D02*
G01Y-104394000D01*
X130855404Y-104729596D02*
G01X131064000Y-104521000D01*
X130048000Y-105537000D02*
G01X130855404Y-104729596D01*
G54D24*
X123786900Y-92801440D02*
G01X127035560D01*
X127381000Y-92456000D02*
G01X128028000D01*
X127035560Y-92801440D02*
G01X127381000Y-92456000D01*
X131953000Y-87110000D02*
G01X132068000D01*
X147955000Y-107442000D02*
G01Y-111379000D01*
Y-110038054D02*
G01Y-111633000D01*
Y-111379000D02*
G01Y-110038054D01*
Y-110038054D02*
G01Y-107442000D01*
X155610560Y-102621080D02*
G01X154309556D01*
X132346000Y-87503000D02*
G01X131953000Y-87110000D01*
X133096000Y-87503000D02*
G01X132346000D01*
X148501100Y-128795780D02*
G01X150622000Y-126674880D01*
X148501100Y-129133600D02*
G01Y-128795780D01*
X150622000Y-126674880D02*
G01X154249120D01*
Y-126674880D02*
G01X156845000Y-124079000D01*
Y-117983000D02*
G01X154813000Y-115951000D01*
X156845000Y-124079000D02*
G01Y-117983000D01*
X137541000Y-119126000D02*
G01Y-117729000D01*
X138291000Y-116979000D02*
G01Y-115824000D01*
X137541000Y-117729000D02*
G01X138291000Y-116979000D01*
X117729000Y-117082000D02*
G01Y-117348000D01*
X124460000Y-124079000D02*
G01X126011940D01*
X117729000Y-117348000D02*
G01X124460000Y-124079000D01*
G54D25*
X126740920Y-124807980D02*
G01X126011940Y-124079000D01*
X132207000Y-124807980D02*
G01X126740920D01*
X132207000D02*
G01X134907020D01*
X137541000Y-122174000D02*
G01Y-119126000D01*
X134907020Y-124807980D02*
G01X137541000Y-122174000D01*
G54D24*
X170497500Y-114617500D02*
G01X168148000Y-116967000D01*
X156817060Y-101119940D02*
G01X158115000Y-99822000D01*
Y-99822000D02*
G01Y-96647000D01*
Y-96647000D02*
G01X161036000Y-93726000D01*
Y-93726000D02*
G01X168783000D01*
Y-93726000D02*
G01X170942000Y-95885000D01*
X155610560Y-101119940D02*
G01X156817060D01*
X170942000Y-114173000D02*
G01X171069000Y-114046000D01*
Y-114046000D02*
G01Y-96012000D01*
Y-96012000D02*
G01X170942000Y-95885000D01*
X170497500Y-114617500D02*
G01X170942000Y-114173000D01*
X166281100Y-129133600D02*
G01Y-128795780D01*
X168148000Y-124333000D02*
G01Y-123001818D01*
Y-123001818D02*
G01Y-123215966D01*
Y-123215966D02*
G01Y-123378000D01*
Y-126928880D02*
G01X166939228Y-128137652D01*
X168148000Y-123215966D02*
G01Y-126928880D01*
X166939228Y-128137652D02*
G01X168021000Y-127055880D01*
X166281100Y-128795780D02*
G01X166939228Y-128137652D01*
X168130326Y-120257000D02*
G01X168148000Y-120274674D01*
X167005000Y-120257000D02*
G01X168130326D01*
X168148000Y-120274674D02*
G01Y-123001818D01*
Y-116967000D02*
G01Y-120274674D01*
X164973000Y-120257000D02*
G01X167005000D01*
X156464000Y-100619560D02*
G01X157607000Y-99476560D01*
X155610560Y-100619560D02*
G01X156464000D01*
X157607000Y-99476560D02*
G01Y-96514414D01*
Y-96514414D02*
G01X160827196Y-93294218D01*
Y-93294218D02*
G01X168986218D01*
Y-93294218D02*
G01X171627782Y-95935780D01*
Y-95935780D02*
G01Y-114122218D01*
Y-114122218D02*
G01X168821100Y-116928900D01*
Y-116928900D02*
G01Y-127830580D01*
Y-127830580D02*
G01Y-129133600D01*
X157480000Y-93218000D02*
G01Y-93212908D01*
X157861000Y-92837000D02*
G01X157480000Y-93218000D01*
X169164000Y-92837000D02*
G01X157861000D01*
X172720000Y-96393000D02*
G01X169164000Y-92837000D01*
X172720000Y-100711000D02*
G01Y-96393000D01*
X153761440Y-98770440D02*
G01Y-96931468D01*
Y-96931468D02*
G01X157480000Y-93212908D01*
X172720000Y-112141000D02*
G01Y-105156000D01*
Y-113792000D02*
G01Y-112141000D01*
X171894500Y-114617500D02*
G01X169672000Y-116840000D01*
Y-116840000D02*
G01Y-126141480D01*
Y-126141480D02*
G01X171361100Y-127830580D01*
Y-127830580D02*
G01Y-129133600D01*
X171894500Y-114617500D02*
G01X172720000Y-113792000D01*
Y-102108000D02*
G01X172339000Y-102489000D01*
Y-102489000D02*
G01Y-104775000D01*
Y-104775000D02*
G01X172720000Y-105156000D01*
Y-100711000D02*
G01Y-102108000D01*
X173901100Y-128795780D02*
G01Y-129133600D01*
X170180000Y-125074680D02*
G01X173901100Y-128795780D01*
X170180000Y-117094000D02*
G01Y-125074680D01*
X173253390Y-114020610D02*
G01X170180000Y-117094000D01*
X173253390Y-109728000D02*
G01Y-114020610D01*
X152760680Y-96540320D02*
G01X156908500Y-92392500D01*
X152760680Y-98770440D02*
G01Y-96540320D01*
X173253390Y-107797610D02*
G01X173736000Y-107315000D01*
Y-107315000D02*
G01Y-102997000D01*
X173253390Y-109728000D02*
G01Y-107797610D01*
X173736000Y-102997000D02*
G01Y-97917000D01*
X170053000Y-92202000D02*
G01X173736000Y-95885000D01*
Y-95885000D02*
G01Y-97917000D01*
X157353000Y-91948000D02*
G01X169799000D01*
Y-91948000D02*
G01X170053000Y-92202000D01*
X156908500Y-92392500D02*
G01X157353000Y-91948000D01*
X152273000Y-98757740D02*
G01X152260300Y-98770440D01*
Y-96151700D02*
G01X154749500Y-93662500D01*
X152260300Y-98770440D02*
G01Y-96151700D01*
X174498000Y-95885000D02*
G01X169799000Y-91186000D01*
Y-91186000D02*
G01X158496000D01*
X174498000Y-104394000D02*
G01Y-95885000D01*
X157988000Y-91186000D02*
G01X158496000D01*
X154749500Y-93662500D02*
G01X155956000Y-92456000D01*
X156845000Y-91567000D02*
G01X157226000Y-91186000D01*
Y-91186000D02*
G01X157988000D01*
X155956000Y-92456000D02*
G01X156845000Y-91567000D01*
X174391320Y-126746000D02*
G01X176441100Y-128795780D01*
X173355000Y-126746000D02*
G01X174391320D01*
X170688000Y-124079000D02*
G01X173355000Y-126746000D01*
X170688000Y-117348000D02*
G01Y-124079000D01*
X176441100Y-128795780D02*
G01Y-129133600D01*
X173863000Y-114173000D02*
G01X170688000Y-117348000D01*
X173850310Y-114160310D02*
G01X173863000Y-114173000D01*
X173850310Y-107835690D02*
G01Y-114160310D01*
X174498000Y-107188000D02*
G01X173850310Y-107835690D01*
X174498000Y-104394000D02*
G01Y-107188000D01*
X156210000Y-90170000D02*
G01X156845000D01*
X171196000Y-123444000D02*
G01X173863000Y-126111000D01*
X178981100Y-128795780D02*
G01Y-129133600D01*
X171196000Y-117475000D02*
G01Y-123444000D01*
X174498000Y-114173000D02*
G01X171196000Y-117475000D01*
X175133000Y-107696000D02*
G01X174498000Y-108331000D01*
X176296320Y-126111000D02*
G01X178981100Y-128795780D01*
X174498000Y-108331000D02*
G01Y-114173000D01*
X175133000Y-95758000D02*
G01Y-107696000D01*
X169545000Y-90170000D02*
G01X175133000Y-95758000D01*
X156210000Y-90170000D02*
G01X169545000D01*
X154749500Y-91630500D02*
G01X156210000Y-90170000D01*
X154749500Y-91757500D02*
G01Y-91630500D01*
X151262080Y-95244920D02*
G01X154749500Y-91757500D01*
X173863000Y-126111000D02*
G01X176296320D01*
X151262080Y-98770440D02*
G01Y-95244920D01*
X172263568Y-83959000D02*
G01X173901100Y-82321468D01*
Y-82321468D02*
G01Y-80873600D01*
G54D10*
Y-81210150D02*
G01Y-80873600D01*
G54D24*
X149760940Y-94587060D02*
G01X151701500Y-92646500D01*
X149760940Y-98770440D02*
G01Y-94587060D01*
X173901100Y-82321468D02*
G01Y-80873600D01*
X151701500Y-92011500D02*
G01X154686000Y-89027000D01*
X151701500Y-92646500D02*
G01Y-92011500D01*
X154686000Y-89027000D02*
G01X155003500Y-88709500D01*
Y-88709500D02*
G01X155765500Y-87947500D01*
X164868082Y-87364000D02*
G01X171450000D01*
X155949302Y-87763698D02*
G01X156349000Y-87364000D01*
X155765500Y-87947500D02*
G01X155949302Y-87763698D01*
Y-87763698D02*
G01X156337000Y-87376000D01*
X164452874Y-87364000D02*
G01X169430000D01*
X156349000D02*
G01X164452874D01*
Y-87364000D02*
G01X171450000D01*
X169430000D02*
G01X169545000Y-87249000D01*
Y-87249000D02*
G01Y-85979000D01*
X171565000Y-83959000D02*
G01X172032838D01*
X169545000Y-85979000D02*
G01X171565000Y-83959000D01*
X172032838D02*
G01X172263568D01*
X171361100Y-80873600D02*
G01Y-81210150D01*
X174510000Y-87249000D02*
G01X174625000Y-87364000D01*
X173228000Y-87249000D02*
G01X174510000D01*
X174625000Y-87817200D02*
G01Y-87364000D01*
X159639000Y-87884000D02*
G01X160147000Y-88392000D01*
X156464000Y-87884000D02*
G01X159639000D01*
X174050200Y-88392000D02*
G01X174625000Y-87817200D01*
X152273000Y-92075000D02*
G01X156464000Y-87884000D01*
X152273000Y-92837000D02*
G01Y-92075000D01*
X150261320Y-94848680D02*
G01X152273000Y-92837000D01*
X160147000Y-88392000D02*
G01X174050200D01*
X150261320Y-98770440D02*
G01Y-94848680D01*
X151257000Y-92075000D02*
G01Y-91694000D01*
Y-91694000D02*
G01X154432000Y-88519000D01*
X149987000Y-93345000D02*
G01X151257000Y-92075000D01*
X154432000Y-88519000D02*
G01X154876500Y-88074500D01*
Y-88074500D02*
G01X155575000Y-87376000D01*
X163576000Y-86868000D02*
G01X156083000D01*
Y-86868000D02*
G01X155575000Y-87376000D01*
X168821100Y-81622900D02*
G01X163576000Y-86868000D01*
X168821100Y-80873600D02*
G01Y-81622900D01*
X153261060Y-105509060D02*
G01Y-106969560D01*
X152527000Y-104775000D02*
G01X153261060Y-105509060D01*
X152527000Y-103505000D02*
G01Y-104775000D01*
X152019000Y-102997000D02*
G01X152527000Y-103505000D01*
X152019000Y-101830932D02*
G01Y-102997000D01*
X151638000Y-101449932D02*
G01X152019000Y-101830932D01*
X151638000Y-100965000D02*
G01Y-101449932D01*
X150241000Y-91821000D02*
G01X154051000Y-88011000D01*
X150241000Y-92075000D02*
G01Y-91821000D01*
X154051000Y-88011000D02*
G01X154432000Y-87630000D01*
Y-87630000D02*
G01X155194000Y-86868000D01*
X166281100Y-82257900D02*
G01X162179000Y-86360000D01*
X155702000D02*
G01X155194000Y-86868000D01*
X166281100Y-80873600D02*
G01Y-82257900D01*
X152760680Y-105643680D02*
G01Y-106969560D01*
X152019000Y-103886000D02*
G01Y-104902000D01*
X151511000Y-103378000D02*
G01X152019000Y-103886000D01*
Y-104902000D02*
G01X152760680Y-105643680D01*
X151511000Y-102362000D02*
G01Y-103378000D01*
X150876000Y-101727000D02*
G01X151511000Y-102362000D01*
X162179000Y-86360000D02*
G01X155702000D01*
X154432000D02*
G01X154559000Y-86233000D01*
X153035000Y-87757000D02*
G01X153797000Y-86995000D01*
Y-86995000D02*
G01X153987500Y-86804500D01*
X150495000Y-90297000D02*
G01X153035000Y-87757000D01*
X153987500Y-86804500D02*
G01X154432000Y-86360000D01*
X163741100Y-83527900D02*
G01X161417000Y-85852000D01*
Y-85852000D02*
G01X154940000D01*
Y-85852000D02*
G01X154559000Y-86233000D01*
X163741100Y-80873600D02*
G01Y-83527900D01*
X148264880Y-103118920D02*
G01X147411440D01*
X148590000Y-102793800D02*
G01X148264880Y-103118920D01*
X148590000Y-101854000D02*
G01Y-102793800D01*
X148954270Y-101489730D02*
G01X148590000Y-101854000D01*
X148954270Y-100900380D02*
G01Y-101489730D01*
X161201100Y-80873600D02*
G01Y-83781900D01*
Y-83781900D02*
G01X159893000Y-85090000D01*
X151759920Y-95636080D02*
G01X156464000Y-90932000D01*
X151759920Y-98770440D02*
G01Y-95636080D01*
X157137100Y-80873600D02*
G01Y-81210150D01*
X149577482Y-91722518D02*
G01X148717000Y-92583000D01*
X155835350Y-82175350D02*
G01X149577482Y-88433218D01*
Y-88433218D02*
G01Y-91722518D01*
X157137100Y-81210150D02*
G01X156171900Y-82175350D01*
Y-82175350D02*
G01X155835350D01*
X148760180Y-106969560D02*
G01Y-105112820D01*
Y-105112820D02*
G01X149479000Y-104394000D01*
Y-104394000D02*
G01Y-103632000D01*
X150226526Y-102884474D02*
G01Y-102654076D01*
X149479000Y-103632000D02*
G01X150226526Y-102884474D01*
Y-102654076D02*
G01Y-101030852D01*
X148717000Y-91567000D02*
G01X149059900Y-91224100D01*
Y-91224100D02*
G01Y-88099900D01*
Y-88099900D02*
G01X149636636Y-87523164D01*
X154597100Y-82562700D02*
G01Y-80873600D01*
X149636636Y-87523164D02*
G01X154597100Y-82562700D01*
X149606000Y-102326542D02*
G01Y-101600000D01*
X147411440Y-104620060D02*
G01X148264880D01*
X148741436Y-104143504D02*
G01Y-103607564D01*
X148264880Y-104620060D02*
G01X148741436Y-104143504D01*
X149276734Y-103072266D02*
G01Y-102655808D01*
X148741436Y-103607564D02*
G01X149276734Y-103072266D01*
Y-102655808D02*
G01X149606000Y-102326542D01*
X147411440Y-100119180D02*
G01X146093180D01*
Y-100119180D02*
G01X145542000Y-99568000D01*
Y-92990254D02*
G01Y-92837000D01*
Y-99568000D02*
G01Y-92990254D01*
Y-88690450D02*
G01Y-88833980D01*
X152057100Y-82175350D02*
G01X145542000Y-88690450D01*
X152057100Y-80873600D02*
G01Y-82175350D01*
X145542000Y-92990254D02*
G01Y-88833980D01*
X147643860Y-83083390D02*
G01X149517100Y-81210150D01*
X146406076Y-83083390D02*
G01X147643860D01*
X144145000Y-85344466D02*
G01X146406076Y-83083390D01*
X149517100Y-81210150D02*
G01Y-80873600D01*
X144145000Y-100076000D02*
G01Y-85344466D01*
X145689320Y-101620320D02*
G01X144145000Y-100076000D01*
X147411440Y-101620320D02*
G01X145689320D01*
X147411440Y-101119940D02*
G01X145823940D01*
Y-101119940D02*
G01X144653000Y-99949000D01*
Y-93721312D02*
G01Y-93345000D01*
Y-99949000D02*
G01Y-93721312D01*
Y-86055200D02*
G01X146735800Y-83972400D01*
X144653000Y-93721312D02*
G01Y-86055200D01*
X145034000Y-89675296D02*
G01Y-88005908D01*
Y-87630000D02*
G01Y-88009918D01*
Y-88009918D02*
G01Y-87655400D01*
X145669000Y-86995000D02*
G01X145034000Y-87630000D01*
Y-89675296D02*
G01Y-88009918D01*
Y-94232540D02*
G01Y-92583000D01*
Y-99695000D02*
G01Y-94232540D01*
X145958560Y-100619560D02*
G01X145034000Y-99695000D01*
X147411440Y-100619560D02*
G01X145958560D01*
X145034000Y-94232540D02*
G01Y-89675296D01*
X139359640Y-83352640D02*
G01Y-80873600D01*
X160286000Y-97917000D02*
G01Y-96012000D01*
Y-96012000D02*
G01X160159000Y-95885000D01*
G54D23*
X159397000Y-96647000D02*
G01X160159000Y-95885000D01*
G54D24*
X157078680Y-101620320D02*
G01X155610560D01*
X158623000Y-100076000D02*
G01X157078680Y-101620320D01*
X158623000Y-98976800D02*
G01Y-100076000D01*
X159682800Y-97917000D02*
G01X158623000Y-98976800D01*
X160286000Y-97917000D02*
G01X159682800D01*
G54D23*
X139319000Y-80914240D02*
G01X139359640Y-80873600D01*
X139319000Y-87388000D02*
G01Y-80914240D01*
Y-87388000D02*
G01X141605000D01*
G54D24*
X151759920Y-106969560D02*
G01Y-108198920D01*
Y-106969560D02*
G01Y-108833920D01*
Y-108833920D02*
G01X151892000Y-108966000D01*
X136906000Y-80962500D02*
G01X136817100Y-80873600D01*
X136906000Y-87261000D02*
G01Y-80962500D01*
X134277100Y-80873600D02*
G01Y-81191100D01*
Y-81191100D02*
G01X134747000Y-81661000D01*
X151262080Y-106969560D02*
G01Y-108971080D01*
Y-109595920D02*
G01X151257000Y-109601000D01*
X151262080Y-106969560D02*
G01Y-109595920D01*
X151257000Y-109601000D02*
G01X151384000Y-109728000D01*
X134874000Y-81470500D02*
G01X134277100Y-80873600D01*
X134874000Y-87261000D02*
G01Y-81470500D01*
X125519180Y-82296000D02*
G01Y-83748180D01*
Y-83748180D02*
G01X127381000Y-85610000D01*
X131953000D02*
G01X129667000D01*
Y-85610000D02*
G01X129540000Y-85483000D01*
X127381000Y-85610000D02*
G01X129413000D01*
Y-85610000D02*
G01X129540000Y-85483000D01*
X129921000Y-85610000D02*
G01X131953000D01*
X129794000Y-85483000D02*
G01X129921000Y-85610000D01*
X157530800Y-93776800D02*
G01X156718000Y-94589600D01*
X158445200Y-93776800D02*
G01X157530800D01*
X154261820Y-97198180D02*
G01X156718000Y-94742000D01*
Y-94742000D02*
G01Y-94589600D01*
X154261820Y-98770440D02*
G01Y-97198180D01*
X178981100Y-80873600D02*
G01Y-81210150D01*
X172085000Y-94996000D02*
G01X169545000Y-92456000D01*
X153261060Y-98770440D02*
G01Y-96674940D01*
X157480000Y-92456000D02*
G01X158235078D01*
X153261060Y-96674940D02*
G01X157480000Y-92456000D01*
X169545000D02*
G01X158235078D01*
X173228000Y-101346000D02*
G01Y-96139000D01*
Y-96139000D02*
G01X172085000Y-94996000D01*
X173228000Y-102362000D02*
G01X172974000Y-102616000D01*
Y-102616000D02*
G01Y-102997000D01*
X173228000Y-101346000D02*
G01Y-102362000D01*
X172974000Y-102997000D02*
G01Y-103759000D01*
X157606376Y-94615624D02*
G01X157752816Y-94469184D01*
X156006800Y-96215200D02*
G01X157606376Y-94615624D01*
X156006800Y-99369880D02*
G01Y-96215200D01*
X155610560Y-99766120D02*
G01X156006800Y-99369880D01*
X155610560Y-100119180D02*
G01Y-99766120D01*
G54D23*
X139827000Y-117602000D02*
G01X140347000Y-117082000D01*
X139827000Y-119126000D02*
G01Y-117602000D01*
X140347000Y-117082000D02*
G01Y-116569140D01*
Y-116569140D02*
G01Y-115824000D01*
Y-115824000D02*
G01Y-114941000D01*
X131848860Y-112903000D02*
G01X132207000Y-113261140D01*
X126779000Y-112903000D02*
G01X131848860D01*
X126779000Y-110142000D02*
G01X126746000Y-110109000D01*
X126779000Y-112903000D02*
G01Y-110142000D01*
G54D24*
X140347000Y-115824000D02*
G01Y-114923000D01*
G54D23*
X154663140Y-113261140D02*
G01X155361342Y-113959340D01*
Y-113959340D02*
G01X154813000Y-113411000D01*
G54D24*
X145149000Y-113262938D02*
G01X145147202Y-113261140D01*
X145149000Y-115824000D02*
G01Y-113262938D01*
G54D23*
X132207000Y-113261140D02*
G01X138667140D01*
X145533594D02*
G01X154663140D01*
X145147202D02*
G01X145533594D01*
X140347000Y-113268080D02*
G01X140340060Y-113261140D01*
X140347000Y-115824000D02*
G01Y-113268080D01*
X138667140Y-113261140D02*
G01X140340060D01*
X145149000Y-113281952D02*
G01X145128188Y-113261140D01*
X145149000Y-115824000D02*
G01Y-113281952D01*
X145128188Y-113261140D02*
G01X145533594D01*
X140340060D02*
G01X145128188D01*
X156932422Y-115530422D02*
G01X155361342Y-113959340D01*
X157734000Y-116332000D02*
G01X156932422Y-115530422D01*
X157734000Y-124642880D02*
G01Y-116332000D01*
X153581100Y-128795780D02*
G01X157734000Y-124642880D01*
X153581100Y-129133600D02*
G01Y-128795780D01*
G54D25*
X148463000Y-123571000D02*
G01X142621000D01*
Y-123571000D02*
G01Y-123559926D01*
Y-123559926D02*
G01X139827000Y-120765926D01*
Y-120765926D02*
G01Y-119126000D01*
G54D24*
X166878000Y-101346000D02*
G01Y-98159000D01*
Y-98159000D02*
G01X166636000Y-97917000D01*
X155610560Y-103619300D02*
G01X159016700D01*
X164973000Y-101346000D02*
G01X166878000D01*
X163195000Y-103124000D02*
G01X164973000Y-101346000D01*
X159512000Y-103124000D02*
G01X163195000D01*
X159016700Y-103619300D02*
G01X159512000Y-103124000D01*
X161798000Y-101346000D02*
G01X162306000D01*
Y-101346000D02*
G01X164961000Y-98691000D01*
Y-98691000D02*
G01Y-97917000D01*
X155610560Y-103118920D02*
G01X157739080D01*
X159512000Y-101346000D02*
G01X161798000D01*
X157739080Y-103118920D02*
G01X159512000Y-101346000D01*
X158922000Y-106849000D02*
G01X162729000D01*
X164580000Y-108700000D02*
G01Y-109220000D01*
X162729000Y-106849000D02*
G01X164580000Y-108700000D01*
X155610560Y-104620060D02*
G01X157198060D01*
X158538000Y-106849000D02*
G01X158922000D01*
X157861000Y-106172000D02*
G01X158538000Y-106849000D01*
X157861000Y-105283000D02*
G01Y-106172000D01*
X157198060Y-104620060D02*
G01X157861000Y-105283000D01*
X166382000Y-109220000D02*
G01Y-109105000D01*
Y-109105000D02*
G01X163026000Y-105749000D01*
Y-105749000D02*
G01X158922000D01*
X155610560Y-104119680D02*
G01X157586680D01*
Y-104119680D02*
G01X158922000Y-105455000D01*
Y-105455000D02*
G01Y-105749000D01*
X128028000Y-102997000D02*
G01X123063000D01*
X122047000Y-104013000D02*
G01X118986300D01*
X123063000Y-102997000D02*
G01X122047000Y-104013000D01*
X126779000Y-114173000D02*
G01Y-115443000D01*
X124968000Y-110109000D02*
G01Y-113792000D01*
X125349000Y-114173000D02*
G01X126779000D01*
X124968000Y-113792000D02*
G01X125349000Y-114173000D01*
X152260300Y-107823000D02*
G01X154546300Y-110109000D01*
X152260300Y-106969560D02*
G01Y-107823000D01*
X158381000Y-115189000D02*
G01X159143000Y-115951000D01*
X158242000Y-115189000D02*
G01X158381000D01*
X117729000Y-115582000D02*
G01Y-114034000D01*
X121379000Y-115443000D02*
G01X117868000D01*
Y-115443000D02*
G01X117729000Y-115582000D01*
X140843000Y-104119680D02*
G01X138155680D01*
X134239000Y-100203000D02*
G01Y-95758000D01*
X138155680Y-104119680D02*
G01X134239000Y-100203000D01*
X147411440Y-104119680D02*
G01X140843000D01*
X129921000Y-94615000D02*
G01X130683000Y-93853000D01*
Y-93853000D02*
G01X133223000D01*
Y-93853000D02*
G01X134239000Y-94869000D01*
Y-94869000D02*
G01Y-95758000D01*
X129528000Y-94615000D02*
G01X129921000D01*
X129528000D02*
G01Y-96901000D01*
X127977200Y-98651800D02*
G01Y-99872800D01*
X129528000Y-97101000D02*
G01X127977200Y-98651800D01*
X129528000Y-96901000D02*
G01Y-97101000D01*
X147411440Y-103619300D02*
G01X138417300D01*
X134747000Y-99949000D02*
G01Y-94996000D01*
X138417300Y-103619300D02*
G01X134747000Y-99949000D01*
X130048000Y-92456000D02*
G01X130810000Y-93218000D01*
Y-93218000D02*
G01X133350000D01*
Y-93218000D02*
G01X134747000Y-94615000D01*
Y-94615000D02*
G01Y-94996000D01*
X129528000Y-92456000D02*
G01X130048000D01*
X147411440Y-102621080D02*
G01X139319000D01*
X138816080D02*
G01X138684000Y-102489000D01*
X139319000Y-102621080D02*
G01X138816080D01*
X129540000Y-103009000D02*
G01X129528000Y-102997000D01*
X129540000Y-104394000D02*
G01Y-103009000D01*
X171208000Y-90043000D02*
G01Y-90690000D01*
X175641000Y-95123000D02*
G01Y-96393000D01*
X171208000Y-90690000D02*
G01X175641000Y-95123000D01*
X167259000Y-89535000D02*
G01X170700000D01*
Y-89535000D02*
G01X171208000Y-90043000D01*
G54D10*
X170700000Y-89535000D02*
G01X171208000Y-90043000D01*
G54D24*
X150761700Y-94983300D02*
G01Y-98770440D01*
X175641000Y-107950000D02*
G01Y-96393000D01*
X181737000Y-110617000D02*
G01X180848000Y-109728000D01*
Y-109728000D02*
G01X177419000D01*
Y-109728000D02*
G01X175641000Y-107950000D01*
X156210000Y-89535000D02*
G01X150761700Y-94983300D01*
X167259000Y-89535000D02*
G01X156210000D01*
X181737000Y-111252000D02*
G01Y-110617000D01*
X140082000Y-99441000D02*
G01X141097000D01*
X143764000Y-102108000D02*
G01X147398740D01*
X141097000Y-99441000D02*
G01X143764000Y-102108000D01*
X147398740D02*
G01X147411440Y-102120700D01*
X147399740Y-102109000D02*
G01X147411440Y-102120700D01*
X121379000Y-112903000D02*
G01X122301000D01*
Y-112903000D02*
G01X126111000Y-116713000D01*
Y-116713000D02*
G01X126779000D01*
X149260560Y-111160560D02*
G01X150495000Y-112395000D01*
Y-112395000D02*
G01X157607000D01*
Y-112395000D02*
G01X158369000Y-113157000D01*
X149260560Y-106969560D02*
G01Y-111160560D01*
X153162000Y-111252000D02*
G01X153289000D01*
X152516614D02*
G01X155448000D01*
X152516614D02*
G01X153162000D01*
X151384000D02*
G01X152516614D01*
X150261320Y-106969560D02*
G01Y-107912892D01*
Y-107912892D02*
G01Y-110129320D01*
X150749000Y-111252000D02*
G01X155448000D01*
X150261320Y-107912892D02*
G01Y-110764320D01*
Y-110764320D02*
G01X150749000Y-111252000D01*
X156809440Y-105120440D02*
G01X157353000Y-105664000D01*
Y-105664000D02*
G01Y-107188000D01*
X155610560Y-105120440D02*
G01X156809440D01*
X150749000Y-111887000D02*
G01X157988000D01*
Y-111887000D02*
G01X158115000Y-112014000D01*
X149760940Y-110898940D02*
G01X150749000Y-111887000D01*
X149760940Y-106969560D02*
G01Y-110898940D01*
X127381000Y-89535000D02*
G01X127828000D01*
G54D23*
X127102870D02*
G01X127381000D01*
X124636530Y-92001340D02*
G01X127102870Y-89535000D01*
X123786900Y-92001340D02*
G01X124636530D01*
X127102870Y-89535000D02*
G01X127828000D01*
G54D24*
X150761700Y-108783386D02*
G01Y-110248700D01*
Y-106969560D02*
G01Y-108783386D01*
Y-108783386D02*
G01Y-109740700D01*
Y-110248700D02*
G01X151130000Y-110617000D01*
Y-110617000D02*
G01X153289000D01*
X151130000D02*
G01X153289000D01*
X150761700Y-110248700D02*
G01X151130000Y-110617000D01*
X150761700Y-106969560D02*
G01Y-110248700D01*
G54D10*
X128664392Y-103952692D02*
G01X128562270Y-104198630D01*
X128561930Y-104587662*
X128586862Y-104648000*
X127431800*
X127091596Y-104715670*
X126803182Y-104908382*
X125228382Y-106483182*
X125035672Y-106771594*
X124968000Y-107111800*
Y-107143934*
X124944874Y-107159126*
X124802424Y-107370160*
X124752360Y-107619800*
Y-108534200*
X124799338Y-108776322*
X124939128Y-108989126*
X124961694Y-109004360*
X124510800*
X124268678Y-109051336*
X124055874Y-109191126*
X123913424Y-109402160*
X123863360Y-109651800*
Y-110566200*
X123910338Y-110808322*
X124050128Y-111021126*
X124231400Y-111143488*
Y-113791690*
X122821856Y-112382144*
X122726642Y-112318526*
X122614674Y-112148072*
X122403640Y-112005622*
X122154000Y-111955560*
X120604000*
X120361878Y-112002536*
X120149074Y-112142326*
X120015000Y-112340948*
Y-111512000*
X120003000Y-111451670*
Y-111402194*
X120111378Y-111241640*
X120161440Y-110992000*
Y-110242000*
X120114464Y-109999876*
X120003000Y-109830194*
Y-108359154*
X119935330Y-108018948*
X119742618Y-107730536*
X118376700Y-106364618*
Y-105016940*
X118587520Y-105059220*
X119385080*
X119627204Y-105012242*
X119840008Y-104872452*
X119922934Y-104749600*
X122047000*
X122328886Y-104693530*
X122567856Y-104533854*
X123368110Y-103733600*
X127206754*
X127317328Y-103901926*
X127528360Y-104044376*
X127778000Y-104094440*
X128278000*
X128520124Y-104047462*
X128664392Y-103952692*
X130302000Y-102188476D02*
G01X130238674Y-102092072D01*
X130027640Y-101949622*
X129778000Y-101899560*
X129278000*
X129035878Y-101946536*
X128823074Y-102086326*
X128778386Y-102152528*
X128738674Y-102092072*
X128527640Y-101949622*
X128278000Y-101899560*
X127778000*
X127535878Y-101946536*
X127323074Y-102086326*
X127205572Y-102260400*
X125520450*
Y-95571888*
Y-95479870*
X125361700Y-95321120*
X123913900*
Y-95921830*
X124072650Y-96080580*
X124759142*
X125011760*
X125245150Y-95983906*
X125423778Y-95805278*
X125520450Y-95571888*
Y-102260400*
X123063000*
X122781116Y-102316470*
X122542146Y-102476144*
X121741890Y-103276400*
X119922680*
X119845754Y-103159292*
X119634720Y-103016842*
X119385080Y-102966780*
X118884376*
X120770618Y-101080538*
X120963330Y-100792126*
Y-100792124*
X121031000Y-100451920*
Y-96878082*
X121042918Y-96883030*
X121474390Y-96883408*
X121797684Y-96749824*
X121761510Y-96930210*
Y-99127310*
X121808488Y-99369432*
X121948278Y-99582236*
X122159310Y-99724686*
X122408950Y-99774750*
X124606050*
X124848174Y-99727772*
X125060978Y-99587982*
X125203428Y-99376950*
X125253490Y-99127310*
Y-96930210*
X125206514Y-96688086*
X125066724Y-96475282*
X124855690Y-96332832*
X124606050Y-96282770*
X122408950*
X122217514Y-96319912*
X122343992Y-96015322*
X122344012Y-95990270*
X122562040Y-96080580*
X122814660*
X123501150*
X123659900Y-95921830*
Y-95321120*
X123639900*
Y-95141730*
X123659900Y-95121730*
Y-95072200*
Y-95049660*
X123913900*
Y-95072200*
Y-95121730*
X124072650Y-95280480*
X124759142*
X125011760*
X125245150Y-95183806*
X125356756Y-95072200*
X125361700*
X125520450Y-94913450*
Y-94821430*
X125510168Y-94796610*
X125520450Y-94771788*
Y-94679770*
X125361700Y-94521020*
X125356756*
X125245150Y-94409412*
X125209424Y-94394614*
X125299264Y-94335600*
X126567890*
X127130560Y-94898270*
Y-95065000*
X127177538Y-95307122*
X127317328Y-95519926*
X127528360Y-95662376*
X127778000Y-95712440*
X128278000*
X128520124Y-95665462*
X128732926Y-95525672*
X128777614Y-95459470*
X128791400Y-95480458*
Y-96037248*
X128779662Y-96054636*
X128637698Y-95912672*
X128404310Y-95816000*
X128311750*
X128153000Y-95974750*
Y-96774000*
X128175000*
Y-97028000*
X128153000*
Y-97048000*
X127903000*
Y-97028000*
Y-96774000*
Y-95974750*
X127744250Y-95816000*
X127651692*
X127418302Y-95912672*
X127239674Y-96091300*
X127143000Y-96324690*
Y-96577308*
Y-96615250*
X127301750Y-96774000*
X127903000*
Y-97028000*
X127301750*
X127143000Y-97186750*
Y-97224690*
Y-97477310*
X127239674Y-97710698*
X127418302Y-97889326*
X127616052Y-97971236*
X127456346Y-98130944*
X127296670Y-98369914*
X127240600Y-98651800*
Y-99009048*
X127129824Y-99173160*
X127079760Y-99422800*
Y-100322800*
X127126738Y-100564922*
X127266528Y-100777726*
X127477560Y-100920176*
X127727200Y-100970240*
X128227200*
X128469324Y-100923262*
X128682128Y-100783472*
X128726814Y-100717270*
X128766528Y-100777726*
X128977560Y-100920176*
X129227200Y-100970240*
X129727200*
X129969324Y-100923262*
X130182128Y-100783472*
X130196756Y-100761800*
X130302000*
Y-102188476*
X131108528Y-86359612D02*
G01X131048072Y-86399326D01*
X130905622Y-86610360*
X130855560Y-86860000*
Y-87122000*
X130429000*
X130403250*
X130391250Y-87110000*
X129667000*
Y-87122000*
X129413000*
Y-87110000*
X128688750*
X128676750Y-87122000*
X128478440*
Y-86860000*
X128431464Y-86617876*
X128291674Y-86405072*
X128225472Y-86360386*
X128246458Y-86346600*
X128575602*
X128530000Y-86456690*
Y-86697250*
X128688750Y-86856000*
X129413000*
Y-86836000*
X129667000*
Y-86856000*
X130391250*
X130550000Y-86697250*
Y-86456690*
X130504398Y-86346600*
X131089250*
X131108528Y-86359612*
X139458000Y-115038804D02*
G01X139349624Y-115199360D01*
X139319322Y-115350460*
X139291464Y-115206876*
X139151674Y-114994072*
X138940640Y-114851622*
X138691000Y-114801560*
X137891000*
X137648878Y-114848536*
X137552120Y-114912094*
X137550698Y-114910672*
X137317310Y-114814000*
X137076750*
X136918000Y-114972750*
Y-115697000*
X136938000*
Y-115951000*
X136918000*
Y-116675250*
X137076750Y-116834000*
X137317310*
X137448724Y-116779566*
X137020146Y-117208144*
X136860470Y-117447114*
X136850348Y-117497998*
X136790878Y-117509536*
X136664000Y-117592880*
Y-116675250*
Y-115951000*
Y-115697000*
Y-114972750*
X136505250Y-114814000*
X136264692*
X136031302Y-114910672*
X135852674Y-115089300*
X135756000Y-115322690*
Y-115538250*
X135914750Y-115697000*
X136664000*
Y-115951000*
X135914750*
X135756000Y-116109750*
Y-116325310*
X135852674Y-116558698*
X136031302Y-116737326*
X136264692Y-116834000*
X136505250*
X136664000Y-116675250*
Y-117592880*
X136578074Y-117649326*
X136435624Y-117860360*
X136385560Y-118110000*
Y-118613222*
X136367674Y-118639992*
X136271000Y-119126000*
Y-121647948*
X134380968Y-123537980*
X133750926*
X133742430Y-123494184*
Y-122186008*
Y-121095770*
Y-120524270*
Y-119434030*
X133645758Y-119200642*
X133642100Y-119196984*
Y-118289648*
Y-117148610*
X133483350Y-116989860*
X132334000*
Y-118639590*
X132492750Y-118798340*
X132880790*
X133133410*
X133366798Y-118701666*
X133545426Y-118523038*
X133642100Y-118289648*
Y-119196984*
X133467130Y-119022012*
X133233740Y-118925340*
X132981122*
X132492750*
X132334000Y-119084090*
Y-120683020*
X133583680*
X133742430Y-120524270*
Y-121095770*
X133583680Y-120937020*
X132334000*
Y-122535950*
X132492750Y-122694700*
X132981122*
X133233740*
X133467130Y-122598026*
X133645758Y-122419398*
X133742430Y-122186008*
Y-123494184*
X133707894Y-123316176*
X133568104Y-123103372*
X133357070Y-122960922*
X133107430Y-122910860*
X132080000*
Y-122535950*
Y-120937020*
Y-120683020*
Y-119084090*
Y-118639590*
Y-116989860*
X130930650*
X130771900Y-117148610*
Y-118289648*
X130868574Y-118523038*
X131047202Y-118701666*
X131280590Y-118798340*
X131533210*
X131921250*
X132080000Y-118639590*
Y-119084090*
X131921250Y-118925340*
X131432880*
X131180260*
X130946870Y-119022012*
X130768244Y-119200642*
X130671570Y-119434030*
Y-120524270*
X130830320Y-120683020*
X132080000*
Y-120937020*
X130830320*
X130671570Y-121095770*
Y-122186008*
X130768244Y-122419398*
X130946870Y-122598026*
X131180260Y-122694700*
X131432880*
X131921250*
X132080000Y-122535950*
Y-122910860*
X131306570*
X131064448Y-122957836*
X130851644Y-123097626*
X130709194Y-123308660*
X130663204Y-123537980*
X127646430*
Y-122771520*
X127522012Y-122146028*
X127167700Y-121615762*
X126637432Y-121261448*
X126011940Y-121137030*
X125386448Y-121261448*
X124856182Y-121615762*
X124501868Y-122146028*
X124377450Y-122771520*
Y-122954740*
X122789000Y-121366290*
Y-117139310*
Y-116998750*
X122630250Y-116840000*
X121506000*
Y-117489250*
X121664750Y-117648000*
X122280310*
X122513698Y-117551326*
X122692328Y-117372698*
X122789000Y-117139310*
Y-121366290*
X121252000Y-119829290*
Y-117489250*
Y-116840000*
X120127750*
X119969000Y-116998750*
Y-117139310*
X120065674Y-117372698*
X120244302Y-117551326*
X120477692Y-117648000*
X121093250*
X121252000Y-117489250*
Y-119829290*
X118814458Y-117391748*
X118826440Y-117332000*
Y-116832000*
X118779464Y-116589876*
X118639674Y-116377072*
X118573472Y-116332386*
X118633928Y-116292672*
X118710252Y-116179600*
X120013358*
X119969000Y-116286690*
Y-116427250*
X120127750Y-116586000*
X121252000*
Y-116566000*
X121506000*
Y-116586000*
X122630250*
X122789000Y-116427250*
Y-116286690*
X122699212Y-116069920*
X122751378Y-115992640*
X122801440Y-115743000*
Y-115143000*
X122754464Y-114900876*
X122693604Y-114808228*
X122751378Y-114722640*
X122801440Y-114473000*
Y-114445150*
X125356560Y-117000270*
Y-117013000*
X125403538Y-117255122*
X125543328Y-117467926*
X125754360Y-117610376*
X126004000Y-117660440*
X127554000*
X127796124Y-117613462*
X128008928Y-117473672*
X128151378Y-117262640*
X128201440Y-117013000*
Y-116413000*
X128154464Y-116170876*
X128093604Y-116078228*
X128151378Y-115992640*
X128201440Y-115743000*
Y-115143000*
X128154464Y-114900876*
X128093604Y-114808228*
X128151378Y-114722640*
X128201440Y-114473000*
Y-113873000*
X128185724Y-113792000*
X130759460*
Y-114561620*
X130806436Y-114803742*
X130946228Y-115016546*
X131010990Y-115060262*
X130868574Y-115202682*
X130771900Y-115436070*
Y-116577110*
X130930650Y-116735860*
X132080000*
Y-116715860*
X132334000*
Y-116735860*
X133483350*
X133642100Y-116577110*
Y-115436070*
X133545426Y-115202682*
X133403490Y-115060744*
X133462028Y-115022292*
X133604478Y-114811260*
X133654540Y-114561620*
Y-114150140*
X138667140*
X139458000*
Y-114941000*
Y-115038804*
X146231930Y-105120420D02*
G01X146163824Y-105221320D01*
X146139948Y-105340370*
X146126200Y-105354120*
Y-105396608*
X146127864Y-105400626*
X146113760Y-105470960*
Y-105770680*
X146133476Y-105872302*
X146004470Y-106065374*
X145980674Y-106185006*
X145863672Y-106360114*
X145796000Y-106700320*
Y-107002854*
Y-107534644*
Y-111223944*
X145707270Y-111437630*
X145706932Y-111826662*
X145855494Y-112186212*
X146041096Y-112372140*
X145533594*
X145147202*
X145128188*
X140340060*
X138667140*
X133654540*
Y-111960660*
X133607564Y-111718536*
X133467774Y-111505732*
X133256740Y-111363282*
X133007100Y-111313220*
X131406900*
X131164776Y-111360196*
X130951974Y-111499986*
X130809524Y-111711020*
X130759460Y-111960660*
Y-112014000*
X127816050*
X127803640Y-112005622*
X127668000Y-111978420*
Y-111012246*
X127800578Y-110815840*
X127850640Y-110566200*
Y-109651800*
X127803664Y-109409676*
X127663874Y-109196872*
X127452840Y-109054422*
X127203200Y-109004360*
X126754684*
X126769128Y-108994872*
X126911578Y-108783840*
X126961640Y-108534200*
Y-107619800*
X126914664Y-107377676*
X126888376Y-107337658*
X127800036Y-106426000*
X130048000*
X130388206Y-106358328*
X130676618Y-106165618*
X131484022Y-105358214*
X131692618Y-105149618*
X131819618Y-105022618*
X132012330Y-104734206*
X132080000Y-104394000*
Y-100104054*
X132168730Y-99890370*
X132169070Y-99501336*
X132020508Y-99141788*
X131745658Y-98866460*
X131386370Y-98717270*
X130997336Y-98716930*
X130637788Y-98865492*
X130519274Y-98983800*
X130198334*
X130187874Y-98967872*
X129976840Y-98825422*
X129727200Y-98775360*
X129227200*
X128985076Y-98822336*
X128772274Y-98962126*
X128727586Y-99028328*
X128713800Y-99007340*
Y-98956910*
X129672270Y-97998440*
X129778000*
X130020124Y-97951462*
X130232926Y-97811672*
X130375376Y-97600640*
X130425440Y-97351000*
Y-96451000*
X130378464Y-96208876*
X130264600Y-96035540*
Y-95478750*
X130375376Y-95314640*
X130406492Y-95159482*
X130441856Y-95135854*
X130988110Y-94589600*
X132917890*
X133502400Y-95174110*
Y-95758000*
Y-100203000*
X133558470Y-100484884*
X133718146Y-100723854*
X137634826Y-104640534*
X137873796Y-104800210*
X138155680Y-104856280*
X140843000*
X146126200*
Y-104886760*
X146138892Y-104899450*
X146160738Y-105012042*
X146231930Y-105120420*
X151747170Y-105671880D02*
G01X151610060D01*
X151509364Y-105691416*
X151411940Y-105671880*
X151112220*
X151010232Y-105691666*
X150911560Y-105671880*
X150611840*
X150509852Y-105691666*
X150411180Y-105671880*
X150111460*
X150009472Y-105691666*
X149910800Y-105671880*
X149611080*
X149509092Y-105691666*
X149496780Y-105689198*
Y-105417930*
X149999856Y-104914854*
X150159530Y-104675884*
X150215600Y-104394000*
Y-103937110*
X150747382Y-103405328*
X150774400Y-103364892*
Y-103378000*
X150830470Y-103659884*
X150990146Y-103898854*
X151282400Y-104191110*
Y-104902000*
X151338470Y-105183884*
X151498146Y-105422854*
X151747170Y-105671880*
X153775248Y-82342840D02*
G01X149115780Y-87002310D01*
X148539044Y-87579046*
X148379370Y-87818016*
X148323300Y-88099900*
Y-90671584*
X148163788Y-90737492*
X147888460Y-91012340*
X147739270Y-91371630*
X147738932Y-91760662*
X147868948Y-92075330*
X147739270Y-92387630*
X147738932Y-92776662*
X147887494Y-93136212*
X148162342Y-93411540*
X148521630Y-93560730*
X148910664Y-93561068*
X149008946Y-93520458*
X149008932Y-93538662*
X149157494Y-93898212*
X149282676Y-94023612*
X149240086Y-94066204*
X149080410Y-94305174*
X149024340Y-94587060*
Y-97485200*
X148984390*
X148980372Y-97486864*
X148910040Y-97472760*
X148610320*
X148368198Y-97519736*
X148155394Y-97659526*
X148012944Y-97870560*
X147962880Y-98120200*
Y-99321880*
X146761200*
X146519078Y-99368856*
X146498186Y-99382580*
X146398290*
X146278600Y-99262890*
Y-92990254*
Y-92837000*
Y-88995560*
X152577956Y-82696204*
X152737630Y-82457234*
X152742210Y-82434210*
X153044928Y-82231940*
X153327100Y-81809640*
X153609272Y-82231940*
X153775248Y-82342840*
X154332668Y-101371786D02*
G01X154312880Y-101470460D01*
Y-101643182*
X154115892Y-101643010*
X153756344Y-101791572*
X153670000Y-101877764*
Y-100584000*
X153602330Y-100243794*
X153476452Y-100055404*
X153512908Y-100048332*
X153611580Y-100068120*
X153911300*
X154013288Y-100048332*
X154111960Y-100068120*
X154312880*
Y-100269040*
X154332668Y-100371026*
X154312880Y-100469700*
Y-100769420*
X154332668Y-100871406*
X154312880Y-100970080*
Y-101269800*
X154332668Y-101371786*
X155270200Y-99064770D02*
G01X155089706Y-99245264D01*
X155059120Y-99291038*
Y-98120200*
X155012144Y-97878076*
X154998420Y-97857186*
Y-97503290*
X155270200Y-97231510*
Y-99064770*
X156108400Y-123773890D02*
G01X153944010Y-125938280D01*
X151035956*
X152151618Y-124822618*
X152344330Y-124534206*
X152412000Y-124194000*
Y-121696376*
X152500730Y-121482692*
X152501070Y-121093658*
X152412000Y-120878094*
Y-116798918*
X152496692Y-116834000*
X152737250*
X152896000Y-116675250*
Y-115951000*
X152876000*
Y-115697000*
X152896000*
Y-114972750*
X152737250Y-114814000*
X152496692*
X152263302Y-114910672*
X152262020Y-114911954*
X152172640Y-114851622*
X151923000Y-114801560*
X151123000*
X150880878Y-114848536*
X150749254Y-114935000*
X150494160*
X150370640Y-114851622*
X150121000Y-114801560*
X149321000*
X149078878Y-114848536*
X148982120Y-114912094*
X148980698Y-114910672*
X148747310Y-114814000*
X148506750*
X148348000Y-114972750*
Y-115697000*
X148368000*
Y-115951000*
X148348000*
Y-116675250*
X148506750Y-116834000*
X148747310*
X148980698Y-116737326*
X148981980Y-116736044*
X149071360Y-116796376*
X149321000Y-116846440*
X150121000*
X150363124Y-116799462*
X150494746Y-116713000*
X150634000*
Y-120396000*
X149988236*
X149939674Y-120322072*
X149728640Y-120179622*
X149541032Y-120142000*
X149605310*
X149838700Y-120045326*
X150017328Y-119866698*
X150114000Y-119633308*
Y-119284750*
Y-118713250*
Y-118364690*
X150017328Y-118131302*
X149838700Y-117952672*
X149605310Y-117856000*
X149352692*
X148748750*
X148590000Y-118014750*
Y-118872000*
X149955250*
X150114000Y-118713250*
Y-119284750*
X149955250Y-119126000*
X148590000*
Y-119146000*
X148336000*
Y-119126000*
Y-118872000*
Y-118014750*
X148177250Y-117856000*
X148094000*
Y-116675250*
Y-115951000*
Y-115697000*
Y-114972750*
X147935250Y-114814000*
X147694692*
X147461302Y-114910672*
X147282674Y-115089300*
X147186000Y-115322690*
Y-115538250*
X147344750Y-115697000*
X148094000*
Y-115951000*
X147344750*
X147186000Y-116109750*
Y-116325310*
X147282674Y-116558698*
X147461302Y-116737326*
X147694692Y-116834000*
X147935250*
X148094000Y-116675250*
Y-117856000*
X147573310*
X147320690*
X147087302Y-117952672*
X146908674Y-118131302*
X146812000Y-118364690*
Y-118713250*
X146970750Y-118872000*
X148336000*
Y-119126000*
X146970750*
X146812000Y-119284750*
Y-119633308*
X146908674Y-119866698*
X147087302Y-120045326*
X147320690Y-120142000*
X147382884*
X147204878Y-120176536*
X146992074Y-120316326*
X146849624Y-120527360*
X146799560Y-120777000*
Y-121793000*
X146846538Y-122035122*
X146986328Y-122247926*
X147064952Y-122301000*
X143522000*
Y-116675250*
Y-115951000*
Y-115697000*
Y-114972750*
X143363250Y-114814000*
X143122692*
X142889302Y-114910672*
X142748000Y-115051974*
X142606698Y-114910672*
X142373310Y-114814000*
X142132750*
X141974000Y-114972750*
Y-115697000*
X142723250*
X142748000Y-115672250*
X142772750Y-115697000*
X143522000*
Y-115951000*
X142772750*
X142748000Y-115975750*
X142723250Y-115951000*
X141974000*
Y-116675250*
X142132750Y-116834000*
X142373310*
X142606698Y-116737326*
X142748000Y-116596024*
X142889302Y-116737326*
X143122692Y-116834000*
X143363250*
X143522000Y-116675250*
Y-122301000*
X143256000*
Y-120268310*
Y-120015690*
Y-119411750*
Y-118840250*
Y-118236308*
Y-117983690*
X143159328Y-117750300*
X142980698Y-117571672*
X142747310Y-117475000*
X142398750*
X142240000Y-117633750*
Y-118999000*
X143097250*
X143256000Y-118840250*
Y-119411750*
X143097250Y-119253000*
X142240000*
Y-120618250*
X142398750Y-120777000*
X142747310*
X142980698Y-120680326*
X143159328Y-120501698*
X143256000Y-120268310*
Y-122301000*
X143158126*
X141634126Y-120777000*
X141827250*
X141986000Y-120618250*
Y-119253000*
X141966000*
Y-118999000*
X141986000*
Y-117633750*
X141827250Y-117475000*
X141478692*
X141245302Y-117571672*
X141066674Y-117750300*
X140970000Y-117983690*
Y-118045882*
X140935464Y-117867876*
X140889036Y-117797200*
X140975618Y-117710618*
X141168330Y-117422206*
Y-117422204*
X141236000Y-117082000*
Y-116798918*
X141320692Y-116834000*
X141561250*
X141720000Y-116675250*
Y-115951000*
X141700000*
Y-115697000*
X141720000*
Y-114972750*
X141561250Y-114814000*
X141320692*
X141236000Y-114849080*
Y-114150140*
X144260000*
Y-114849080*
X144175310Y-114814000*
X143934750*
X143776000Y-114972750*
Y-115697000*
X143796000*
Y-115951000*
X143776000*
Y-116675250*
X143934750Y-116834000*
X144175310*
X144408698Y-116737326*
X144409980Y-116736044*
X144499360Y-116796376*
X144749000Y-116846440*
X145549000*
X145791124Y-116799462*
X146003928Y-116659672*
X146146378Y-116448640*
X146196440Y-116199000*
Y-115449000*
X146149464Y-115206876*
X146038000Y-115037194*
Y-114150140*
X154294904*
X154732724Y-114587958*
X155195906Y-115051140*
X155008370Y-114973270*
X154619338Y-114972930*
X154259788Y-115121492*
X154058000Y-115322928*
Y-115322690*
X153961328Y-115089300*
X153782698Y-114910672*
X153549310Y-114814000*
X153308750*
X153150000Y-114972750*
Y-115697000*
X153170000*
Y-115951000*
X153150000*
Y-116675250*
X153308750Y-116834000*
X153549310*
X153782698Y-116737326*
X153961328Y-116558698*
X153983778Y-116504496*
X154258342Y-116779540*
X154617630Y-116928730*
X154749134Y-116928844*
X156108400Y-118288110*
Y-118813852*
X156083000Y-118808760*
X154051000*
X153808878Y-118855736*
X153596074Y-118995526*
X153453624Y-119206560*
X153403560Y-119456200*
Y-123113800*
X153450538Y-123355922*
X153590328Y-123568726*
X153801360Y-123711176*
X154051000Y-123761240*
X156083000*
X156108400Y-123756310*
Y-123773890*
X156900470Y-96363238D02*
G01X156870400Y-96514414D01*
Y-99171450*
X156743400Y-99298450*
Y-96520310*
X156900470Y-96363238*
X158889000Y-111405184D02*
G01X158669660Y-111185460D01*
X158310370Y-111036270*
X157921338Y-111035930*
X157644300Y-111150400*
X156425988*
X156426070Y-111058336*
X156277508Y-110698788*
X156002660Y-110423460*
X155643370Y-110274270*
X155536756Y-110274176*
X155536950Y-110050906*
X155829000Y-110109000*
X155960746*
X156285692*
X158889000*
Y-110895036*
Y-111405184*
X159511690Y-88798400D02*
G01X156591310D01*
X156769110Y-88620600*
X159333890*
X159511690Y-88798400*
X163227000Y-109347000D02*
G01X163207000D01*
Y-109367000*
X162953000*
Y-109347000*
X162203750*
X162179000Y-109371750*
X162154250Y-109347000*
X161405000*
Y-109367000*
X161151000*
Y-109347000*
X161131000*
Y-109093000*
X161151000*
Y-108368750*
X160992250Y-108210000*
X160751692*
X160518302Y-108306672*
X160517020Y-108307954*
X160427640Y-108247622*
X160178000Y-108197560*
X159378000*
X159135878Y-108244536*
X159004254Y-108331000*
X156285692*
X156197236*
X155822632Y-107956394*
Y-107308604*
X155949618Y-107181618*
X156142330Y-106893206*
X156165102Y-106778718*
Y-106778716*
X156248394Y-106654062*
X156314556Y-106555044*
X156345044Y-106401774*
X156502924Y-106371142*
X156616400Y-106296600*
Y-106541560*
X156524460Y-106633340*
X156375270Y-106992630*
X156374932Y-107381662*
X156523494Y-107741212*
X156798342Y-108016540*
X157157630Y-108165730*
X157546664Y-108166068*
X157906212Y-108017506*
X158181540Y-107742658*
X158252272Y-107572318*
X158363314Y-107683554*
X158725212Y-107833828*
X159117070Y-107834170*
X159479230Y-107684528*
X159578330Y-107585600*
X162423890*
X163048290Y-108210000*
X162952998*
Y-108368748*
X162794250Y-108210000*
X162553692*
X162320302Y-108306672*
X162179000Y-108447974*
X162037698Y-108306672*
X161804310Y-108210000*
X161563750*
X161405000Y-108368750*
Y-109093000*
X162154250*
X162179000Y-109068250*
X162203750Y-109093000*
X162953000*
Y-109073000*
X163207000*
Y-109093000*
X163227000*
Y-109347000*
X164494616Y-96907440D02*
G01X164318878Y-96941536D01*
X164222120Y-97005094*
X164220698Y-97003672*
X163987310Y-96907000*
X163746750*
X163588000Y-97065750*
Y-97790000*
X163608000*
Y-98044000*
X163588000*
Y-98768250*
X163715020Y-98895270*
X163334000Y-99276288*
Y-98768250*
Y-98044000*
X162662250*
X162584750*
X161913000*
Y-98768250*
X162071750Y-98927000*
X162312310*
X162545698Y-98830326*
X162623500Y-98752524*
X162701302Y-98830326*
X162934692Y-98927000*
X163175250*
X163334000Y-98768250*
Y-99276288*
X162671416Y-99938872*
X162124548Y-99711794*
X161474306Y-99711226*
X160873346Y-99959538*
X160413154Y-100418926*
X160334062Y-100609400*
X159512006*
X159512000Y-100609398*
X159230116Y-100665468*
X158991146Y-100825144*
X157433970Y-102382320*
X156895800*
Y-102356920*
X157078680*
X157360566Y-102300850*
X157599536Y-102141174*
X159143856Y-100596854*
X159303530Y-100357884*
X159359600Y-100076000*
Y-99281910*
X159732794Y-98908714*
X159886000Y-98939440*
X160686000*
X160928124Y-98892462*
X161024880Y-98828904*
X161026302Y-98830326*
X161259692Y-98927000*
X161500250*
X161659000Y-98768250*
Y-98044000*
X161639000*
Y-97790000*
X161659000*
Y-97770000*
X161913000*
Y-97790000*
X162584750*
X162662250*
X163334000*
Y-97065750*
X163175250Y-96907000*
X162934692*
X162701302Y-97003672*
X162623500Y-97081474*
X162545698Y-97003672*
X162312310Y-96907000*
X162194452*
X162363928Y-96795672*
X162447636Y-96671660*
X162574302Y-96798326*
X162807692Y-96895000*
X163048250*
X163207000Y-96736250*
Y-96012000*
X163187000*
Y-95758000*
X163207000*
Y-95738000*
X163461000*
Y-95758000*
X163481000*
Y-96012000*
X163461000*
Y-96736250*
X163619750Y-96895000*
X163860310*
X164093698Y-96798326*
X164094980Y-96797044*
X164184360Y-96857376*
X164434000Y-96907440*
X164494616*
X169418000Y-104151560D02*
G01X169171000D01*
Y-98418310*
Y-98202750*
Y-97631250*
Y-97415690*
X169074328Y-97182300*
X168895698Y-97003672*
X168662310Y-96907000*
X168421750*
X168263000Y-97065750*
Y-97790000*
X169012250*
X169171000Y-97631250*
Y-98202750*
X169012250Y-98044000*
X168263000*
Y-98768250*
X168421750Y-98927000*
X168662310*
X168895698Y-98830326*
X169074328Y-98651698*
X169171000Y-98418310*
Y-104151560*
X166422000*
X166179878Y-104198536*
X165967074Y-104338326*
X165824624Y-104549360*
X165774560Y-104799000*
Y-107455850*
X163546856Y-105228144*
X163307886Y-105068470*
X163026000Y-105012400*
X159578470*
X159480686Y-104914444*
X159382302Y-104873592*
X158864610Y-104355900*
X159016700*
X159298586Y-104299830*
X159537556Y-104140154*
X159817110Y-103860600*
X163195000*
X163476886Y-103804530*
X163715856Y-103644854*
X165278110Y-102082600*
X165413836*
X165491538Y-102270654*
X165950928Y-102730846*
X166551454Y-102980206*
X167201694Y-102980774*
X167802656Y-102732462*
X168262846Y-102273072*
X168512206Y-101672546*
X168512774Y-101022306*
X168264462Y-100421344*
X167805074Y-99961154*
X167614600Y-99882062*
Y-98927000*
X167850250*
X168009000Y-98768250*
Y-98044000*
X167989000*
Y-97790000*
X168009000*
Y-97065750*
X167850250Y-96907000*
X167609692*
X167376302Y-97003672*
X167375020Y-97004954*
X167285640Y-96944622*
X167068644Y-96901106*
X167278124Y-96860462*
X167374880Y-96796904*
X167376302Y-96798326*
X167609692Y-96895000*
X167850250*
X168009000Y-96736250*
Y-96012000*
X167989000*
Y-95758000*
X168009000*
Y-95738000*
X168263000*
Y-95758000*
X168283000*
Y-96012000*
X168263000*
Y-96736250*
X168421750Y-96895000*
X168662310*
X168895698Y-96798326*
X169074328Y-96619698*
X169171000Y-96386310*
Y-96260236*
X169172468Y-96261704*
X169383328Y-96472564*
X169418000Y-96507236*
Y-99031944*
X169329270Y-99245630*
X169328932Y-99634662*
X169418000Y-99850226*
Y-104151560*
Y-109982000D02*
G01X169037000D01*
X168793026*
X168820328Y-109954698*
X168917000Y-109721310*
Y-109505750*
X168758250Y-109347000*
X168009000*
Y-109367000*
X167755000*
Y-109347000*
X167735000*
Y-109093000*
X167755000*
Y-109073000*
X168009000*
Y-109093000*
X168758250*
X168917000Y-108934250*
Y-108718690*
X168820328Y-108485300*
X168781466Y-108446440*
X169418000*
Y-109982000*
X170332400Y-113740890D02*
G01X169976646Y-114096644D01*
X167627146Y-116446144*
X167467470Y-116685114*
X167411400Y-116967000*
Y-117872000*
X167328692*
X167290750*
X167132000Y-118030750*
Y-118632000*
X167152000*
Y-118882000*
X167132000*
Y-118904000*
X166878000*
Y-118882000*
X166858000*
Y-118632000*
X166878000*
Y-118030750*
X166719250Y-117872000*
X166681310*
X166428690*
X166195302Y-117968672*
X166016674Y-118147302*
X165989432Y-118213068*
X165883674Y-118052072*
X165672640Y-117909622*
X165423000Y-117859560*
X164523000*
X164479500Y-117868000*
X164083236*
X163894338Y-117679102*
Y-116269338*
X163826668Y-115929132*
X163633956Y-115640720*
X163610996Y-115617758*
X162426722Y-114433484*
X160691036Y-112697800*
Y-111760000*
X161925000*
X163911684*
X169037000*
X169799000*
X170139206Y-111692328*
X170332400Y-111563240*
Y-113740890*
X172934640Y-82246216D02*
G01X171958458Y-83222400D01*
X171565000*
X171283116Y-83278470*
X171044146Y-83438144*
X169024146Y-85458144*
X168864470Y-85697114*
X168808400Y-85979000*
Y-86627400*
X164868082*
X164858310*
X168850432Y-82635276*
X169355710Y-82534772*
X169808928Y-82231940*
X170091100Y-81809640*
X170373272Y-82231940*
X170826492Y-82534772*
X171361100Y-82641112*
X171895710Y-82534772*
X172348928Y-82231940*
X172631100Y-81809640*
X172913272Y-82231940*
X172934640Y-82246216*
X183338000Y-94771658D02*
G01X182788172Y-94220870D01*
X181967406Y-93880058*
X181078694Y-93879282*
X180257334Y-94218662*
X179628372Y-94846528*
X179287560Y-95667294*
X179286784Y-96556006*
X179626162Y-97377366*
X180254028Y-98006328*
X180956450Y-98298000*
X179565236*
X178689000Y-97421764*
Y-88011000*
X178621330Y-87670794*
X178428618Y-87382382*
X176337426Y-85291188*
X176300136Y-85235382*
X176011724Y-85042670*
X175671518Y-84975000*
X175653000*
X175117086*
X175075000Y-84966560*
X174175000*
X174131500Y-84975000*
X171942086*
X171900000Y-84966560*
X171599150*
X171870110Y-84695600*
X172032838*
X172263568*
X172545454Y-84639530*
X172784424Y-84479854*
X174421956Y-82842322*
X174581630Y-82603352*
X174619730Y-82411812*
X174888928Y-82231940*
X175171100Y-81809640*
X175453272Y-82231940*
X175906492Y-82534772*
X176441100Y-82641112*
X176975710Y-82534772*
X177428928Y-82231940*
X177711100Y-81809640*
X177993272Y-82231940*
X178446492Y-82534772*
X178981100Y-82641112*
X179515710Y-82534772*
X179968928Y-82231940*
X180271760Y-81778720*
X180378100Y-81244112*
Y-80503088*
X180271760Y-79968478*
X179968928Y-79515260*
X179515710Y-79212428*
X178981100Y-79106088*
X178446492Y-79212428*
X177993272Y-79515260*
X177711100Y-79937558*
X177428928Y-79515260*
X176975710Y-79212428*
X176441100Y-79106088*
X175906492Y-79212428*
X175453272Y-79515260*
X175171100Y-79937558*
X174888928Y-79515260*
X174435710Y-79212428*
X173901100Y-79106088*
X173366492Y-79212428*
X172913272Y-79515260*
X172631100Y-79937558*
X172348928Y-79515260*
X171895710Y-79212428*
X171361100Y-79106088*
X170826492Y-79212428*
X170373272Y-79515260*
X170091100Y-79937558*
X169808928Y-79515260*
X169355710Y-79212428*
X168821100Y-79106088*
X168286492Y-79212428*
X167833272Y-79515260*
X167551100Y-79937558*
X167268928Y-79515260*
X166815710Y-79212428*
X166281100Y-79106088*
X165746492Y-79212428*
X165293272Y-79515260*
X165011100Y-79937558*
X164728928Y-79515260*
X164275710Y-79212428*
X163741100Y-79106088*
X163206492Y-79212428*
X162753272Y-79515260*
X162471100Y-79937558*
X162188928Y-79515260*
X161735710Y-79212428*
X161201100Y-79106088*
X160666492Y-79212428*
X160213272Y-79515260*
X159910440Y-79968478*
X159804100Y-80503088*
Y-81244112*
X159910440Y-81778720*
X160213272Y-82231940*
X160464500Y-82399804*
Y-83476790*
X159829246Y-84112044*
X159699338Y-84111930*
X159339788Y-84260492*
X159064460Y-84535340*
X158915270Y-84894630*
X158915078Y-85115400*
X154940000*
X154658116Y-85171470*
X154419146Y-85331144*
X154038146Y-85712144*
X153911146Y-85839144*
X153466646Y-86283644*
X153276146Y-86474144*
X152514146Y-87236144*
X150431246Y-89319044*
X150314082Y-89318942*
Y-88738328*
X156140460Y-82911950*
X156171900*
X156453786Y-82855880*
X156692756Y-82696204*
X156812428Y-82576530*
X157137100Y-82641112*
X157671710Y-82534772*
X158124928Y-82231940*
X158427760Y-81778720*
X158534100Y-81244112*
Y-80503088*
X158427760Y-79968478*
X158124928Y-79515260*
X157671710Y-79212428*
X157137100Y-79106088*
X156602492Y-79212428*
X156149272Y-79515260*
X155867100Y-79937558*
X155584928Y-79515260*
X155131710Y-79212428*
X154597100Y-79106088*
X154062492Y-79212428*
X153609272Y-79515260*
X153327100Y-79937558*
X153044928Y-79515260*
X152591710Y-79212428*
X152057100Y-79106088*
X151522492Y-79212428*
X151069272Y-79515260*
X150787100Y-79937558*
X150504928Y-79515260*
X150051710Y-79212428*
X149517100Y-79106088*
X148982492Y-79212428*
X148529272Y-79515260*
X148247100Y-79937558*
X147964928Y-79515260*
X147511710Y-79212428*
X146977100Y-79106088*
X146442492Y-79212428*
X145989272Y-79515260*
X145707100Y-79937558*
X145424928Y-79515260*
X144971710Y-79212428*
X144437100Y-79106088*
X143902492Y-79212428*
X143449272Y-79515260*
X143158458Y-79950492*
X143139160Y-79885108*
X142795126Y-79459420*
X142314378Y-79197790*
X142240170Y-79182830*
X142024100Y-79305330*
Y-80746600*
X142044100*
Y-81000600*
X142024100*
Y-82441870*
X142240170Y-82564370*
X142314378Y-82549410*
X142795126Y-82287780*
X143139160Y-81862090*
X143158458Y-81796706*
X143449272Y-82231940*
X143902492Y-82534772*
X144437100Y-82641112*
X144971710Y-82534772*
X145424928Y-82231940*
X145707100Y-81809640*
X145989272Y-82231940*
X146217342Y-82384332*
X146124192Y-82402860*
X145885222Y-82562536*
X143624146Y-84823612*
X143464470Y-85062582*
X143408400Y-85344466*
Y-100076000*
X143464470Y-100357884*
X143624146Y-100596854*
X144398690Y-101371400*
X144069110*
X142615000Y-99917290*
Y-89414308*
Y-89173750*
X142456250Y-89015000*
X141732000*
Y-89764250*
X141890750Y-89923000*
X142106310*
X142339700Y-89826326*
X142518328Y-89647698*
X142615000Y-89414308*
Y-99917290*
X141617856Y-98920144*
X141478000Y-98826696*
Y-89764250*
Y-89015000*
X140753750*
X140595000Y-89173750*
Y-89414308*
X140691674Y-89647698*
X140870302Y-89826326*
X141103690Y-89923000*
X141319250*
X141478000Y-89764250*
Y-98826696*
X141378886Y-98760470*
X141213012Y-98727476*
X141207464Y-98698876*
X141067674Y-98486072*
X140856640Y-98343622*
X140607000Y-98293560*
X140329000*
Y-89414308*
Y-89173750*
X140170250Y-89015000*
X139446000*
Y-89764250*
X139604750Y-89923000*
X139820310*
X140053700Y-89826326*
X140232328Y-89647698*
X140329000Y-89414308*
Y-98293560*
X140292000*
Y-98251750*
Y-97680250*
Y-97314690*
X140195328Y-97081302*
X140016700Y-96902672*
X139783310Y-96806000*
X139530692*
X139192000*
Y-89764250*
Y-89015000*
X138467750*
X138309000Y-89173750*
Y-89414308*
X138405674Y-89647698*
X138584302Y-89826326*
X138817690Y-89923000*
X139033250*
X139192000Y-89764250*
Y-96806000*
X138842750*
X138684000Y-96964750*
Y-97839000*
X140133250*
X140292000Y-97680250*
Y-98251750*
X140133250Y-98093000*
X138684000*
Y-98967250*
X138842750Y-99126000*
X138909560*
Y-99756000*
X138842750*
X138684000Y-99914750*
Y-100789000*
X140133250*
X140292000Y-100630250*
Y-100588440*
X140607000*
X140849124Y-100541462*
X141034186Y-100419894*
X142498770Y-101884480*
X140111546*
X140195328Y-101800698*
X140292000Y-101567308*
Y-101201750*
X140133250Y-101043000*
X138684000*
Y-101063000*
X138430000*
Y-101043000*
Y-100789000*
Y-99914750*
Y-98967250*
Y-98093000*
Y-97839000*
Y-96964750*
X138271250Y-96806000*
X137583310*
X137330690*
X137097302Y-96902672*
X136918674Y-97081302*
X136822000Y-97314690*
Y-97680250*
X136980750Y-97839000*
X138430000*
Y-98093000*
X136980750*
X136822000Y-98251750*
Y-98617308*
X136918674Y-98850698*
X137097302Y-99029326*
X137330690Y-99126000*
X137583310*
X138271250*
X138430000Y-98967250*
Y-99914750*
X138271250Y-99756000*
X137583310*
X137330690*
X137097302Y-99852672*
X136918674Y-100031302*
X136822000Y-100264690*
Y-100630250*
X136980750Y-100789000*
X138430000*
Y-101043000*
X136980750*
X136931730Y-101092020*
X135483600Y-99643890*
Y-94996000*
Y-94615000*
X135427530Y-94333114*
X135267856Y-94094144*
X133870856Y-92697144*
X133631886Y-92537470*
X133350000Y-92481400*
X131115110*
X130568856Y-91935144*
X130388284Y-91814490*
X130378464Y-91763876*
X130238674Y-91551072*
X130027640Y-91408622*
X129778000Y-91358560*
X129278000*
X129035878Y-91405536*
X128823074Y-91545326*
X128778386Y-91611528*
X128738674Y-91551072*
X128527640Y-91408622*
X128278000Y-91358560*
X127778000*
X127535878Y-91405536*
X127323074Y-91545326*
X127180624Y-91756360*
X127180018Y-91759376*
X127099116Y-91775470*
X126860146Y-91935144*
X126730450Y-92064840*
X125830266*
X127159328Y-90735778*
X127228360Y-90782376*
X127478000Y-90832440*
X128178000*
X128420122Y-90785462*
X128632928Y-90645672*
X128775376Y-90434640*
X128777216Y-90425468*
X128777538Y-90427122*
X128917328Y-90639926*
X129128360Y-90782376*
X129378000Y-90832440*
X130078000*
X130320124Y-90785462*
X130532928Y-90645672*
X130665392Y-90449432*
X130817830Y-90512730*
X131206864Y-90513068*
X131566412Y-90364506*
X131841740Y-90089658*
X131990930Y-89730370*
X131991028Y-89619040*
X132207000Y-89662000*
X132267328Y-89650000*
X134381914*
X134424000Y-89658440*
X135324000*
X135367500Y-89650000*
X136413914*
X136456000Y-89658440*
X137356000*
X137598124Y-89611462*
X137810928Y-89471672*
X137953378Y-89260640*
X138003440Y-89011000*
Y-88511000*
X137956464Y-88268876*
X137816674Y-88056072*
X137750472Y-88011386*
X137810928Y-87971672*
X137953378Y-87760640*
X138003440Y-87511000*
Y-87011000*
X137956464Y-86768876*
X137816674Y-86556072*
X137642600Y-86438570*
Y-82340404*
X137804928Y-82231940*
X138088370Y-81807740*
X138371812Y-82231940*
X138430000Y-82270820*
Y-86614840*
X138346624Y-86738360*
X138296560Y-86988000*
Y-87788000*
X138343538Y-88030122*
X138407096Y-88126878*
X138405674Y-88128302*
X138309000Y-88361690*
Y-88602250*
X138467750Y-88761000*
X139192000*
Y-88741000*
X139446000*
Y-88761000*
X140170250*
X140329000Y-88602250*
Y-88361690*
X140293920Y-88277000*
X140630080*
X140595000Y-88361690*
Y-88602250*
X140753750Y-88761000*
X141478000*
Y-88741000*
X141732000*
Y-88761000*
X142456250*
X142615000Y-88602250*
Y-88361690*
X142518328Y-88128302*
X142517044Y-88127018*
X142577378Y-88037640*
X142627440Y-87788000*
Y-86988000*
X142580464Y-86745876*
X142440674Y-86533072*
X142229640Y-86390622*
X141980000Y-86340560*
X141230000*
X140987878Y-86387536*
X140818196Y-86499000*
X140208000*
Y-82325128*
X140347468Y-82231940*
X140636520Y-81799342*
X140655042Y-81862090*
X140999074Y-82287780*
X141479824Y-82549410*
X141554030Y-82564370*
X141770100Y-82441870*
Y-81000600*
X141750100*
Y-80746600*
X141770100*
Y-79305330*
X141554030Y-79182830*
X141479824Y-79197790*
X140999074Y-79459420*
X140655042Y-79885108*
X140636520Y-79947856*
X140347468Y-79515260*
X139894250Y-79212428*
X139359640Y-79106088*
X138825032Y-79212428*
X138371812Y-79515260*
X138088370Y-79939458*
X137804928Y-79515260*
X137351710Y-79212428*
X136817100Y-79106088*
X136282492Y-79212428*
X135829272Y-79515260*
X135547100Y-79937558*
X135264928Y-79515260*
X134811710Y-79212428*
X134277100Y-79106088*
X133742492Y-79212428*
X133289272Y-79515260*
X132986440Y-79968478*
X132914228Y-80331510*
X132616038Y-79609834*
X132051190Y-79044000*
X179929264*
X180798000Y-79912736*
Y-91059000*
X180850144Y-91321138*
X180998632Y-91543368*
X183338000Y-93882736*
Y-94771658*
Y-126335264D02*
G01X180998632Y-128674632D01*
X180850144Y-128896862*
X180798000Y-129159000*
Y-130145264*
X179929264Y-131014000*
X162598100*
Y-129505406*
Y-128761794*
X162491760Y-128227184*
X162188928Y-127773964*
X161735710Y-127471132*
X161528000Y-127429816*
X161201100Y-127364792*
X160666492Y-127471132*
X160213272Y-127773964*
X159922452Y-128209204*
X159903160Y-128143840*
X159559126Y-127718150*
X159078378Y-127456520*
X159004170Y-127441560*
X158788100Y-127564060*
Y-129006600*
X158808100*
Y-129260600*
X158788100*
Y-130703140*
X159004170Y-130825640*
X159078378Y-130810680*
X159559126Y-130549050*
X159903160Y-130123360*
X159922452Y-130057994*
X160213272Y-130493234*
X160666492Y-130796066*
X161201100Y-130902408*
X161735710Y-130796066*
X162188928Y-130493234*
X162491760Y-130040016*
X162598100Y-129505406*
Y-131014000*
X158534100*
Y-130703140*
Y-129260600*
X157518100*
X157264100*
X156248100*
Y-130703140*
X156464170Y-130825640*
X156538378Y-130810680*
X157019126Y-130549050*
X157363160Y-130123360*
X157391100Y-130028696*
X157419042Y-130123360*
X157763074Y-130549050*
X158243824Y-130810680*
X158318030Y-130825640*
X158534100Y-130703140*
Y-131014000*
X130729430*
X131343830Y-130400672*
X131684642Y-129579906*
X131685418Y-128691192*
X131346038Y-127869834*
X130718172Y-127240870*
X129897406Y-126900058*
X129008694Y-126899282*
X128187334Y-127238662*
X127558372Y-127866528*
X127217560Y-128687294*
X127216784Y-129576006*
X127556162Y-130397366*
X128171720Y-131014000*
X124390552*
X125004706Y-130841450*
X125507442Y-130445936*
X125820554Y-129888138*
X125851500Y-129760334*
Y-128999626*
X125820554Y-128871822*
X125507442Y-128314024*
X125004706Y-127918508*
X124388880Y-127745490*
X123388120*
Y-129252980*
X125732146*
X125851500Y-128999626*
Y-129760334*
X125732146Y-129506980*
X123388120*
Y-129526980*
X123134120*
Y-129506980*
Y-129252980*
Y-127745490*
X122133360*
X121644410Y-127882862*
Y-125206760*
Y-124206000*
Y-123952000*
Y-122951240*
X121471392Y-122335414*
X121075876Y-121832678*
X120518080Y-121519566*
X120390274Y-121488620*
X120136920Y-121607974*
Y-123952000*
X121644410*
Y-124206000*
X120136920*
Y-126550024*
X120390274Y-126669378*
X120518080Y-126638432*
X121075876Y-126325322*
X121471392Y-125822584*
X121644410Y-125206760*
Y-127882862*
X121517536Y-127918508*
X121014798Y-128314024*
X120701688Y-128871822*
X120670742Y-128999626*
X120790096Y-129252980*
X123134120*
Y-129506980*
X120790096*
X120670742Y-129760334*
X120701688Y-129888138*
X121014798Y-130445936*
X121517536Y-130841450*
X122131688Y-131014000*
X119882920*
Y-126550024*
Y-124206000*
Y-123952000*
Y-121607974*
X119629566Y-121488620*
X119501762Y-121519566*
X118943964Y-121832678*
X118548450Y-122335414*
X118375430Y-122951240*
Y-123952000*
X119882920*
Y-124206000*
X118375430*
Y-125206760*
X118548450Y-125822584*
X118943964Y-126325322*
X119501762Y-126638432*
X119629566Y-126669378*
X119882920Y-126550024*
Y-131014000*
X116996736*
X116128000Y-130145264*
Y-79912736*
X116996736Y-79044000*
X129391882*
X128828372Y-79606528*
X128487560Y-80427294*
X128486784Y-81316006*
X128826162Y-82137366*
X129454028Y-82766328*
X130274794Y-83107140*
X131163508Y-83107916*
X131984866Y-82768538*
X132613830Y-82140672*
X132914436Y-81416730*
X132986440Y-81778720*
X133289272Y-82231940*
X133742492Y-82534772*
X134137400Y-82613324*
Y-86439752*
X133969074Y-86550326*
X133826624Y-86761360*
X133811698Y-86835780*
X133650658Y-86674460*
X133291370Y-86525270*
X132942430Y-86524964*
X132863674Y-86405072*
X132797472Y-86360386*
X132857926Y-86320672*
X133000376Y-86109640*
X133050440Y-85860000*
Y-85360000*
X133003464Y-85117876*
X132863674Y-84905072*
X132652640Y-84762622*
X132403000Y-84712560*
X131503000*
X131260878Y-84759536*
X131087540Y-84873400*
X130521774*
X130515464Y-84840876*
X130375674Y-84628072*
X130164640Y-84485622*
X129915000Y-84435560*
X129165000*
X128922878Y-84482536*
X128710074Y-84622326*
X128567624Y-84833360*
X128559594Y-84873400*
X128244750*
X128080640Y-84762622*
X127831000Y-84712560*
X127525270*
X126255780Y-83443070*
Y-83397988*
X126261684Y-83396842*
X126474488Y-83257052*
X126616938Y-83046020*
X126667000Y-82796380*
Y-81795620*
X126620024Y-81553496*
X126480234Y-81340692*
X126269200Y-81198242*
X126019560Y-81148180*
X125018800*
X124776678Y-81195156*
X124563874Y-81334946*
X124421424Y-81545980*
X124371360Y-81795620*
Y-82796380*
X124418338Y-83038502*
X124558128Y-83251306*
X124769160Y-83393756*
X124782580Y-83396448*
Y-83748180*
X124838650Y-84030064*
X124998326Y-84269034*
X126283560Y-85554270*
Y-85860000*
X126330538Y-86102122*
X126408626Y-86221000*
X121043000*
X120702794Y-86288670*
X120414382Y-86481382*
X119513382Y-87382382*
X119456200Y-87467960*
Y-82922690*
Y-82670070*
Y-82581750*
Y-82010250*
Y-81921928*
Y-81669310*
X119359528Y-81435920*
X119180898Y-81257292*
X118947510Y-81160620*
X118606570*
X118447820Y-81319370*
Y-82169000*
X119297450*
X119456200Y-82010250*
Y-82581750*
X119297450Y-82423000*
X118447820*
Y-83272630*
X118606570Y-83431380*
X118947510*
X119180898Y-83334706*
X119359528Y-83156078*
X119456200Y-82922690*
Y-87467960*
X119422774Y-87517986*
X119356590Y-87473312*
X119106950Y-87423250*
X118193820*
Y-83272630*
Y-82423000*
Y-82169000*
Y-81319370*
X118035070Y-81160620*
X117694132*
X117460742Y-81257292*
X117282114Y-81435920*
X117185440Y-81669310*
Y-81921928*
Y-82010250*
X117344190Y-82169000*
X118193820*
Y-82423000*
X117344190*
X117185440Y-82581750*
Y-82670070*
Y-82922690*
X117282114Y-83156078*
X117460742Y-83334706*
X117694132Y-83431380*
X118035070*
X118193820Y-83272630*
Y-87423250*
X116909850*
X116667728Y-87470226*
X116454924Y-87610016*
X116312474Y-87821050*
X116262410Y-88070690*
Y-90267790*
X116309388Y-90509912*
X116449178Y-90722716*
X116660210Y-90865166*
X116909850Y-90915230*
X118470134*
X118431672Y-90972794*
X118364000Y-91313000*
Y-95885000*
X118431672Y-96225206*
X118470134Y-96282770*
X116909850*
X116667728Y-96329746*
X116454924Y-96469536*
X116312474Y-96680570*
X116262410Y-96930210*
Y-99127310*
X116309388Y-99369432*
X116449178Y-99582236*
X116660210Y-99724686*
X116909850Y-99774750*
X119106950*
X119253000Y-99746412*
Y-100083684*
X116859082Y-102477602*
X116666372Y-102766014*
X116598700Y-103106220*
Y-103205830*
X116491544Y-103364580*
X116441480Y-103614220*
Y-104411780*
X116488458Y-104653902*
X116598700Y-104821726*
Y-106732854*
X116666372Y-107073060*
X116859082Y-107361472*
X118225000Y-108727390*
Y-109642080*
X118140310Y-109607000*
X117899750*
X117741000Y-109765750*
Y-110490000*
X117761000*
Y-110744000*
X117741000*
Y-111468250*
X117899750Y-111627000*
X118140310*
X118237000Y-111586948*
Y-111649000*
X118052692*
X118014750*
X117856000Y-111807750*
Y-112409000*
X117876000*
Y-112659000*
X117856000*
Y-112681000*
X117602000*
Y-112659000*
Y-112409000*
Y-111807750*
X117487000Y-111692750*
Y-111468250*
Y-110744000*
Y-110490000*
Y-109765750*
X117328250Y-109607000*
X117087692*
X116854302Y-109703672*
X116675674Y-109882300*
X116579000Y-110115690*
Y-110331250*
X116737750Y-110490000*
X117487000*
Y-110744000*
X116737750*
X116579000Y-110902750*
Y-111118310*
X116675674Y-111351698*
X116854302Y-111530326*
X117087692Y-111627000*
X117328250*
X117487000Y-111468250*
Y-111692750*
X117443250Y-111649000*
X117405310*
X117152690*
X116919302Y-111745672*
X116740674Y-111924302*
X116644000Y-112157690*
Y-112250250*
X116802750Y-112409000*
X117602000*
Y-112659000*
X116802750*
X116644000Y-112817750*
Y-112910308*
X116740674Y-113143698*
X116882150Y-113285176*
X116824074Y-113323326*
X116681624Y-113534360*
X116631560Y-113784000*
Y-114284000*
X116678538Y-114526122*
X116818328Y-114738926*
X116920568Y-114807940*
X116824074Y-114871326*
X116681624Y-115082360*
X116631560Y-115332000*
Y-115832000*
X116678538Y-116074122*
X116818328Y-116286926*
X116884528Y-116331612*
X116824074Y-116371326*
X116681624Y-116582360*
X116631560Y-116832000*
Y-117332000*
X116678538Y-117574122*
X116818328Y-117786926*
X117029360Y-117929376*
X117279000Y-117979440*
X117318730*
X123939146Y-124599854*
X124178116Y-124759530*
X124377450Y-124799178*
Y-125386478*
X124501868Y-126011970*
X124856182Y-126542238*
X125386448Y-126896550*
X126011940Y-127020968*
X126637432Y-126896550*
X127167700Y-126542238*
X127477906Y-126077980*
X130663072*
X130706108Y-126299782*
X130845898Y-126512586*
X131056930Y-126655036*
X131306570Y-126705100*
X133107430*
X133349552Y-126658122*
X133562356Y-126518332*
X133704806Y-126307300*
X133750796Y-126077980*
X134907014*
X134907020*
X135393028Y-125981306*
X135805046Y-125706006*
X138439022Y-123072028*
X138439026Y-123072026*
X138714328Y-122660008*
X138811000Y-122174000*
Y-121487390*
X138928974Y-121663952*
X141331582Y-124066560*
X137998200*
X137756078Y-124113536*
X137543274Y-124253326*
X137400824Y-124464360*
X137350760Y-124714000*
Y-126746000*
X137397738Y-126988122*
X137537528Y-127200926*
X137748560Y-127343376*
X137998200Y-127393440*
X141655800*
X141897924Y-127346462*
X142110728Y-127206672*
X142253178Y-126995640*
X142303240Y-126746000*
Y-124777792*
X142621000Y-124841000*
X148463000*
X148949008Y-124744326*
X148975778Y-124726440*
X149479000*
X149721124Y-124679462*
X149893602Y-124566162*
X149364764Y-125095000*
X147502880*
X147162674Y-125162670*
X146874262Y-125355382*
X145332482Y-126897162*
X145139772Y-127185574*
X145072100Y-127525780*
Y-127707930*
X144973272Y-127773964*
X144691100Y-128196264*
X144408928Y-127773964*
X143955710Y-127471132*
X143421100Y-127364792*
X142886492Y-127471132*
X142433272Y-127773964*
X142130440Y-128227184*
X142024100Y-128761794*
Y-129505406*
X142130440Y-130040016*
X142433272Y-130493234*
X142886492Y-130796066*
X143421100Y-130902408*
X143955710Y-130796066*
X144408928Y-130493234*
X144691100Y-130070934*
X144973272Y-130493234*
X145426492Y-130796066*
X145961100Y-130902408*
X146495710Y-130796066*
X146948928Y-130493234*
X147231100Y-130070934*
X147513272Y-130493234*
X147966492Y-130796066*
X148501100Y-130902408*
X149035710Y-130796066*
X149488928Y-130493234*
X149771100Y-130070934*
X150053272Y-130493234*
X150506492Y-130796066*
X151041100Y-130902408*
X151575710Y-130796066*
X152028928Y-130493234*
X152311100Y-130070934*
X152593272Y-130493234*
X153046492Y-130796066*
X153581100Y-130902408*
X154115710Y-130796066*
X154568928Y-130493234*
X154859748Y-130057994*
X154879042Y-130123360*
X155223074Y-130549050*
X155703824Y-130810680*
X155778030Y-130825640*
X155994100Y-130703140*
Y-129260600*
X155974100*
Y-129006600*
X155994100*
Y-128986600*
X156248100*
Y-129006600*
X157264100*
X157518100*
X158534100*
Y-127564060*
X158318030Y-127441560*
X158243824Y-127456520*
X157763074Y-127718150*
X157419042Y-128143840*
X157391100Y-128238504*
X157363160Y-128143840*
X157019126Y-127718150*
X156538378Y-127456520*
X156464170Y-127441560*
X156248102Y-127564058*
Y-127398780*
X156235336*
X158362618Y-125271498*
X158555330Y-124983086*
Y-124983084*
X158623000Y-124642880*
Y-116984632*
X158643360Y-116998376*
X158893000Y-117048440*
X159393000*
X159635124Y-117001462*
X159847928Y-116861672*
X159891338Y-116797362*
X160033302Y-116939326*
X160266692Y-117036000*
X160359250*
X160518000Y-116877250*
Y-116078000*
X160496000*
Y-115824000*
X160518000*
Y-115804000*
X160768000*
Y-115824000*
X160790000*
Y-116078000*
X160768000*
Y-116877250*
X160926750Y-117036000*
X161019310*
X161252698Y-116939326*
X161431328Y-116760698*
X161528000Y-116527310*
Y-116274690*
Y-116236750*
X161369252Y-116078002*
X161528000*
Y-116049236*
X162116338Y-116637574*
Y-118047338*
Y-119775228*
X162006788Y-119820492*
X161731460Y-120095340*
X161582270Y-120454630*
X161581932Y-120843662*
X161730494Y-121203212*
X162005342Y-121478540*
X162364630Y-121627730*
X162753664Y-121628068*
X163113212Y-121479506*
X163388540Y-121204658*
X163477986Y-120989250*
X163633956Y-120833280*
X163826668Y-120544868*
Y-120544866*
X163875560Y-120299064*
Y-120507000*
X163922538Y-120749122*
X164062328Y-120961926*
X164273360Y-121104376*
X164523000Y-121154440*
X165423000*
X165665124Y-121107462*
X165838458Y-120993600*
X166141250*
X166305360Y-121104376*
X166555000Y-121154440*
X167411400*
Y-123001818*
Y-123215966*
Y-123378000*
Y-124333000*
Y-126623770*
X166605792Y-127429378*
X166281100Y-127364792*
X165746492Y-127471132*
X165293272Y-127773964*
X164990440Y-128227184*
X164884100Y-128761794*
Y-129505406*
X164990440Y-130040016*
X165293272Y-130493234*
X165746492Y-130796066*
X166281100Y-130902408*
X166815710Y-130796066*
X167268928Y-130493234*
X167551100Y-130070934*
X167833272Y-130493234*
X168286492Y-130796066*
X168821100Y-130902408*
X169355710Y-130796066*
X169808928Y-130493234*
X170091100Y-130070934*
X170373272Y-130493234*
X170826492Y-130796066*
X171361100Y-130902408*
X171895710Y-130796066*
X172348928Y-130493234*
X172631100Y-130070934*
X172913272Y-130493234*
X173366492Y-130796066*
X173901100Y-130902408*
X174435710Y-130796066*
X174888928Y-130493234*
X175171100Y-130070934*
X175453272Y-130493234*
X175906492Y-130796066*
X176441100Y-130902408*
X176975710Y-130796066*
X177428928Y-130493234*
X177711100Y-130070934*
X177993272Y-130493234*
X178446492Y-130796066*
X178981100Y-130902408*
X179515710Y-130796066*
X179968928Y-130493234*
X180271760Y-130040016*
X180378100Y-129505406*
Y-128761794*
X180271760Y-128227184*
X179968928Y-127773964*
X179515710Y-127471132*
X179070000Y-127382476*
Y-120205816*
Y-118999000*
X177862532*
X177742032Y-119231026*
X177990180Y-119760490*
X178422054Y-120154688*
X178837974Y-120326958*
X179070000Y-120205816*
Y-127382476*
X178981100Y-127364792*
X178656408Y-127429378*
X176817176Y-125590144*
X176578206Y-125430470*
X176296320Y-125374400*
X174168110*
X171932600Y-123138890*
Y-117780110*
X175018856Y-114693854*
X175178530Y-114454884*
X175234600Y-114173000*
Y-108636110*
X175260000Y-108610710*
X176898146Y-110248854*
X177137116Y-110408530*
X177419000Y-110464600*
X177935788*
X177812474Y-110649152*
X177698400Y-111222640*
Y-111281358*
X177812474Y-111854848*
X178137330Y-112341028*
X178408172Y-112522000*
X178137330Y-112702970*
X177812474Y-113189152*
X177698400Y-113762640*
Y-113821358*
X177812474Y-114394848*
X178137330Y-114881028*
X178408172Y-115062000*
X178137330Y-115242970*
X177812474Y-115729152*
X177698400Y-116302640*
Y-116361358*
X177812474Y-116934848*
X178137330Y-117421028*
X178408160Y-117601992*
X177990180Y-117983510*
X177742032Y-118512972*
X177862532Y-118745000*
X179070000*
Y-118725000*
X179324000*
Y-118745000*
X179344000*
Y-118999000*
X179324000*
Y-120205816*
X179556026Y-120326958*
X179971948Y-120154688*
X180403822Y-119760490*
X180461336Y-119637770*
X180677330Y-119961028*
X181163512Y-120285884*
X181737000Y-120399958*
X182310490Y-120285884*
X182796670Y-119961028*
X183121526Y-119474848*
X183235600Y-118901358*
Y-118842640*
X183121526Y-118269152*
X182796670Y-117782970*
X182525828Y-117602000*
X182796670Y-117421028*
X183121526Y-116934848*
X183235600Y-116361358*
Y-116302640*
X183121526Y-115729152*
X182796670Y-115242970*
X182525828Y-115062000*
X182796670Y-114881028*
X183121526Y-114394848*
X183235600Y-113821358*
Y-113762640*
X183121526Y-113189152*
X182809700Y-112722470*
X182842724Y-112716062*
X183055528Y-112576272*
X183197978Y-112365240*
X183248040Y-112115600*
Y-110388400*
X183201064Y-110146276*
X183061274Y-109933472*
X182850240Y-109791022*
X182600600Y-109740960*
X181902670*
X181368856Y-109207144*
X181129886Y-109047470*
X180848000Y-108991400*
X177724110*
X176377600Y-107644890*
Y-96393000*
Y-95123000*
X176321530Y-94841116*
Y-94841114*
X176161856Y-94602144*
X173593000Y-92033290*
Y-90619310*
Y-90366690*
Y-90328750*
X173434250Y-90170000*
X172833000*
Y-90969250*
X172991750Y-91128000*
X173084310*
X173317698Y-91031326*
X173496328Y-90852698*
X173593000Y-90619310*
Y-92033290*
X172555980Y-90996270*
X172583000Y-90969250*
Y-90170000*
X172561000*
Y-89916000*
X172583000*
Y-89896000*
X172833000*
Y-89916000*
X173434250*
X173593000Y-89757250*
Y-89719308*
Y-89466690*
X173496328Y-89233300*
X173391626Y-89128600*
X174050200*
X174332086Y-89072530*
X174571056Y-88912854*
X175145856Y-88338054*
X175215226Y-88234232*
X175317124Y-88214462*
X175529928Y-88074672*
X175672378Y-87863640*
X175722440Y-87614000*
Y-87190676*
X176911000Y-88379236*
Y-97790000*
X176978672Y-98130206*
X177171382Y-98418618*
X178498824Y-99746060*
X178012090*
X177769968Y-99793036*
X177557164Y-99932826*
X177414714Y-100143860*
X177364650Y-100393500*
Y-101917500*
X177411628Y-102159622*
X177551418Y-102372426*
X177762450Y-102514876*
X177978064Y-102558116*
X177754240Y-102707672*
X177451408Y-103160890*
X177345068Y-103695500*
X177451408Y-104230108*
X177754240Y-104683328*
X178176540Y-104965500*
X177754240Y-105247672*
X177451408Y-105700890*
X177345068Y-106235500*
X177451408Y-106770108*
X177754240Y-107223328*
X178207460Y-107526160*
X178742068Y-107632500*
X179281092*
X179815702Y-107526160*
X180268920Y-107223328*
X180549262Y-106803766*
X180742630Y-107148964*
X181173594Y-107488634*
X181701738Y-107637526*
X181922420Y-107478754*
Y-106362500*
X181902420*
Y-106108500*
X181922420*
Y-106088500*
X182176420*
Y-106108500*
X182196420*
Y-106362500*
X182176420*
Y-107478754*
X182397102Y-107637526*
X182925248Y-107488634*
X183338000Y-107163316*
Y-122711658*
X182788172Y-122160870*
X181967406Y-121820058*
X181078694Y-121819282*
X180257334Y-122158662*
X179628372Y-122786528*
X179287560Y-123607294*
X179286784Y-124496006*
X179626162Y-125317366*
X180254028Y-125946328*
X181074794Y-126287140*
X181963508Y-126287916*
X182784866Y-125948538*
X183338000Y-125396368*
Y-126335264*
M02*
