G04 CAM350 V9.5.1 (Build 211) Date:  Fri May 13 20:41:24 2016 *
G04 Database: (Untitled) *
G04 Layer 7: STM32duino-F_Pa *
%FSLAX46Y46*%
%MOMM*%
%SFA1.000B1.000*%

%MIA0B0*%
%IPPOS*%
%ADD29R,0.80000X0.75000*%
%ADD72R,0.75000X0.80000*%
%ADD73R,1.80086X2.49936*%
%ADD30R,0.79756X0.79756*%
%ADD31R,0.50000X0.90000*%
%ADD32R,0.91440X0.91440*%
%ADD33R,0.90000X0.50000*%
%ADD34R,1.00076X1.00076*%
%ADD35R,3.65760X2.03200*%
%ADD36R,1.01600X2.03200*%
%ADD37R,2.03200X3.65760*%
%ADD38R,2.03200X1.01600*%
%ADD39R,1.30048X0.29972*%
%ADD40R,0.29972X1.30048*%
%ADD43R,1.55000X0.60000*%
%ADD44R,3.00000X3.00000*%
%ADD45R,1.60020X2.60096*%
%ADD46R,0.70000X1.30000*%
%ADD47R,2.19710X2.19710*%
%ADD48R,2.19710X0.49784*%
%ADD51R,2.10000X0.95000*%
%ADD52R,0.95000X0.90000*%
%LNSTM32duino-F_Pa*%
%LPD*%
G54D29*
X166636000Y-95885000D03*
X168136000D03*
X159778000Y-109220000D03*
X161278000D03*
X164834000Y-95885000D03*
X163334000D03*
G54D72*
X139319000Y-87388000D03*
Y-88888000D03*
X129540000Y-85483000D03*
Y-86983000D03*
G54D29*
X160286000Y-97917000D03*
X161786000D03*
G54D72*
X141605000Y-87388000D03*
Y-88888000D03*
G54D29*
X149721000Y-115824000D03*
X148221000D03*
X138291000D03*
X136791000D03*
X145149000D03*
X143649000D03*
X166636000Y-97917000D03*
X168136000D03*
X164961000D03*
X163461000D03*
X164580000Y-109220000D03*
X163080000D03*
X166382000D03*
X167882000D03*
X140347000Y-115824000D03*
X141847000D03*
G54D73*
X132207000Y-120810020D03*
Y-124807980D03*
G54D30*
X117487700Y-104013000D03*
X118986300D03*
G54D31*
X161659000Y-95885000D03*
X160159000D03*
G54D32*
X126746000Y-110109000D03*
X124968000D03*
X125857000Y-108077000D03*
G54D33*
X127381000Y-87110000D03*
Y-85610000D03*
X131953000Y-87110000D03*
Y-85610000D03*
G54D31*
X160643000Y-115951000D03*
X159143000D03*
G54D33*
X164973000Y-118757000D03*
Y-120257000D03*
X167005000Y-118757000D03*
Y-120257000D03*
X117729000Y-117082000D03*
Y-115582000D03*
G54D31*
X128028000Y-94615000D03*
X129528000D03*
X128028000Y-92456000D03*
X129528000D03*
X128028000Y-96901000D03*
X129528000D03*
X129477200Y-99872800D03*
X127977200D03*
X128028000Y-102997000D03*
X129528000D03*
G54D33*
X117729000Y-114034000D03*
Y-112534000D03*
X134874000Y-88761000D03*
Y-87261000D03*
X136906000Y-88761000D03*
Y-87261000D03*
G54D31*
X171208000Y-90043000D03*
X172708000D03*
G54D34*
X118320820Y-82296000D03*
X125519180D03*
G54D35*
X139827000Y-125730000D03*
G54D36*
Y-119126000D03*
X137541000D03*
X142113000D03*
G54D37*
X155067000Y-121285000D03*
G54D38*
X148463000D03*
Y-123571000D03*
Y-118999000D03*
G54D39*
X155610560Y-104119680D03*
Y-103619300D03*
Y-103118920D03*
Y-102621080D03*
Y-102120700D03*
Y-105620820D03*
Y-105120440D03*
Y-104620060D03*
G54D40*
X154261820Y-98770440D03*
X153761440D03*
X153261060D03*
X152760680D03*
X152260300D03*
X151759920D03*
X151262080D03*
X150761700D03*
G54D39*
X147411440Y-100119180D03*
Y-100619560D03*
Y-101119940D03*
Y-101620320D03*
Y-102120700D03*
Y-102621080D03*
Y-103118920D03*
Y-103619300D03*
G54D40*
X148760180Y-106969560D03*
X149260560D03*
X149760940D03*
X150261320D03*
X150761700D03*
X151262080D03*
X151759920D03*
X152260300D03*
G54D39*
X155610560Y-101620320D03*
Y-101119940D03*
Y-100619560D03*
Y-100119180D03*
G54D40*
X150261320Y-98770440D03*
X149760940D03*
X149260560D03*
X148760180D03*
G54D39*
X147411440Y-104119680D03*
Y-104620060D03*
Y-105120440D03*
Y-105620820D03*
G54D40*
X152760680Y-106969560D03*
X153261060D03*
X153761440D03*
X154261820D03*
G54D51*
X138557000Y-100916000D03*
Y-97966000D03*
G54D52*
X140082000Y-99441000D03*
G54D43*
X121379000Y-112903000D03*
Y-114173000D03*
Y-115443000D03*
Y-116713000D03*
X126779000D03*
Y-115443000D03*
Y-114173000D03*
Y-112903000D03*
G54D44*
X167922000Y-106299000D03*
G54D45*
X132207000Y-113261140D03*
Y-116862860D03*
G54D29*
X119114000Y-110617000D03*
X117614000D03*
X151523000Y-115824000D03*
X153023000D03*
G54D46*
X127828000Y-89535000D03*
X129728000D03*
G54D47*
X123507500Y-98028760D03*
G54D48*
X123786900Y-92001340D03*
Y-92801440D03*
Y-93599000D03*
Y-94396560D03*
Y-95196660D03*
G54D47*
X123507500Y-89169240D03*
X118008400D03*
Y-98028760D03*
G54D33*
X174625000Y-85864000D03*
Y-87364000D03*
X171450000Y-85864000D03*
Y-87364000D03*
M02*
